%TF.GenerationSoftware,KiCad,Pcbnew,6.0.0-d3dd2cf0fa~116~ubuntu20.04.1*%
%TF.CreationDate,2022-02-06T14:44:10+01:00*%
%TF.ProjectId,vreg1,76726567-312e-46b6-9963-61645f706362,rev?*%
%TF.SameCoordinates,Original*%
%TF.FileFunction,AssemblyDrawing,Bot*%
%FSLAX46Y46*%
G04 Gerber Fmt 4.6, Leading zero omitted, Abs format (unit mm)*
G04 Created by KiCad (PCBNEW 6.0.0-d3dd2cf0fa~116~ubuntu20.04.1) date 2022-02-06 14:44:10*
%MOMM*%
%LPD*%
G01*
G04 APERTURE LIST*
%ADD10C,0.150000*%
%ADD11C,0.100000*%
G04 APERTURE END LIST*
D10*
%TO.C,J2*%
X105533333Y-82552380D02*
X105533333Y-83266666D01*
X105580952Y-83409523D01*
X105676190Y-83504761D01*
X105819047Y-83552380D01*
X105914285Y-83552380D01*
X105104761Y-82647619D02*
X105057142Y-82600000D01*
X104961904Y-82552380D01*
X104723809Y-82552380D01*
X104628571Y-82600000D01*
X104580952Y-82647619D01*
X104533333Y-82742857D01*
X104533333Y-82838095D01*
X104580952Y-82980952D01*
X105152380Y-83552380D01*
X104533333Y-83552380D01*
%TO.C,J1*%
X105533333Y-97252380D02*
X105533333Y-97966666D01*
X105580952Y-98109523D01*
X105676190Y-98204761D01*
X105819047Y-98252380D01*
X105914285Y-98252380D01*
X104533333Y-98252380D02*
X105104761Y-98252380D01*
X104819047Y-98252380D02*
X104819047Y-97252380D01*
X104914285Y-97395238D01*
X105009523Y-97490476D01*
X105104761Y-97538095D01*
%TO.C,E*%
X111867619Y-73854761D02*
X111820000Y-73759523D01*
X111724761Y-73664285D01*
X111581904Y-73521428D01*
X111534285Y-73426190D01*
X111534285Y-73330952D01*
X111772380Y-73378571D02*
X111724761Y-73283333D01*
X111629523Y-73188095D01*
X111439047Y-73140476D01*
X111105714Y-73140476D01*
X110915238Y-73188095D01*
X110820000Y-73283333D01*
X110772380Y-73378571D01*
X110772380Y-73569047D01*
X110820000Y-73664285D01*
X110915238Y-73759523D01*
X111105714Y-73807142D01*
X111439047Y-73807142D01*
X111629523Y-73759523D01*
X111724761Y-73664285D01*
X111772380Y-73569047D01*
X111772380Y-73378571D01*
X111248571Y-74569047D02*
X111248571Y-74235714D01*
X111772380Y-74235714D02*
X110772380Y-74235714D01*
X110772380Y-74711904D01*
X111772380Y-75092857D02*
X110772380Y-75092857D01*
X111772380Y-75664285D01*
X110772380Y-75664285D01*
X111391428Y-76140476D02*
X111391428Y-76902380D01*
X111772380Y-77902380D02*
X111772380Y-77330952D01*
X111772380Y-77616666D02*
X110772380Y-77616666D01*
X110915238Y-77521428D01*
X111010476Y-77426190D01*
X111058095Y-77330952D01*
X110772380Y-78759523D02*
X110772380Y-78569047D01*
X110820000Y-78473809D01*
X110867619Y-78426190D01*
X111010476Y-78330952D01*
X111200952Y-78283333D01*
X111581904Y-78283333D01*
X111677142Y-78330952D01*
X111724761Y-78378571D01*
X111772380Y-78473809D01*
X111772380Y-78664285D01*
X111724761Y-78759523D01*
X111677142Y-78807142D01*
X111581904Y-78854761D01*
X111343809Y-78854761D01*
X111248571Y-78807142D01*
X111200952Y-78759523D01*
X111153333Y-78664285D01*
X111153333Y-78473809D01*
X111200952Y-78378571D01*
X111248571Y-78330952D01*
X111343809Y-78283333D01*
X111391428Y-79283333D02*
X111391428Y-80045238D01*
X111772380Y-81045238D02*
X111772380Y-80473809D01*
X111772380Y-80759523D02*
X110772380Y-80759523D01*
X110915238Y-80664285D01*
X111010476Y-80569047D01*
X111058095Y-80473809D01*
X111248571Y-81473809D02*
X111248571Y-81807142D01*
X111772380Y-81950000D02*
X111772380Y-81473809D01*
X110772380Y-81473809D01*
X110772380Y-81950000D01*
X111772380Y-82378571D02*
X110772380Y-82378571D01*
X110772380Y-82759523D01*
X110820000Y-82854761D01*
X110867619Y-82902380D01*
X110962857Y-82950000D01*
X111105714Y-82950000D01*
X111200952Y-82902380D01*
X111248571Y-82854761D01*
X111296190Y-82759523D01*
X111296190Y-82378571D01*
X111867619Y-83140476D02*
X111867619Y-83902380D01*
X111105714Y-84569047D02*
X111772380Y-84569047D01*
X110724761Y-84330952D02*
X111439047Y-84092857D01*
X111439047Y-84711904D01*
X111772380Y-84997619D02*
X111105714Y-85521428D01*
X111105714Y-84997619D02*
X111772380Y-85521428D01*
X111105714Y-86330952D02*
X111772380Y-86330952D01*
X110724761Y-86092857D02*
X111439047Y-85854761D01*
X111439047Y-86473809D01*
X111772380Y-86854761D02*
X111105714Y-86854761D01*
X111200952Y-86854761D02*
X111153333Y-86902380D01*
X111105714Y-86997619D01*
X111105714Y-87140476D01*
X111153333Y-87235714D01*
X111248571Y-87283333D01*
X111772380Y-87283333D01*
X111248571Y-87283333D02*
X111153333Y-87330952D01*
X111105714Y-87426190D01*
X111105714Y-87569047D01*
X111153333Y-87664285D01*
X111248571Y-87711904D01*
X111772380Y-87711904D01*
X111772380Y-88188095D02*
X111105714Y-88188095D01*
X111200952Y-88188095D02*
X111153333Y-88235714D01*
X111105714Y-88330952D01*
X111105714Y-88473809D01*
X111153333Y-88569047D01*
X111248571Y-88616666D01*
X111772380Y-88616666D01*
X111248571Y-88616666D02*
X111153333Y-88664285D01*
X111105714Y-88759523D01*
X111105714Y-88902380D01*
X111153333Y-88997619D01*
X111248571Y-89045238D01*
X111772380Y-89045238D01*
X111867619Y-89283333D02*
X111867619Y-90045238D01*
X111772380Y-90283333D02*
X110772380Y-90283333D01*
X110772380Y-90664285D01*
X110820000Y-90759523D01*
X110867619Y-90807142D01*
X110962857Y-90854761D01*
X111105714Y-90854761D01*
X111200952Y-90807142D01*
X111248571Y-90759523D01*
X111296190Y-90664285D01*
X111296190Y-90283333D01*
X110772380Y-91473809D02*
X110772380Y-91569047D01*
X110820000Y-91664285D01*
X110867619Y-91711904D01*
X110962857Y-91759523D01*
X111153333Y-91807142D01*
X111391428Y-91807142D01*
X111581904Y-91759523D01*
X111677142Y-91711904D01*
X111724761Y-91664285D01*
X111772380Y-91569047D01*
X111772380Y-91473809D01*
X111724761Y-91378571D01*
X111677142Y-91330952D01*
X111581904Y-91283333D01*
X111391428Y-91235714D01*
X111153333Y-91235714D01*
X110962857Y-91283333D01*
X110867619Y-91330952D01*
X110820000Y-91378571D01*
X110772380Y-91473809D01*
X111677142Y-92235714D02*
X111724761Y-92283333D01*
X111772380Y-92235714D01*
X111724761Y-92188095D01*
X111677142Y-92235714D01*
X111772380Y-92235714D01*
X110772380Y-93140476D02*
X110772380Y-92949999D01*
X110820000Y-92854761D01*
X110867619Y-92807142D01*
X111010476Y-92711904D01*
X111200952Y-92664285D01*
X111581904Y-92664285D01*
X111677142Y-92711904D01*
X111724761Y-92759523D01*
X111772380Y-92854761D01*
X111772380Y-93045238D01*
X111724761Y-93140476D01*
X111677142Y-93188095D01*
X111581904Y-93235714D01*
X111343809Y-93235714D01*
X111248571Y-93188095D01*
X111200952Y-93140476D01*
X111153333Y-93045238D01*
X111153333Y-92854761D01*
X111200952Y-92759523D01*
X111248571Y-92711904D01*
X111343809Y-92664285D01*
X110772380Y-94140476D02*
X110772380Y-93664285D01*
X111248571Y-93616666D01*
X111200952Y-93664285D01*
X111153333Y-93759523D01*
X111153333Y-93997619D01*
X111200952Y-94092857D01*
X111248571Y-94140476D01*
X111343809Y-94188095D01*
X111581904Y-94188095D01*
X111677142Y-94140476D01*
X111724761Y-94092857D01*
X111772380Y-93997619D01*
X111772380Y-93759523D01*
X111724761Y-93664285D01*
X111677142Y-93616666D01*
X111772380Y-94616666D02*
X111105714Y-94616666D01*
X111200952Y-94616666D02*
X111153333Y-94664285D01*
X111105714Y-94759523D01*
X111105714Y-94902380D01*
X111153333Y-94997619D01*
X111248571Y-95045238D01*
X111772380Y-95045238D01*
X111248571Y-95045238D02*
X111153333Y-95092857D01*
X111105714Y-95188095D01*
X111105714Y-95330952D01*
X111153333Y-95426190D01*
X111248571Y-95473809D01*
X111772380Y-95473809D01*
X111772380Y-95949999D02*
X111105714Y-95949999D01*
X111200952Y-95949999D02*
X111153333Y-95997619D01*
X111105714Y-96092857D01*
X111105714Y-96235714D01*
X111153333Y-96330952D01*
X111248571Y-96378571D01*
X111772380Y-96378571D01*
X111248571Y-96378571D02*
X111153333Y-96426190D01*
X111105714Y-96521428D01*
X111105714Y-96664285D01*
X111153333Y-96759523D01*
X111248571Y-96807142D01*
X111772380Y-96807142D01*
X111867619Y-97045238D02*
X111867619Y-97807142D01*
X111248571Y-98045238D02*
X111248571Y-98378571D01*
X111772380Y-98521428D02*
X111772380Y-98045238D01*
X110772380Y-98045238D01*
X110772380Y-98521428D01*
X111772380Y-98949999D02*
X110772380Y-98949999D01*
X110772380Y-99330952D01*
X110820000Y-99426190D01*
X110867619Y-99473809D01*
X110962857Y-99521428D01*
X111105714Y-99521428D01*
X111200952Y-99473809D01*
X111248571Y-99426190D01*
X111296190Y-99330952D01*
X111296190Y-98949999D01*
X110867619Y-99902380D02*
X110820000Y-99949999D01*
X110772380Y-100045238D01*
X110772380Y-100283333D01*
X110820000Y-100378571D01*
X110867619Y-100426190D01*
X110962857Y-100473809D01*
X111058095Y-100473809D01*
X111200952Y-100426190D01*
X111772380Y-99854761D01*
X111772380Y-100473809D01*
X111677142Y-100902380D02*
X111724761Y-100949999D01*
X111772380Y-100902380D01*
X111724761Y-100854761D01*
X111677142Y-100902380D01*
X111772380Y-100902380D01*
X110772380Y-101283333D02*
X110772380Y-101949999D01*
X111772380Y-101521428D01*
X111772380Y-102235714D02*
X111105714Y-102759523D01*
X111105714Y-102235714D02*
X111772380Y-102759523D01*
X110867619Y-103092857D02*
X110820000Y-103140476D01*
X110772380Y-103235714D01*
X110772380Y-103473809D01*
X110820000Y-103569047D01*
X110867619Y-103616666D01*
X110962857Y-103664285D01*
X111058095Y-103664285D01*
X111200952Y-103616666D01*
X111772380Y-103045238D01*
X111772380Y-103664285D01*
X111677142Y-104092857D02*
X111724761Y-104140476D01*
X111772380Y-104092857D01*
X111724761Y-104045238D01*
X111677142Y-104092857D01*
X111772380Y-104092857D01*
X110772380Y-104473809D02*
X110772380Y-105140476D01*
X111772380Y-104711904D01*
X111772380Y-105521428D02*
X111105714Y-105521428D01*
X111200952Y-105521428D02*
X111153333Y-105569047D01*
X111105714Y-105664285D01*
X111105714Y-105807142D01*
X111153333Y-105902380D01*
X111248571Y-105949999D01*
X111772380Y-105949999D01*
X111248571Y-105949999D02*
X111153333Y-105997619D01*
X111105714Y-106092857D01*
X111105714Y-106235714D01*
X111153333Y-106330952D01*
X111248571Y-106378571D01*
X111772380Y-106378571D01*
X111772380Y-106854761D02*
X111105714Y-106854761D01*
X111200952Y-106854761D02*
X111153333Y-106902380D01*
X111105714Y-106997619D01*
X111105714Y-107140476D01*
X111153333Y-107235714D01*
X111248571Y-107283333D01*
X111772380Y-107283333D01*
X111248571Y-107283333D02*
X111153333Y-107330952D01*
X111105714Y-107426190D01*
X111105714Y-107569047D01*
X111153333Y-107664285D01*
X111248571Y-107711904D01*
X111772380Y-107711904D01*
D11*
%TO.C,J2*%
X103200000Y-82100000D02*
X103200000Y-84100000D01*
X103200000Y-84100000D02*
X106700000Y-84100000D01*
X107200000Y-83600000D02*
X107200000Y-82100000D01*
X107200000Y-82100000D02*
X103200000Y-82100000D01*
X106700000Y-84100000D02*
X107200000Y-83600000D01*
%TO.C,J1*%
X107200000Y-98300000D02*
X107200000Y-96800000D01*
X106700000Y-98800000D02*
X107200000Y-98300000D01*
X107200000Y-96800000D02*
X103200000Y-96800000D01*
X103200000Y-96800000D02*
X103200000Y-98800000D01*
X103200000Y-98800000D02*
X106700000Y-98800000D01*
%TD*%
M02*
