%TF.GenerationSoftware,KiCad,Pcbnew,6.0.0-d3dd2cf0fa~116~ubuntu20.04.1*%
%TF.CreationDate,2022-02-06T14:44:10+01:00*%
%TF.ProjectId,vreg1,76726567-312e-46b6-9963-61645f706362,rev?*%
%TF.SameCoordinates,Original*%
%TF.FileFunction,AssemblyDrawing,Top*%
%FSLAX46Y46*%
G04 Gerber Fmt 4.6, Leading zero omitted, Abs format (unit mm)*
G04 Created by KiCad (PCBNEW 6.0.0-d3dd2cf0fa~116~ubuntu20.04.1) date 2022-02-06 14:44:10*
%MOMM*%
%LPD*%
G01*
G04 APERTURE LIST*
%ADD10C,0.150000*%
%ADD11C,0.040000*%
%ADD12C,0.060000*%
%ADD13C,0.050000*%
%ADD14C,0.120000*%
%ADD15C,0.100000*%
G04 APERTURE END LIST*
D10*
%TO.C,FID2*%
X95819047Y-95428571D02*
X95485714Y-95428571D01*
X95485714Y-95952380D02*
X95485714Y-94952380D01*
X95961904Y-94952380D01*
X96342857Y-95952380D02*
X96342857Y-95285714D01*
X96342857Y-94952380D02*
X96295238Y-95000000D01*
X96342857Y-95047619D01*
X96390476Y-95000000D01*
X96342857Y-94952380D01*
X96342857Y-95047619D01*
X97247619Y-95952380D02*
X97247619Y-94952380D01*
X97247619Y-95904761D02*
X97152380Y-95952380D01*
X96961904Y-95952380D01*
X96866666Y-95904761D01*
X96819047Y-95857142D01*
X96771428Y-95761904D01*
X96771428Y-95476190D01*
X96819047Y-95380952D01*
X96866666Y-95333333D01*
X96961904Y-95285714D01*
X97152380Y-95285714D01*
X97247619Y-95333333D01*
X98152380Y-95285714D02*
X98152380Y-95952380D01*
X97723809Y-95285714D02*
X97723809Y-95809523D01*
X97771428Y-95904761D01*
X97866666Y-95952380D01*
X98009523Y-95952380D01*
X98104761Y-95904761D01*
X98152380Y-95857142D01*
X99057142Y-95904761D02*
X98961904Y-95952380D01*
X98771428Y-95952380D01*
X98676190Y-95904761D01*
X98628571Y-95857142D01*
X98580952Y-95761904D01*
X98580952Y-95476190D01*
X98628571Y-95380952D01*
X98676190Y-95333333D01*
X98771428Y-95285714D01*
X98961904Y-95285714D01*
X99057142Y-95333333D01*
X99485714Y-95952380D02*
X99485714Y-95285714D01*
X99485714Y-94952380D02*
X99438095Y-95000000D01*
X99485714Y-95047619D01*
X99533333Y-95000000D01*
X99485714Y-94952380D01*
X99485714Y-95047619D01*
X100390476Y-95952380D02*
X100390476Y-95428571D01*
X100342857Y-95333333D01*
X100247619Y-95285714D01*
X100057142Y-95285714D01*
X99961904Y-95333333D01*
X100390476Y-95904761D02*
X100295238Y-95952380D01*
X100057142Y-95952380D01*
X99961904Y-95904761D01*
X99914285Y-95809523D01*
X99914285Y-95714285D01*
X99961904Y-95619047D01*
X100057142Y-95571428D01*
X100295238Y-95571428D01*
X100390476Y-95523809D01*
X101009523Y-95952380D02*
X100914285Y-95904761D01*
X100866666Y-95809523D01*
X100866666Y-94952380D01*
D11*
X97985714Y-93985714D02*
X97919047Y-93985714D01*
X97919047Y-94090476D02*
X97919047Y-93890476D01*
X98014285Y-93890476D01*
X98090476Y-94090476D02*
X98090476Y-93890476D01*
X98185714Y-94090476D02*
X98185714Y-93890476D01*
X98233333Y-93890476D01*
X98261904Y-93900000D01*
X98280952Y-93919047D01*
X98290476Y-93938095D01*
X98300000Y-93976190D01*
X98300000Y-94004761D01*
X98290476Y-94042857D01*
X98280952Y-94061904D01*
X98261904Y-94080952D01*
X98233333Y-94090476D01*
X98185714Y-94090476D01*
X98376190Y-93909523D02*
X98385714Y-93900000D01*
X98404761Y-93890476D01*
X98452380Y-93890476D01*
X98471428Y-93900000D01*
X98480952Y-93909523D01*
X98490476Y-93928571D01*
X98490476Y-93947619D01*
X98480952Y-93976190D01*
X98366666Y-94090476D01*
X98490476Y-94090476D01*
D10*
%TO.C,FID1*%
X111619047Y-83828571D02*
X111285714Y-83828571D01*
X111285714Y-84352380D02*
X111285714Y-83352380D01*
X111761904Y-83352380D01*
X112142857Y-84352380D02*
X112142857Y-83685714D01*
X112142857Y-83352380D02*
X112095238Y-83400000D01*
X112142857Y-83447619D01*
X112190476Y-83400000D01*
X112142857Y-83352380D01*
X112142857Y-83447619D01*
X113047619Y-84352380D02*
X113047619Y-83352380D01*
X113047619Y-84304761D02*
X112952380Y-84352380D01*
X112761904Y-84352380D01*
X112666666Y-84304761D01*
X112619047Y-84257142D01*
X112571428Y-84161904D01*
X112571428Y-83876190D01*
X112619047Y-83780952D01*
X112666666Y-83733333D01*
X112761904Y-83685714D01*
X112952380Y-83685714D01*
X113047619Y-83733333D01*
X113952380Y-83685714D02*
X113952380Y-84352380D01*
X113523809Y-83685714D02*
X113523809Y-84209523D01*
X113571428Y-84304761D01*
X113666666Y-84352380D01*
X113809523Y-84352380D01*
X113904761Y-84304761D01*
X113952380Y-84257142D01*
X114857142Y-84304761D02*
X114761904Y-84352380D01*
X114571428Y-84352380D01*
X114476190Y-84304761D01*
X114428571Y-84257142D01*
X114380952Y-84161904D01*
X114380952Y-83876190D01*
X114428571Y-83780952D01*
X114476190Y-83733333D01*
X114571428Y-83685714D01*
X114761904Y-83685714D01*
X114857142Y-83733333D01*
X115285714Y-84352380D02*
X115285714Y-83685714D01*
X115285714Y-83352380D02*
X115238095Y-83400000D01*
X115285714Y-83447619D01*
X115333333Y-83400000D01*
X115285714Y-83352380D01*
X115285714Y-83447619D01*
X116190476Y-84352380D02*
X116190476Y-83828571D01*
X116142857Y-83733333D01*
X116047619Y-83685714D01*
X115857142Y-83685714D01*
X115761904Y-83733333D01*
X116190476Y-84304761D02*
X116095238Y-84352380D01*
X115857142Y-84352380D01*
X115761904Y-84304761D01*
X115714285Y-84209523D01*
X115714285Y-84114285D01*
X115761904Y-84019047D01*
X115857142Y-83971428D01*
X116095238Y-83971428D01*
X116190476Y-83923809D01*
X116809523Y-84352380D02*
X116714285Y-84304761D01*
X116666666Y-84209523D01*
X116666666Y-83352380D01*
D11*
X113785714Y-82385714D02*
X113719047Y-82385714D01*
X113719047Y-82490476D02*
X113719047Y-82290476D01*
X113814285Y-82290476D01*
X113890476Y-82490476D02*
X113890476Y-82290476D01*
X113985714Y-82490476D02*
X113985714Y-82290476D01*
X114033333Y-82290476D01*
X114061904Y-82300000D01*
X114080952Y-82319047D01*
X114090476Y-82338095D01*
X114100000Y-82376190D01*
X114100000Y-82404761D01*
X114090476Y-82442857D01*
X114080952Y-82461904D01*
X114061904Y-82480952D01*
X114033333Y-82490476D01*
X113985714Y-82490476D01*
X114290476Y-82490476D02*
X114176190Y-82490476D01*
X114233333Y-82490476D02*
X114233333Y-82290476D01*
X114214285Y-82319047D01*
X114195238Y-82338095D01*
X114176190Y-82347619D01*
D10*
%TO.C,R2*%
X110582380Y-96166666D02*
X110582380Y-96738095D01*
X110582380Y-96452380D02*
X109582380Y-96452380D01*
X109725238Y-96547619D01*
X109820476Y-96642857D01*
X109868095Y-96738095D01*
X109582380Y-95547619D02*
X109582380Y-95452380D01*
X109630000Y-95357142D01*
X109677619Y-95309523D01*
X109772857Y-95261904D01*
X109963333Y-95214285D01*
X110201428Y-95214285D01*
X110391904Y-95261904D01*
X110487142Y-95309523D01*
X110534761Y-95357142D01*
X110582380Y-95452380D01*
X110582380Y-95547619D01*
X110534761Y-95642857D01*
X110487142Y-95690476D01*
X110391904Y-95738095D01*
X110201428Y-95785714D01*
X109963333Y-95785714D01*
X109772857Y-95738095D01*
X109677619Y-95690476D01*
X109630000Y-95642857D01*
X109582380Y-95547619D01*
X109582380Y-94595238D02*
X109582380Y-94500000D01*
X109630000Y-94404761D01*
X109677619Y-94357142D01*
X109772857Y-94309523D01*
X109963333Y-94261904D01*
X110201428Y-94261904D01*
X110391904Y-94309523D01*
X110487142Y-94357142D01*
X110534761Y-94404761D01*
X110582380Y-94500000D01*
X110582380Y-94595238D01*
X110534761Y-94690476D01*
X110487142Y-94738095D01*
X110391904Y-94785714D01*
X110201428Y-94833333D01*
X109963333Y-94833333D01*
X109772857Y-94785714D01*
X109677619Y-94738095D01*
X109630000Y-94690476D01*
X109582380Y-94595238D01*
X110582380Y-93833333D02*
X109582380Y-93833333D01*
X110582380Y-93261904D02*
X110010952Y-93690476D01*
X109582380Y-93261904D02*
X110153809Y-93833333D01*
D12*
X108880952Y-95066666D02*
X108690476Y-95200000D01*
X108880952Y-95295238D02*
X108480952Y-95295238D01*
X108480952Y-95142857D01*
X108500000Y-95104761D01*
X108519047Y-95085714D01*
X108557142Y-95066666D01*
X108614285Y-95066666D01*
X108652380Y-95085714D01*
X108671428Y-95104761D01*
X108690476Y-95142857D01*
X108690476Y-95295238D01*
X108519047Y-94914285D02*
X108500000Y-94895238D01*
X108480952Y-94857142D01*
X108480952Y-94761904D01*
X108500000Y-94723809D01*
X108519047Y-94704761D01*
X108557142Y-94685714D01*
X108595238Y-94685714D01*
X108652380Y-94704761D01*
X108880952Y-94933333D01*
X108880952Y-94685714D01*
D10*
%TO.C,Q1*%
X113628571Y-96457142D02*
X113676190Y-96314285D01*
X113723809Y-96266666D01*
X113819047Y-96219047D01*
X113961904Y-96219047D01*
X114057142Y-96266666D01*
X114104761Y-96314285D01*
X114152380Y-96409523D01*
X114152380Y-96790476D01*
X113152380Y-96790476D01*
X113152380Y-96457142D01*
X113200000Y-96361904D01*
X113247619Y-96314285D01*
X113342857Y-96266666D01*
X113438095Y-96266666D01*
X113533333Y-96314285D01*
X113580952Y-96361904D01*
X113628571Y-96457142D01*
X113628571Y-96790476D01*
X114057142Y-95219047D02*
X114104761Y-95266666D01*
X114152380Y-95409523D01*
X114152380Y-95504761D01*
X114104761Y-95647619D01*
X114009523Y-95742857D01*
X113914285Y-95790476D01*
X113723809Y-95838095D01*
X113580952Y-95838095D01*
X113390476Y-95790476D01*
X113295238Y-95742857D01*
X113200000Y-95647619D01*
X113152380Y-95504761D01*
X113152380Y-95409523D01*
X113200000Y-95266666D01*
X113247619Y-95219047D01*
X113580952Y-94647619D02*
X113533333Y-94742857D01*
X113485714Y-94790476D01*
X113390476Y-94838095D01*
X113342857Y-94838095D01*
X113247619Y-94790476D01*
X113200000Y-94742857D01*
X113152380Y-94647619D01*
X113152380Y-94457142D01*
X113200000Y-94361904D01*
X113247619Y-94314285D01*
X113342857Y-94266666D01*
X113390476Y-94266666D01*
X113485714Y-94314285D01*
X113533333Y-94361904D01*
X113580952Y-94457142D01*
X113580952Y-94647619D01*
X113628571Y-94742857D01*
X113676190Y-94790476D01*
X113771428Y-94838095D01*
X113961904Y-94838095D01*
X114057142Y-94790476D01*
X114104761Y-94742857D01*
X114152380Y-94647619D01*
X114152380Y-94457142D01*
X114104761Y-94361904D01*
X114057142Y-94314285D01*
X113961904Y-94266666D01*
X113771428Y-94266666D01*
X113676190Y-94314285D01*
X113628571Y-94361904D01*
X113580952Y-94457142D01*
X114152380Y-93314285D02*
X114152380Y-93885714D01*
X114152380Y-93600000D02*
X113152380Y-93600000D01*
X113295238Y-93695238D01*
X113390476Y-93790476D01*
X113438095Y-93885714D01*
X113152380Y-92980952D02*
X113152380Y-92314285D01*
X114152380Y-92742857D01*
D13*
X111475238Y-94630476D02*
X111460000Y-94660952D01*
X111429523Y-94691428D01*
X111383809Y-94737142D01*
X111368571Y-94767619D01*
X111368571Y-94798095D01*
X111444761Y-94782857D02*
X111429523Y-94813333D01*
X111399047Y-94843809D01*
X111338095Y-94859047D01*
X111231428Y-94859047D01*
X111170476Y-94843809D01*
X111140000Y-94813333D01*
X111124761Y-94782857D01*
X111124761Y-94721904D01*
X111140000Y-94691428D01*
X111170476Y-94660952D01*
X111231428Y-94645714D01*
X111338095Y-94645714D01*
X111399047Y-94660952D01*
X111429523Y-94691428D01*
X111444761Y-94721904D01*
X111444761Y-94782857D01*
X111444761Y-94340952D02*
X111444761Y-94523809D01*
X111444761Y-94432380D02*
X111124761Y-94432380D01*
X111170476Y-94462857D01*
X111200952Y-94493333D01*
X111216190Y-94523809D01*
D10*
%TO.C,R1*%
X113222380Y-91766666D02*
X113222380Y-92338095D01*
X113222380Y-92052380D02*
X112222380Y-92052380D01*
X112365238Y-92147619D01*
X112460476Y-92242857D01*
X112508095Y-92338095D01*
X112222380Y-91147619D02*
X112222380Y-91052380D01*
X112270000Y-90957142D01*
X112317619Y-90909523D01*
X112412857Y-90861904D01*
X112603333Y-90814285D01*
X112841428Y-90814285D01*
X113031904Y-90861904D01*
X113127142Y-90909523D01*
X113174761Y-90957142D01*
X113222380Y-91052380D01*
X113222380Y-91147619D01*
X113174761Y-91242857D01*
X113127142Y-91290476D01*
X113031904Y-91338095D01*
X112841428Y-91385714D01*
X112603333Y-91385714D01*
X112412857Y-91338095D01*
X112317619Y-91290476D01*
X112270000Y-91242857D01*
X112222380Y-91147619D01*
X112222380Y-90195238D02*
X112222380Y-90100000D01*
X112270000Y-90004761D01*
X112317619Y-89957142D01*
X112412857Y-89909523D01*
X112603333Y-89861904D01*
X112841428Y-89861904D01*
X113031904Y-89909523D01*
X113127142Y-89957142D01*
X113174761Y-90004761D01*
X113222380Y-90100000D01*
X113222380Y-90195238D01*
X113174761Y-90290476D01*
X113127142Y-90338095D01*
X113031904Y-90385714D01*
X112841428Y-90433333D01*
X112603333Y-90433333D01*
X112412857Y-90385714D01*
X112317619Y-90338095D01*
X112270000Y-90290476D01*
X112222380Y-90195238D01*
X113222380Y-89433333D02*
X112222380Y-89433333D01*
X113222380Y-88861904D02*
X112650952Y-89290476D01*
X112222380Y-88861904D02*
X112793809Y-89433333D01*
D12*
X114380952Y-90666666D02*
X114190476Y-90800000D01*
X114380952Y-90895238D02*
X113980952Y-90895238D01*
X113980952Y-90742857D01*
X114000000Y-90704761D01*
X114019047Y-90685714D01*
X114057142Y-90666666D01*
X114114285Y-90666666D01*
X114152380Y-90685714D01*
X114171428Y-90704761D01*
X114190476Y-90742857D01*
X114190476Y-90895238D01*
X114380952Y-90285714D02*
X114380952Y-90514285D01*
X114380952Y-90400000D02*
X113980952Y-90400000D01*
X114038095Y-90438095D01*
X114076190Y-90476190D01*
X114095238Y-90514285D01*
D14*
%TO.C,F1*%
X115142857Y-94666666D02*
X115142857Y-94933333D01*
X115561904Y-94933333D02*
X114761904Y-94933333D01*
X114761904Y-94552380D01*
X115561904Y-93828571D02*
X115561904Y-94285714D01*
X115561904Y-94057142D02*
X114761904Y-94057142D01*
X114876190Y-94133333D01*
X114952380Y-94209523D01*
X114990476Y-94285714D01*
D10*
%TO.C,Q2*%
X107757142Y-88852380D02*
X107757142Y-87852380D01*
X107995238Y-87852380D01*
X108138095Y-87900000D01*
X108233333Y-87995238D01*
X108280952Y-88090476D01*
X108328571Y-88280952D01*
X108328571Y-88423809D01*
X108280952Y-88614285D01*
X108233333Y-88709523D01*
X108138095Y-88804761D01*
X107995238Y-88852380D01*
X107757142Y-88852380D01*
X108757142Y-88852380D02*
X108757142Y-87852380D01*
X109090476Y-88566666D01*
X109423809Y-87852380D01*
X109423809Y-88852380D01*
X110423809Y-87900000D02*
X110328571Y-87852380D01*
X110185714Y-87852380D01*
X110042857Y-87900000D01*
X109947619Y-87995238D01*
X109900000Y-88090476D01*
X109852380Y-88280952D01*
X109852380Y-88423809D01*
X109900000Y-88614285D01*
X109947619Y-88709523D01*
X110042857Y-88804761D01*
X110185714Y-88852380D01*
X110280952Y-88852380D01*
X110423809Y-88804761D01*
X110471428Y-88757142D01*
X110471428Y-88423809D01*
X110280952Y-88423809D01*
X110852380Y-87947619D02*
X110900000Y-87900000D01*
X110995238Y-87852380D01*
X111233333Y-87852380D01*
X111328571Y-87900000D01*
X111376190Y-87947619D01*
X111423809Y-88042857D01*
X111423809Y-88138095D01*
X111376190Y-88280952D01*
X110804761Y-88852380D01*
X111423809Y-88852380D01*
X111757142Y-87852380D02*
X112376190Y-87852380D01*
X112042857Y-88233333D01*
X112185714Y-88233333D01*
X112280952Y-88280952D01*
X112328571Y-88328571D01*
X112376190Y-88423809D01*
X112376190Y-88661904D01*
X112328571Y-88757142D01*
X112280952Y-88804761D01*
X112185714Y-88852380D01*
X111900000Y-88852380D01*
X111804761Y-88804761D01*
X111757142Y-88757142D01*
X112995238Y-87852380D02*
X113090476Y-87852380D01*
X113185714Y-87900000D01*
X113233333Y-87947619D01*
X113280952Y-88042857D01*
X113328571Y-88233333D01*
X113328571Y-88471428D01*
X113280952Y-88661904D01*
X113233333Y-88757142D01*
X113185714Y-88804761D01*
X113090476Y-88852380D01*
X112995238Y-88852380D01*
X112900000Y-88804761D01*
X112852380Y-88757142D01*
X112804761Y-88661904D01*
X112757142Y-88471428D01*
X112757142Y-88233333D01*
X112804761Y-88042857D01*
X112852380Y-87947619D01*
X112900000Y-87900000D01*
X112995238Y-87852380D01*
X114280952Y-88852380D02*
X113709523Y-88852380D01*
X113995238Y-88852380D02*
X113995238Y-87852380D01*
X113900000Y-87995238D01*
X113804761Y-88090476D01*
X113709523Y-88138095D01*
X115185714Y-88852380D02*
X114709523Y-88852380D01*
X114709523Y-87852380D01*
D13*
X111369523Y-90975238D02*
X111339047Y-90960000D01*
X111308571Y-90929523D01*
X111262857Y-90883809D01*
X111232380Y-90868571D01*
X111201904Y-90868571D01*
X111217142Y-90944761D02*
X111186666Y-90929523D01*
X111156190Y-90899047D01*
X111140952Y-90838095D01*
X111140952Y-90731428D01*
X111156190Y-90670476D01*
X111186666Y-90640000D01*
X111217142Y-90624761D01*
X111278095Y-90624761D01*
X111308571Y-90640000D01*
X111339047Y-90670476D01*
X111354285Y-90731428D01*
X111354285Y-90838095D01*
X111339047Y-90899047D01*
X111308571Y-90929523D01*
X111278095Y-90944761D01*
X111217142Y-90944761D01*
X111476190Y-90655238D02*
X111491428Y-90640000D01*
X111521904Y-90624761D01*
X111598095Y-90624761D01*
X111628571Y-90640000D01*
X111643809Y-90655238D01*
X111659047Y-90685714D01*
X111659047Y-90716190D01*
X111643809Y-90761904D01*
X111460952Y-90944761D01*
X111659047Y-90944761D01*
D14*
%TO.C,C1*%
X105466666Y-94485714D02*
X105428571Y-94523809D01*
X105314285Y-94561904D01*
X105238095Y-94561904D01*
X105123809Y-94523809D01*
X105047619Y-94447619D01*
X105009523Y-94371428D01*
X104971428Y-94219047D01*
X104971428Y-94104761D01*
X105009523Y-93952380D01*
X105047619Y-93876190D01*
X105123809Y-93800000D01*
X105238095Y-93761904D01*
X105314285Y-93761904D01*
X105428571Y-93800000D01*
X105466666Y-93838095D01*
X106228571Y-94561904D02*
X105771428Y-94561904D01*
X106000000Y-94561904D02*
X106000000Y-93761904D01*
X105923809Y-93876190D01*
X105847619Y-93952380D01*
X105771428Y-93990476D01*
D12*
%TO.C,C2*%
X106633333Y-85142857D02*
X106614285Y-85161904D01*
X106557142Y-85180952D01*
X106519047Y-85180952D01*
X106461904Y-85161904D01*
X106423809Y-85123809D01*
X106404761Y-85085714D01*
X106385714Y-85009523D01*
X106385714Y-84952380D01*
X106404761Y-84876190D01*
X106423809Y-84838095D01*
X106461904Y-84800000D01*
X106519047Y-84780952D01*
X106557142Y-84780952D01*
X106614285Y-84800000D01*
X106633333Y-84819047D01*
X106785714Y-84819047D02*
X106804761Y-84800000D01*
X106842857Y-84780952D01*
X106938095Y-84780952D01*
X106976190Y-84800000D01*
X106995238Y-84819047D01*
X107014285Y-84857142D01*
X107014285Y-84895238D01*
X106995238Y-84952380D01*
X106766666Y-85180952D01*
X107014285Y-85180952D01*
D10*
%TO.C,U1*%
X101438095Y-88852380D02*
X101438095Y-89661904D01*
X101485714Y-89757142D01*
X101533333Y-89804761D01*
X101628571Y-89852380D01*
X101819047Y-89852380D01*
X101914285Y-89804761D01*
X101961904Y-89757142D01*
X102009523Y-89661904D01*
X102009523Y-88852380D01*
X103009523Y-89852380D02*
X102438095Y-89852380D01*
X102723809Y-89852380D02*
X102723809Y-88852380D01*
X102628571Y-88995238D01*
X102533333Y-89090476D01*
X102438095Y-89138095D01*
%TO.C,D1*%
X114803520Y-87037075D02*
X113803520Y-87037075D01*
X113803520Y-86798980D01*
X113851140Y-86656122D01*
X113946378Y-86560884D01*
X114041616Y-86513265D01*
X114232092Y-86465646D01*
X114374949Y-86465646D01*
X114565425Y-86513265D01*
X114660663Y-86560884D01*
X114755901Y-86656122D01*
X114803520Y-86798980D01*
X114803520Y-87037075D01*
X114803520Y-85513265D02*
X114803520Y-86084694D01*
X114803520Y-85798980D02*
X113803520Y-85798980D01*
X113946378Y-85894218D01*
X114041616Y-85989456D01*
X114089235Y-86084694D01*
D15*
%TO.C,FID2*%
X98700000Y-94000000D02*
G75*
G03*
X98700000Y-94000000I-500000J0D01*
G01*
%TO.C,FID1*%
X114500000Y-82400000D02*
G75*
G03*
X114500000Y-82400000I-500000J0D01*
G01*
%TO.C,R2*%
X109112500Y-95800000D02*
X108287500Y-95800000D01*
X109112500Y-94200000D02*
X109112500Y-95800000D01*
X108287500Y-95800000D02*
X108287500Y-94200000D01*
X108287500Y-94200000D02*
X109112500Y-94200000D01*
%TO.C,Q1*%
X112750000Y-93950000D02*
X112750000Y-95250000D01*
X112750000Y-95250000D02*
X110175000Y-95250000D01*
X110175000Y-95250000D02*
X109850000Y-94925000D01*
X109850000Y-93950000D02*
X112750000Y-93950000D01*
X109850000Y-94925000D02*
X109850000Y-93950000D01*
%TO.C,R1*%
X114612500Y-89800000D02*
X114612500Y-91400000D01*
X114612500Y-91400000D02*
X113787500Y-91400000D01*
X113787500Y-91400000D02*
X113787500Y-89800000D01*
X113787500Y-89800000D02*
X114612500Y-89800000D01*
%TO.C,F1*%
X116000000Y-92800000D02*
X116000000Y-96000000D01*
X114400000Y-92800000D02*
X116000000Y-92800000D01*
X114400000Y-96000000D02*
X114400000Y-92800000D01*
X116000000Y-96000000D02*
X114400000Y-96000000D01*
%TO.C,Q2*%
X110750000Y-89350000D02*
X112050000Y-89350000D01*
X112050000Y-89350000D02*
X112050000Y-91925000D01*
X110750000Y-92250000D02*
X110750000Y-89350000D01*
X111725000Y-92250000D02*
X110750000Y-92250000D01*
X112050000Y-91925000D02*
X111725000Y-92250000D01*
%TO.C,C1*%
X107200000Y-93400000D02*
X107200000Y-95000000D01*
X107200000Y-95000000D02*
X104000000Y-95000000D01*
X104000000Y-93400000D02*
X107200000Y-93400000D01*
X104000000Y-95000000D02*
X104000000Y-93400000D01*
%TO.C,C2*%
X107500000Y-85400000D02*
X105900000Y-85400000D01*
X105900000Y-84600000D02*
X107500000Y-84600000D01*
X105900000Y-85400000D02*
X105900000Y-84600000D01*
X107500000Y-84600000D02*
X107500000Y-85400000D01*
%TO.C,U1*%
X108570000Y-86745000D02*
X105870000Y-86745000D01*
X98650000Y-86700000D02*
X99650000Y-86700000D01*
X105870000Y-87495000D02*
X108570000Y-87495000D01*
X105870000Y-91650000D02*
X104870000Y-92650000D01*
X105465000Y-92055000D02*
X108570000Y-92055000D01*
X98650000Y-92100000D02*
X98650000Y-86700000D01*
X108570000Y-92055000D02*
X108570000Y-91305000D01*
X105870000Y-86150000D02*
X105870000Y-91650000D01*
X99650000Y-86150000D02*
X105870000Y-86150000D01*
X108570000Y-91305000D02*
X105870000Y-91305000D01*
X108570000Y-87495000D02*
X108570000Y-86745000D01*
X104870000Y-92650000D02*
X99650000Y-92650000D01*
X99650000Y-92100000D02*
X98650000Y-92100000D01*
X99650000Y-92650000D02*
X99650000Y-86150000D01*
%TO.C,D1*%
X110500000Y-87800000D02*
X115100000Y-87800000D01*
X113449440Y-86298980D02*
X112298820Y-85549680D01*
X110500000Y-87800000D02*
X110500000Y-84800000D01*
X115100000Y-84800000D02*
X115100000Y-87800000D01*
X113449440Y-86298980D02*
X114351140Y-86298980D01*
X113449440Y-86298980D02*
X112298820Y-87099080D01*
X113449440Y-87099080D02*
X113449440Y-85498880D01*
X110500000Y-84800000D02*
X115100000Y-84800000D01*
X112298820Y-86298980D02*
X111300600Y-86298980D01*
X112298820Y-85549680D02*
X112298820Y-87099080D01*
%TD*%
M02*
