%TF.GenerationSoftware,KiCad,Pcbnew,6.0.0-d3dd2cf0fa~116~ubuntu20.04.1*%
%TF.CreationDate,2022-02-06T14:44:09+01:00*%
%TF.ProjectId,vreg1,76726567-312e-46b6-9963-61645f706362,rev?*%
%TF.SameCoordinates,Original*%
%TF.FileFunction,Legend,Bot*%
%TF.FilePolarity,Positive*%
%FSLAX46Y46*%
G04 Gerber Fmt 4.6, Leading zero omitted, Abs format (unit mm)*
G04 Created by KiCad (PCBNEW 6.0.0-d3dd2cf0fa~116~ubuntu20.04.1) date 2022-02-06 14:44:09*
%MOMM*%
%LPD*%
G01*
G04 APERTURE LIST*
%ADD10C,0.150000*%
%ADD11C,0.300000*%
%ADD12C,0.200000*%
%ADD13C,0.120000*%
%ADD14C,0.010000*%
G04 APERTURE END LIST*
D10*
X98116666Y-86666666D02*
X98616666Y-86666666D01*
X98716666Y-86633333D01*
X98783333Y-86566666D01*
X98816666Y-86466666D01*
X98816666Y-86400000D01*
X98816666Y-87333333D02*
X98816666Y-87000000D01*
X98116666Y-87000000D01*
X98750000Y-87966666D02*
X98783333Y-87933333D01*
X98816666Y-87833333D01*
X98816666Y-87766666D01*
X98783333Y-87666666D01*
X98716666Y-87600000D01*
X98650000Y-87566666D01*
X98516666Y-87533333D01*
X98416666Y-87533333D01*
X98283333Y-87566666D01*
X98216666Y-87600000D01*
X98150000Y-87666666D01*
X98116666Y-87766666D01*
X98116666Y-87833333D01*
X98150000Y-87933333D01*
X98183333Y-87966666D01*
X98116666Y-88466666D02*
X98616666Y-88466666D01*
X98716666Y-88433333D01*
X98783333Y-88366666D01*
X98816666Y-88266666D01*
X98816666Y-88200000D01*
X98816666Y-89133333D02*
X98816666Y-88800000D01*
X98116666Y-88800000D01*
X98750000Y-89766666D02*
X98783333Y-89733333D01*
X98816666Y-89633333D01*
X98816666Y-89566666D01*
X98783333Y-89466666D01*
X98716666Y-89400000D01*
X98650000Y-89366666D01*
X98516666Y-89333333D01*
X98416666Y-89333333D01*
X98283333Y-89366666D01*
X98216666Y-89400000D01*
X98150000Y-89466666D01*
X98116666Y-89566666D01*
X98116666Y-89633333D01*
X98150000Y-89733333D01*
X98183333Y-89766666D01*
X98116666Y-90266666D02*
X98616666Y-90266666D01*
X98716666Y-90233333D01*
X98783333Y-90166666D01*
X98816666Y-90066666D01*
X98816666Y-90000000D01*
X98816666Y-90933333D02*
X98816666Y-90600000D01*
X98116666Y-90600000D01*
X98750000Y-91566666D02*
X98783333Y-91533333D01*
X98816666Y-91433333D01*
X98816666Y-91366666D01*
X98783333Y-91266666D01*
X98716666Y-91200000D01*
X98650000Y-91166666D01*
X98516666Y-91133333D01*
X98416666Y-91133333D01*
X98283333Y-91166666D01*
X98216666Y-91200000D01*
X98150000Y-91266666D01*
X98116666Y-91366666D01*
X98116666Y-91433333D01*
X98150000Y-91533333D01*
X98183333Y-91566666D01*
X98116666Y-92066666D02*
X98616666Y-92066666D01*
X98716666Y-92033333D01*
X98783333Y-91966666D01*
X98816666Y-91866666D01*
X98816666Y-91800000D01*
X98816666Y-92733333D02*
X98816666Y-92400000D01*
X98116666Y-92400000D01*
X98750000Y-93366666D02*
X98783333Y-93333333D01*
X98816666Y-93233333D01*
X98816666Y-93166666D01*
X98783333Y-93066666D01*
X98716666Y-93000000D01*
X98650000Y-92966666D01*
X98516666Y-92933333D01*
X98416666Y-92933333D01*
X98283333Y-92966666D01*
X98216666Y-93000000D01*
X98150000Y-93066666D01*
X98116666Y-93166666D01*
X98116666Y-93233333D01*
X98150000Y-93333333D01*
X98183333Y-93366666D01*
%TO.C,TP5*%
X115766666Y-96999509D02*
X115766666Y-96299509D01*
X115433333Y-96999509D02*
X115433333Y-96299509D01*
X115033333Y-96999509D01*
X115033333Y-96299509D01*
%TO.C,TP6*%
X99666666Y-84450000D02*
X99600000Y-84483333D01*
X99500000Y-84483333D01*
X99400000Y-84450000D01*
X99333333Y-84383333D01*
X99300000Y-84316666D01*
X99266666Y-84183333D01*
X99266666Y-84083333D01*
X99300000Y-83950000D01*
X99333333Y-83883333D01*
X99400000Y-83816666D01*
X99500000Y-83783333D01*
X99566666Y-83783333D01*
X99666666Y-83816666D01*
X99700000Y-83850000D01*
X99700000Y-84083333D01*
X99566666Y-84083333D01*
X100000000Y-83783333D02*
X100000000Y-84483333D01*
X100400000Y-83783333D01*
X100400000Y-84483333D01*
X100733333Y-83783333D02*
X100733333Y-84483333D01*
X100900000Y-84483333D01*
X101000000Y-84450000D01*
X101066666Y-84383333D01*
X101100000Y-84316666D01*
X101133333Y-84183333D01*
X101133333Y-84083333D01*
X101100000Y-83950000D01*
X101066666Y-83883333D01*
X101000000Y-83816666D01*
X100900000Y-83783333D01*
X100733333Y-83783333D01*
%TO.C,TP7*%
X101933333Y-96450000D02*
X102000000Y-96416666D01*
X102100000Y-96416666D01*
X102200000Y-96450000D01*
X102266666Y-96516666D01*
X102300000Y-96583333D01*
X102333333Y-96716666D01*
X102333333Y-96816666D01*
X102300000Y-96950000D01*
X102266666Y-97016666D01*
X102200000Y-97083333D01*
X102100000Y-97116666D01*
X102033333Y-97116666D01*
X101933333Y-97083333D01*
X101900000Y-97050000D01*
X101900000Y-96816666D01*
X102033333Y-96816666D01*
X101600000Y-97116666D02*
X101600000Y-96416666D01*
X101200000Y-97116666D01*
X101200000Y-96416666D01*
X100866666Y-97116666D02*
X100866666Y-96416666D01*
X100700000Y-96416666D01*
X100600000Y-96450000D01*
X100533333Y-96516666D01*
X100500000Y-96583333D01*
X100466666Y-96716666D01*
X100466666Y-96816666D01*
X100500000Y-96950000D01*
X100533333Y-97016666D01*
X100600000Y-97083333D01*
X100700000Y-97116666D01*
X100866666Y-97116666D01*
%TO.C,TP8*%
X108200000Y-84583333D02*
X108333333Y-84583333D01*
X108400000Y-84550000D01*
X108466666Y-84483333D01*
X108500000Y-84350000D01*
X108500000Y-84116666D01*
X108466666Y-83983333D01*
X108400000Y-83916666D01*
X108333333Y-83883333D01*
X108200000Y-83883333D01*
X108133333Y-83916666D01*
X108066666Y-83983333D01*
X108033333Y-84116666D01*
X108033333Y-84350000D01*
X108066666Y-84483333D01*
X108133333Y-84550000D01*
X108200000Y-84583333D01*
X108800000Y-84583333D02*
X108800000Y-84016666D01*
X108833333Y-83950000D01*
X108866666Y-83916666D01*
X108933333Y-83883333D01*
X109066666Y-83883333D01*
X109133333Y-83916666D01*
X109166666Y-83950000D01*
X109200000Y-84016666D01*
X109200000Y-84583333D01*
X109433333Y-84583333D02*
X109833333Y-84583333D01*
X109633333Y-83883333D02*
X109633333Y-84583333D01*
%TO.C,J2*%
X106933333Y-84552380D02*
X106933333Y-85266666D01*
X106980952Y-85409523D01*
X107076190Y-85504761D01*
X107219047Y-85552380D01*
X107314285Y-85552380D01*
X106504761Y-84647619D02*
X106457142Y-84600000D01*
X106361904Y-84552380D01*
X106123809Y-84552380D01*
X106028571Y-84600000D01*
X105980952Y-84647619D01*
X105933333Y-84742857D01*
X105933333Y-84838095D01*
X105980952Y-84980952D01*
X106552380Y-85552380D01*
X105933333Y-85552380D01*
%TO.C,J1*%
X106833333Y-95452380D02*
X106833333Y-96166666D01*
X106880952Y-96309523D01*
X106976190Y-96404761D01*
X107119047Y-96452380D01*
X107214285Y-96452380D01*
X105833333Y-96452380D02*
X106404761Y-96452380D01*
X106119047Y-96452380D02*
X106119047Y-95452380D01*
X106214285Y-95595238D01*
X106309523Y-95690476D01*
X106404761Y-95738095D01*
D11*
%TO.C,E*%
X108085714Y-89507142D02*
X108085714Y-90040476D01*
X108923809Y-90269047D02*
X108923809Y-89507142D01*
X107323809Y-89507142D01*
X107323809Y-90269047D01*
D12*
X107057142Y-90607142D02*
X107000000Y-90664285D01*
X106942857Y-90778571D01*
X106942857Y-91064285D01*
X107000000Y-91178571D01*
X107057142Y-91235714D01*
X107171428Y-91292857D01*
X107285714Y-91292857D01*
X107457142Y-91235714D01*
X108142857Y-90550000D01*
X108142857Y-91292857D01*
D13*
%TO.C,J2*%
X106200000Y-84160000D02*
X107260000Y-84160000D01*
X107260000Y-84160000D02*
X107260000Y-83100000D01*
X103140000Y-84160000D02*
X103140000Y-82040000D01*
X105200000Y-84160000D02*
X105200000Y-82040000D01*
X105200000Y-82040000D02*
X103140000Y-82040000D01*
X105200000Y-84160000D02*
X103140000Y-84160000D01*
%TO.C,J1*%
X107260000Y-98860000D02*
X107260000Y-97800000D01*
X103140000Y-98860000D02*
X103140000Y-96740000D01*
X105200000Y-98860000D02*
X103140000Y-98860000D01*
X106200000Y-98860000D02*
X107260000Y-98860000D01*
X105200000Y-98860000D02*
X105200000Y-96740000D01*
X105200000Y-96740000D02*
X103140000Y-96740000D01*
D14*
%TO.C,REF\u002A\u002A*%
X115649755Y-90979926D02*
X115674084Y-91045858D01*
X115674084Y-91045858D02*
X115717117Y-91099273D01*
X115717117Y-91099273D02*
X115747409Y-91120164D01*
X115747409Y-91120164D02*
X115802994Y-91142939D01*
X115802994Y-91142939D02*
X115843186Y-91142466D01*
X115843186Y-91142466D02*
X115870217Y-91118562D01*
X115870217Y-91118562D02*
X115874813Y-91109717D01*
X115874813Y-91109717D02*
X115889144Y-91071530D01*
X115889144Y-91071530D02*
X115885472Y-91052028D01*
X115885472Y-91052028D02*
X115861407Y-91045422D01*
X115861407Y-91045422D02*
X115848114Y-91045086D01*
X115848114Y-91045086D02*
X115799210Y-91032992D01*
X115799210Y-91032992D02*
X115764999Y-91001471D01*
X115764999Y-91001471D02*
X115748476Y-90957659D01*
X115748476Y-90957659D02*
X115752634Y-90908695D01*
X115752634Y-90908695D02*
X115774227Y-90868894D01*
X115774227Y-90868894D02*
X115786544Y-90855450D01*
X115786544Y-90855450D02*
X115801487Y-90845921D01*
X115801487Y-90845921D02*
X115824075Y-90839485D01*
X115824075Y-90839485D02*
X115859328Y-90835317D01*
X115859328Y-90835317D02*
X115912266Y-90832597D01*
X115912266Y-90832597D02*
X115987907Y-90830502D01*
X115987907Y-90830502D02*
X116011857Y-90829960D01*
X116011857Y-90829960D02*
X116093790Y-90827981D01*
X116093790Y-90827981D02*
X116151455Y-90825731D01*
X116151455Y-90825731D02*
X116189608Y-90822357D01*
X116189608Y-90822357D02*
X116213004Y-90817006D01*
X116213004Y-90817006D02*
X116226398Y-90808824D01*
X116226398Y-90808824D02*
X116234545Y-90796959D01*
X116234545Y-90796959D02*
X116238144Y-90789362D01*
X116238144Y-90789362D02*
X116250452Y-90757102D01*
X116250452Y-90757102D02*
X116254514Y-90738111D01*
X116254514Y-90738111D02*
X116240948Y-90731836D01*
X116240948Y-90731836D02*
X116199934Y-90728006D01*
X116199934Y-90728006D02*
X116130999Y-90726600D01*
X116130999Y-90726600D02*
X116033669Y-90727598D01*
X116033669Y-90727598D02*
X116018657Y-90727908D01*
X116018657Y-90727908D02*
X115929859Y-90730101D01*
X115929859Y-90730101D02*
X115865019Y-90732693D01*
X115865019Y-90732693D02*
X115819067Y-90736382D01*
X115819067Y-90736382D02*
X115786935Y-90741864D01*
X115786935Y-90741864D02*
X115763553Y-90749835D01*
X115763553Y-90749835D02*
X115743852Y-90760993D01*
X115743852Y-90760993D02*
X115735410Y-90766830D01*
X115735410Y-90766830D02*
X115698057Y-90800296D01*
X115698057Y-90800296D02*
X115669003Y-90837727D01*
X115669003Y-90837727D02*
X115666467Y-90842309D01*
X115666467Y-90842309D02*
X115646443Y-90909426D01*
X115646443Y-90909426D02*
X115649755Y-90979926D01*
X115649755Y-90979926D02*
X115649755Y-90979926D01*
G36*
X116199934Y-90728006D02*
G01*
X116240948Y-90731836D01*
X116254514Y-90738111D01*
X116250452Y-90757102D01*
X116238144Y-90789362D01*
X116234545Y-90796959D01*
X116226398Y-90808824D01*
X116213004Y-90817006D01*
X116189608Y-90822357D01*
X116151455Y-90825731D01*
X116093790Y-90827981D01*
X116011857Y-90829960D01*
X115987907Y-90830502D01*
X115912266Y-90832597D01*
X115859328Y-90835317D01*
X115824075Y-90839485D01*
X115801487Y-90845921D01*
X115786544Y-90855450D01*
X115774227Y-90868894D01*
X115752634Y-90908695D01*
X115748476Y-90957659D01*
X115764999Y-91001471D01*
X115799210Y-91032992D01*
X115848114Y-91045086D01*
X115861407Y-91045422D01*
X115885472Y-91052028D01*
X115889144Y-91071530D01*
X115874813Y-91109717D01*
X115870217Y-91118562D01*
X115843186Y-91142466D01*
X115802994Y-91142939D01*
X115747409Y-91120164D01*
X115717117Y-91099273D01*
X115674084Y-91045858D01*
X115649755Y-90979926D01*
X115646443Y-90909426D01*
X115666467Y-90842309D01*
X115669003Y-90837727D01*
X115698057Y-90800296D01*
X115735410Y-90766830D01*
X115743852Y-90760993D01*
X115763553Y-90749835D01*
X115786935Y-90741864D01*
X115819067Y-90736382D01*
X115865019Y-90732693D01*
X115929859Y-90730101D01*
X116018657Y-90727908D01*
X116033669Y-90727598D01*
X116130999Y-90726600D01*
X116199934Y-90728006D01*
G37*
X116199934Y-90728006D02*
X116240948Y-90731836D01*
X116254514Y-90738111D01*
X116250452Y-90757102D01*
X116238144Y-90789362D01*
X116234545Y-90796959D01*
X116226398Y-90808824D01*
X116213004Y-90817006D01*
X116189608Y-90822357D01*
X116151455Y-90825731D01*
X116093790Y-90827981D01*
X116011857Y-90829960D01*
X115987907Y-90830502D01*
X115912266Y-90832597D01*
X115859328Y-90835317D01*
X115824075Y-90839485D01*
X115801487Y-90845921D01*
X115786544Y-90855450D01*
X115774227Y-90868894D01*
X115752634Y-90908695D01*
X115748476Y-90957659D01*
X115764999Y-91001471D01*
X115799210Y-91032992D01*
X115848114Y-91045086D01*
X115861407Y-91045422D01*
X115885472Y-91052028D01*
X115889144Y-91071530D01*
X115874813Y-91109717D01*
X115870217Y-91118562D01*
X115843186Y-91142466D01*
X115802994Y-91142939D01*
X115747409Y-91120164D01*
X115717117Y-91099273D01*
X115674084Y-91045858D01*
X115649755Y-90979926D01*
X115646443Y-90909426D01*
X115666467Y-90842309D01*
X115669003Y-90837727D01*
X115698057Y-90800296D01*
X115735410Y-90766830D01*
X115743852Y-90760993D01*
X115763553Y-90749835D01*
X115786935Y-90741864D01*
X115819067Y-90736382D01*
X115865019Y-90732693D01*
X115929859Y-90730101D01*
X116018657Y-90727908D01*
X116033669Y-90727598D01*
X116130999Y-90726600D01*
X116199934Y-90728006D01*
X115658752Y-93102600D02*
X115666334Y-93119948D01*
X115666334Y-93119948D02*
X115699128Y-93161356D01*
X115699128Y-93161356D02*
X115746547Y-93196765D01*
X115746547Y-93196765D02*
X115797151Y-93218664D01*
X115797151Y-93218664D02*
X115822098Y-93222229D01*
X115822098Y-93222229D02*
X115856927Y-93210279D01*
X115856927Y-93210279D02*
X115875357Y-93184067D01*
X115875357Y-93184067D02*
X115886516Y-93155964D01*
X115886516Y-93155964D02*
X115888572Y-93143095D01*
X115888572Y-93143095D02*
X115873649Y-93136829D01*
X115873649Y-93136829D02*
X115841175Y-93124456D01*
X115841175Y-93124456D02*
X115826502Y-93119028D01*
X115826502Y-93119028D02*
X115775744Y-93088590D01*
X115775744Y-93088590D02*
X115750427Y-93044520D01*
X115750427Y-93044520D02*
X115751206Y-92988010D01*
X115751206Y-92988010D02*
X115752203Y-92983825D01*
X115752203Y-92983825D02*
X115766507Y-92953655D01*
X115766507Y-92953655D02*
X115794393Y-92931476D01*
X115794393Y-92931476D02*
X115839287Y-92916327D01*
X115839287Y-92916327D02*
X115904615Y-92907250D01*
X115904615Y-92907250D02*
X115993804Y-92903286D01*
X115993804Y-92903286D02*
X116041261Y-92902914D01*
X116041261Y-92902914D02*
X116116071Y-92902730D01*
X116116071Y-92902730D02*
X116167069Y-92901522D01*
X116167069Y-92901522D02*
X116199471Y-92898309D01*
X116199471Y-92898309D02*
X116218495Y-92892109D01*
X116218495Y-92892109D02*
X116229356Y-92881940D01*
X116229356Y-92881940D02*
X116237272Y-92866819D01*
X116237272Y-92866819D02*
X116237670Y-92865946D01*
X116237670Y-92865946D02*
X116249981Y-92836828D01*
X116249981Y-92836828D02*
X116254514Y-92822403D01*
X116254514Y-92822403D02*
X116240809Y-92820186D01*
X116240809Y-92820186D02*
X116202925Y-92818289D01*
X116202925Y-92818289D02*
X116145715Y-92816847D01*
X116145715Y-92816847D02*
X116074027Y-92815998D01*
X116074027Y-92815998D02*
X116021565Y-92815829D01*
X116021565Y-92815829D02*
X115920047Y-92816692D01*
X115920047Y-92816692D02*
X115843032Y-92820070D01*
X115843032Y-92820070D02*
X115786023Y-92827142D01*
X115786023Y-92827142D02*
X115744526Y-92839088D01*
X115744526Y-92839088D02*
X115714043Y-92857090D01*
X115714043Y-92857090D02*
X115690080Y-92882327D01*
X115690080Y-92882327D02*
X115673355Y-92907247D01*
X115673355Y-92907247D02*
X115651097Y-92967171D01*
X115651097Y-92967171D02*
X115646076Y-93036911D01*
X115646076Y-93036911D02*
X115658752Y-93102600D01*
X115658752Y-93102600D02*
X115658752Y-93102600D01*
G36*
X116074027Y-92815998D02*
G01*
X116145715Y-92816847D01*
X116202925Y-92818289D01*
X116240809Y-92820186D01*
X116254514Y-92822403D01*
X116249981Y-92836828D01*
X116237670Y-92865946D01*
X116237272Y-92866819D01*
X116229356Y-92881940D01*
X116218495Y-92892109D01*
X116199471Y-92898309D01*
X116167069Y-92901522D01*
X116116071Y-92902730D01*
X116041261Y-92902914D01*
X115993804Y-92903286D01*
X115904615Y-92907250D01*
X115839287Y-92916327D01*
X115794393Y-92931476D01*
X115766507Y-92953655D01*
X115752203Y-92983825D01*
X115751206Y-92988010D01*
X115750427Y-93044520D01*
X115775744Y-93088590D01*
X115826502Y-93119028D01*
X115841175Y-93124456D01*
X115873649Y-93136829D01*
X115888572Y-93143095D01*
X115886516Y-93155964D01*
X115875357Y-93184067D01*
X115856927Y-93210279D01*
X115822098Y-93222229D01*
X115797151Y-93218664D01*
X115746547Y-93196765D01*
X115699128Y-93161356D01*
X115666334Y-93119948D01*
X115658752Y-93102600D01*
X115646076Y-93036911D01*
X115651097Y-92967171D01*
X115673355Y-92907247D01*
X115690080Y-92882327D01*
X115714043Y-92857090D01*
X115744526Y-92839088D01*
X115786023Y-92827142D01*
X115843032Y-92820070D01*
X115920047Y-92816692D01*
X116021565Y-92815829D01*
X116074027Y-92815998D01*
G37*
X116074027Y-92815998D02*
X116145715Y-92816847D01*
X116202925Y-92818289D01*
X116240809Y-92820186D01*
X116254514Y-92822403D01*
X116249981Y-92836828D01*
X116237670Y-92865946D01*
X116237272Y-92866819D01*
X116229356Y-92881940D01*
X116218495Y-92892109D01*
X116199471Y-92898309D01*
X116167069Y-92901522D01*
X116116071Y-92902730D01*
X116041261Y-92902914D01*
X115993804Y-92903286D01*
X115904615Y-92907250D01*
X115839287Y-92916327D01*
X115794393Y-92931476D01*
X115766507Y-92953655D01*
X115752203Y-92983825D01*
X115751206Y-92988010D01*
X115750427Y-93044520D01*
X115775744Y-93088590D01*
X115826502Y-93119028D01*
X115841175Y-93124456D01*
X115873649Y-93136829D01*
X115888572Y-93143095D01*
X115886516Y-93155964D01*
X115875357Y-93184067D01*
X115856927Y-93210279D01*
X115822098Y-93222229D01*
X115797151Y-93218664D01*
X115746547Y-93196765D01*
X115699128Y-93161356D01*
X115666334Y-93119948D01*
X115658752Y-93102600D01*
X115646076Y-93036911D01*
X115651097Y-92967171D01*
X115673355Y-92907247D01*
X115690080Y-92882327D01*
X115714043Y-92857090D01*
X115744526Y-92839088D01*
X115786023Y-92827142D01*
X115843032Y-92820070D01*
X115920047Y-92816692D01*
X116021565Y-92815829D01*
X116074027Y-92815998D01*
X115658663Y-92229833D02*
X115696850Y-92232048D01*
X115696850Y-92232048D02*
X115754886Y-92233784D01*
X115754886Y-92233784D02*
X115828180Y-92234899D01*
X115828180Y-92234899D02*
X115905055Y-92235257D01*
X115905055Y-92235257D02*
X116165196Y-92235257D01*
X116165196Y-92235257D02*
X116211127Y-92189326D01*
X116211127Y-92189326D02*
X116239429Y-92157675D01*
X116239429Y-92157675D02*
X116250893Y-92129890D01*
X116250893Y-92129890D02*
X116250168Y-92091915D01*
X116250168Y-92091915D02*
X116248321Y-92076840D01*
X116248321Y-92076840D02*
X116242948Y-92029726D01*
X116242948Y-92029726D02*
X116239869Y-91990756D01*
X116239869Y-91990756D02*
X116239585Y-91981257D01*
X116239585Y-91981257D02*
X116241445Y-91949233D01*
X116241445Y-91949233D02*
X116246114Y-91903432D01*
X116246114Y-91903432D02*
X116248321Y-91885674D01*
X116248321Y-91885674D02*
X116251735Y-91842057D01*
X116251735Y-91842057D02*
X116244320Y-91812745D01*
X116244320Y-91812745D02*
X116221427Y-91783680D01*
X116221427Y-91783680D02*
X116211127Y-91773188D01*
X116211127Y-91773188D02*
X116165196Y-91727257D01*
X116165196Y-91727257D02*
X115678602Y-91727257D01*
X115678602Y-91727257D02*
X115661758Y-91764226D01*
X115661758Y-91764226D02*
X115649282Y-91796059D01*
X115649282Y-91796059D02*
X115644914Y-91814683D01*
X115644914Y-91814683D02*
X115658718Y-91819458D01*
X115658718Y-91819458D02*
X115697286Y-91823921D01*
X115697286Y-91823921D02*
X115756356Y-91827775D01*
X115756356Y-91827775D02*
X115831663Y-91830722D01*
X115831663Y-91830722D02*
X115895286Y-91832143D01*
X115895286Y-91832143D02*
X116145657Y-91836114D01*
X116145657Y-91836114D02*
X116150556Y-91870759D01*
X116150556Y-91870759D02*
X116147131Y-91902268D01*
X116147131Y-91902268D02*
X116136041Y-91917708D01*
X116136041Y-91917708D02*
X116115308Y-91922023D01*
X116115308Y-91922023D02*
X116071145Y-91925708D01*
X116071145Y-91925708D02*
X116009146Y-91928469D01*
X116009146Y-91928469D02*
X115934909Y-91930012D01*
X115934909Y-91930012D02*
X115896706Y-91930235D01*
X115896706Y-91930235D02*
X115676783Y-91930457D01*
X115676783Y-91930457D02*
X115660849Y-91976166D01*
X115660849Y-91976166D02*
X115650015Y-92008518D01*
X115650015Y-92008518D02*
X115644962Y-92026115D01*
X115644962Y-92026115D02*
X115644914Y-92026623D01*
X115644914Y-92026623D02*
X115658648Y-92028388D01*
X115658648Y-92028388D02*
X115696730Y-92030329D01*
X115696730Y-92030329D02*
X115754482Y-92032282D01*
X115754482Y-92032282D02*
X115827227Y-92034084D01*
X115827227Y-92034084D02*
X115895286Y-92035343D01*
X115895286Y-92035343D02*
X116145657Y-92039314D01*
X116145657Y-92039314D02*
X116145657Y-92126400D01*
X116145657Y-92126400D02*
X115917240Y-92130396D01*
X115917240Y-92130396D02*
X115688822Y-92134392D01*
X115688822Y-92134392D02*
X115666868Y-92176847D01*
X115666868Y-92176847D02*
X115651793Y-92208192D01*
X115651793Y-92208192D02*
X115644951Y-92226744D01*
X115644951Y-92226744D02*
X115644914Y-92227279D01*
X115644914Y-92227279D02*
X115658663Y-92229833D01*
X115658663Y-92229833D02*
X115658663Y-92229833D01*
G36*
X116211127Y-91773188D02*
G01*
X116221427Y-91783680D01*
X116244320Y-91812745D01*
X116251735Y-91842057D01*
X116248321Y-91885674D01*
X116246114Y-91903432D01*
X116241445Y-91949233D01*
X116239585Y-91981257D01*
X116239869Y-91990756D01*
X116242948Y-92029726D01*
X116248321Y-92076840D01*
X116250168Y-92091915D01*
X116250893Y-92129890D01*
X116239429Y-92157675D01*
X116211127Y-92189326D01*
X116165196Y-92235257D01*
X115905055Y-92235257D01*
X115828180Y-92234899D01*
X115754886Y-92233784D01*
X115696850Y-92232048D01*
X115658663Y-92229833D01*
X115644914Y-92227279D01*
X115644951Y-92226744D01*
X115651793Y-92208192D01*
X115666868Y-92176847D01*
X115688822Y-92134392D01*
X115917240Y-92130396D01*
X116145657Y-92126400D01*
X116145657Y-92039314D01*
X115895286Y-92035343D01*
X115827227Y-92034084D01*
X115754482Y-92032282D01*
X115696730Y-92030329D01*
X115658648Y-92028388D01*
X115644914Y-92026623D01*
X115644962Y-92026115D01*
X115650015Y-92008518D01*
X115660849Y-91976166D01*
X115676783Y-91930457D01*
X115896706Y-91930235D01*
X115934909Y-91930012D01*
X116009146Y-91928469D01*
X116071145Y-91925708D01*
X116115308Y-91922023D01*
X116136041Y-91917708D01*
X116147131Y-91902268D01*
X116150556Y-91870759D01*
X116145657Y-91836114D01*
X115895286Y-91832143D01*
X115831663Y-91830722D01*
X115756356Y-91827775D01*
X115697286Y-91823921D01*
X115658718Y-91819458D01*
X115644914Y-91814683D01*
X115649282Y-91796059D01*
X115661758Y-91764226D01*
X115678602Y-91727257D01*
X116165196Y-91727257D01*
X116211127Y-91773188D01*
G37*
X116211127Y-91773188D02*
X116221427Y-91783680D01*
X116244320Y-91812745D01*
X116251735Y-91842057D01*
X116248321Y-91885674D01*
X116246114Y-91903432D01*
X116241445Y-91949233D01*
X116239585Y-91981257D01*
X116239869Y-91990756D01*
X116242948Y-92029726D01*
X116248321Y-92076840D01*
X116250168Y-92091915D01*
X116250893Y-92129890D01*
X116239429Y-92157675D01*
X116211127Y-92189326D01*
X116165196Y-92235257D01*
X115905055Y-92235257D01*
X115828180Y-92234899D01*
X115754886Y-92233784D01*
X115696850Y-92232048D01*
X115658663Y-92229833D01*
X115644914Y-92227279D01*
X115644951Y-92226744D01*
X115651793Y-92208192D01*
X115666868Y-92176847D01*
X115688822Y-92134392D01*
X115917240Y-92130396D01*
X116145657Y-92126400D01*
X116145657Y-92039314D01*
X115895286Y-92035343D01*
X115827227Y-92034084D01*
X115754482Y-92032282D01*
X115696730Y-92030329D01*
X115658648Y-92028388D01*
X115644914Y-92026623D01*
X115644962Y-92026115D01*
X115650015Y-92008518D01*
X115660849Y-91976166D01*
X115676783Y-91930457D01*
X115896706Y-91930235D01*
X115934909Y-91930012D01*
X116009146Y-91928469D01*
X116071145Y-91925708D01*
X116115308Y-91922023D01*
X116136041Y-91917708D01*
X116147131Y-91902268D01*
X116150556Y-91870759D01*
X116145657Y-91836114D01*
X115895286Y-91832143D01*
X115831663Y-91830722D01*
X115756356Y-91827775D01*
X115697286Y-91823921D01*
X115658718Y-91819458D01*
X115644914Y-91814683D01*
X115649282Y-91796059D01*
X115661758Y-91764226D01*
X115678602Y-91727257D01*
X116165196Y-91727257D01*
X116211127Y-91773188D01*
X115619918Y-88049744D02*
X115647568Y-88105201D01*
X115647568Y-88105201D02*
X115698480Y-88154148D01*
X115698480Y-88154148D02*
X115717338Y-88167629D01*
X115717338Y-88167629D02*
X115742015Y-88182314D01*
X115742015Y-88182314D02*
X115768816Y-88191842D01*
X115768816Y-88191842D02*
X115804587Y-88197293D01*
X115804587Y-88197293D02*
X115856169Y-88199747D01*
X115856169Y-88199747D02*
X115924267Y-88200286D01*
X115924267Y-88200286D02*
X116017588Y-88197852D01*
X116017588Y-88197852D02*
X116087657Y-88189394D01*
X116087657Y-88189394D02*
X116139931Y-88173174D01*
X116139931Y-88173174D02*
X116179869Y-88147454D01*
X116179869Y-88147454D02*
X116212929Y-88110497D01*
X116212929Y-88110497D02*
X116214886Y-88107782D01*
X116214886Y-88107782D02*
X116234908Y-88071360D01*
X116234908Y-88071360D02*
X116244815Y-88027502D01*
X116244815Y-88027502D02*
X116247257Y-87971724D01*
X116247257Y-87971724D02*
X116247257Y-87881048D01*
X116247257Y-87881048D02*
X116335283Y-87881010D01*
X116335283Y-87881010D02*
X116384308Y-87880166D01*
X116384308Y-87880166D02*
X116413065Y-87875024D01*
X116413065Y-87875024D02*
X116430311Y-87861587D01*
X116430311Y-87861587D02*
X116444808Y-87835858D01*
X116444808Y-87835858D02*
X116447769Y-87829679D01*
X116447769Y-87829679D02*
X116461648Y-87800764D01*
X116461648Y-87800764D02*
X116470414Y-87778376D01*
X116470414Y-87778376D02*
X116471171Y-87761729D01*
X116471171Y-87761729D02*
X116461023Y-87750036D01*
X116461023Y-87750036D02*
X116437073Y-87742510D01*
X116437073Y-87742510D02*
X116396426Y-87738366D01*
X116396426Y-87738366D02*
X116336186Y-87736815D01*
X116336186Y-87736815D02*
X116253455Y-87737071D01*
X116253455Y-87737071D02*
X116145339Y-87738349D01*
X116145339Y-87738349D02*
X116113000Y-87738748D01*
X116113000Y-87738748D02*
X116001524Y-87740185D01*
X116001524Y-87740185D02*
X115928603Y-87741472D01*
X115928603Y-87741472D02*
X115928603Y-87880971D01*
X115928603Y-87880971D02*
X115990499Y-87881755D01*
X115990499Y-87881755D02*
X116030997Y-87885240D01*
X116030997Y-87885240D02*
X116057708Y-87893124D01*
X116057708Y-87893124D02*
X116078244Y-87907105D01*
X116078244Y-87907105D02*
X116088260Y-87916597D01*
X116088260Y-87916597D02*
X116117567Y-87955404D01*
X116117567Y-87955404D02*
X116119952Y-87989763D01*
X116119952Y-87989763D02*
X116095750Y-88025216D01*
X116095750Y-88025216D02*
X116094857Y-88026114D01*
X116094857Y-88026114D02*
X116076153Y-88040539D01*
X116076153Y-88040539D02*
X116050732Y-88049313D01*
X116050732Y-88049313D02*
X116011584Y-88053739D01*
X116011584Y-88053739D02*
X115951697Y-88055118D01*
X115951697Y-88055118D02*
X115938430Y-88055143D01*
X115938430Y-88055143D02*
X115855901Y-88051812D01*
X115855901Y-88051812D02*
X115798691Y-88040969D01*
X115798691Y-88040969D02*
X115763766Y-88021340D01*
X115763766Y-88021340D02*
X115748094Y-87991650D01*
X115748094Y-87991650D02*
X115746514Y-87974491D01*
X115746514Y-87974491D02*
X115753926Y-87933766D01*
X115753926Y-87933766D02*
X115778330Y-87905832D01*
X115778330Y-87905832D02*
X115822980Y-87889017D01*
X115822980Y-87889017D02*
X115891130Y-87881650D01*
X115891130Y-87881650D02*
X115928603Y-87880971D01*
X115928603Y-87880971D02*
X115928603Y-87741472D01*
X115928603Y-87741472D02*
X115915245Y-87741708D01*
X115915245Y-87741708D02*
X115850333Y-87743677D01*
X115850333Y-87743677D02*
X115802958Y-87746450D01*
X115802958Y-87746450D02*
X115769290Y-87750388D01*
X115769290Y-87750388D02*
X115745498Y-87755849D01*
X115745498Y-87755849D02*
X115727753Y-87763192D01*
X115727753Y-87763192D02*
X115712224Y-87772777D01*
X115712224Y-87772777D02*
X115706381Y-87776887D01*
X115706381Y-87776887D02*
X115651185Y-87831405D01*
X115651185Y-87831405D02*
X115619890Y-87900336D01*
X115619890Y-87900336D02*
X115611165Y-87980072D01*
X115611165Y-87980072D02*
X115619918Y-88049744D01*
X115619918Y-88049744D02*
X115619918Y-88049744D01*
G36*
X116113000Y-87738748D02*
G01*
X116145339Y-87738349D01*
X116253455Y-87737071D01*
X116336186Y-87736815D01*
X116396426Y-87738366D01*
X116437073Y-87742510D01*
X116461023Y-87750036D01*
X116471171Y-87761729D01*
X116470414Y-87778376D01*
X116461648Y-87800764D01*
X116447769Y-87829679D01*
X116444808Y-87835858D01*
X116430311Y-87861587D01*
X116413065Y-87875024D01*
X116384308Y-87880166D01*
X116335283Y-87881010D01*
X116247257Y-87881048D01*
X116247257Y-87971724D01*
X116244815Y-88027502D01*
X116234908Y-88071360D01*
X116214886Y-88107782D01*
X116212929Y-88110497D01*
X116179869Y-88147454D01*
X116139931Y-88173174D01*
X116087657Y-88189394D01*
X116017588Y-88197852D01*
X115924267Y-88200286D01*
X115856169Y-88199747D01*
X115804587Y-88197293D01*
X115768816Y-88191842D01*
X115742015Y-88182314D01*
X115717338Y-88167629D01*
X115698480Y-88154148D01*
X115647568Y-88105201D01*
X115619918Y-88049744D01*
X115611165Y-87980072D01*
X115611776Y-87974491D01*
X115746514Y-87974491D01*
X115748094Y-87991650D01*
X115763766Y-88021340D01*
X115798691Y-88040969D01*
X115855901Y-88051812D01*
X115938430Y-88055143D01*
X115951697Y-88055118D01*
X116011584Y-88053739D01*
X116050732Y-88049313D01*
X116076153Y-88040539D01*
X116094857Y-88026114D01*
X116095750Y-88025216D01*
X116119952Y-87989763D01*
X116117567Y-87955404D01*
X116088260Y-87916597D01*
X116078244Y-87907105D01*
X116057708Y-87893124D01*
X116030997Y-87885240D01*
X115990499Y-87881755D01*
X115928603Y-87880971D01*
X115891130Y-87881650D01*
X115822980Y-87889017D01*
X115778330Y-87905832D01*
X115753926Y-87933766D01*
X115746514Y-87974491D01*
X115611776Y-87974491D01*
X115619890Y-87900336D01*
X115651185Y-87831405D01*
X115706381Y-87776887D01*
X115712224Y-87772777D01*
X115727753Y-87763192D01*
X115745498Y-87755849D01*
X115769290Y-87750388D01*
X115802958Y-87746450D01*
X115850333Y-87743677D01*
X115915245Y-87741708D01*
X115928603Y-87741472D01*
X116001524Y-87740185D01*
X116113000Y-87738748D01*
G37*
X116113000Y-87738748D02*
X116145339Y-87738349D01*
X116253455Y-87737071D01*
X116336186Y-87736815D01*
X116396426Y-87738366D01*
X116437073Y-87742510D01*
X116461023Y-87750036D01*
X116471171Y-87761729D01*
X116470414Y-87778376D01*
X116461648Y-87800764D01*
X116447769Y-87829679D01*
X116444808Y-87835858D01*
X116430311Y-87861587D01*
X116413065Y-87875024D01*
X116384308Y-87880166D01*
X116335283Y-87881010D01*
X116247257Y-87881048D01*
X116247257Y-87971724D01*
X116244815Y-88027502D01*
X116234908Y-88071360D01*
X116214886Y-88107782D01*
X116212929Y-88110497D01*
X116179869Y-88147454D01*
X116139931Y-88173174D01*
X116087657Y-88189394D01*
X116017588Y-88197852D01*
X115924267Y-88200286D01*
X115856169Y-88199747D01*
X115804587Y-88197293D01*
X115768816Y-88191842D01*
X115742015Y-88182314D01*
X115717338Y-88167629D01*
X115698480Y-88154148D01*
X115647568Y-88105201D01*
X115619918Y-88049744D01*
X115611165Y-87980072D01*
X115611776Y-87974491D01*
X115746514Y-87974491D01*
X115748094Y-87991650D01*
X115763766Y-88021340D01*
X115798691Y-88040969D01*
X115855901Y-88051812D01*
X115938430Y-88055143D01*
X115951697Y-88055118D01*
X116011584Y-88053739D01*
X116050732Y-88049313D01*
X116076153Y-88040539D01*
X116094857Y-88026114D01*
X116095750Y-88025216D01*
X116119952Y-87989763D01*
X116117567Y-87955404D01*
X116088260Y-87916597D01*
X116078244Y-87907105D01*
X116057708Y-87893124D01*
X116030997Y-87885240D01*
X115990499Y-87881755D01*
X115928603Y-87880971D01*
X115891130Y-87881650D01*
X115822980Y-87889017D01*
X115778330Y-87905832D01*
X115753926Y-87933766D01*
X115746514Y-87974491D01*
X115611776Y-87974491D01*
X115619890Y-87900336D01*
X115651185Y-87831405D01*
X115706381Y-87776887D01*
X115712224Y-87772777D01*
X115727753Y-87763192D01*
X115745498Y-87755849D01*
X115769290Y-87750388D01*
X115802958Y-87746450D01*
X115850333Y-87743677D01*
X115915245Y-87741708D01*
X115928603Y-87741472D01*
X116001524Y-87740185D01*
X116113000Y-87738748D01*
X115551289Y-89825886D02*
X115610613Y-89830139D01*
X115610613Y-89830139D02*
X115645572Y-89835025D01*
X115645572Y-89835025D02*
X115660820Y-89841795D01*
X115660820Y-89841795D02*
X115661015Y-89851702D01*
X115661015Y-89851702D02*
X115659195Y-89854914D01*
X115659195Y-89854914D02*
X115646015Y-89897644D01*
X115646015Y-89897644D02*
X115646785Y-89953227D01*
X115646785Y-89953227D02*
X115660333Y-90009737D01*
X115660333Y-90009737D02*
X115677861Y-90045082D01*
X115677861Y-90045082D02*
X115705861Y-90081321D01*
X115705861Y-90081321D02*
X115737549Y-90107813D01*
X115737549Y-90107813D02*
X115777813Y-90125999D01*
X115777813Y-90125999D02*
X115831543Y-90137322D01*
X115831543Y-90137322D02*
X115903626Y-90143222D01*
X115903626Y-90143222D02*
X115998951Y-90145143D01*
X115998951Y-90145143D02*
X116017237Y-90145177D01*
X116017237Y-90145177D02*
X116222646Y-90145200D01*
X116222646Y-90145200D02*
X116238580Y-90099491D01*
X116238580Y-90099491D02*
X116249420Y-90067027D01*
X116249420Y-90067027D02*
X116254468Y-90049215D01*
X116254468Y-90049215D02*
X116254514Y-90048691D01*
X116254514Y-90048691D02*
X116240828Y-90046937D01*
X116240828Y-90046937D02*
X116203076Y-90045444D01*
X116203076Y-90045444D02*
X116146224Y-90044326D01*
X116146224Y-90044326D02*
X116075234Y-90043697D01*
X116075234Y-90043697D02*
X116032073Y-90043600D01*
X116032073Y-90043600D02*
X115946973Y-90043398D01*
X115946973Y-90043398D02*
X115885981Y-90042358D01*
X115885981Y-90042358D02*
X115844177Y-90039831D01*
X115844177Y-90039831D02*
X115816642Y-90035164D01*
X115816642Y-90035164D02*
X115798456Y-90027707D01*
X115798456Y-90027707D02*
X115784698Y-90016811D01*
X115784698Y-90016811D02*
X115778073Y-90010007D01*
X115778073Y-90010007D02*
X115751375Y-89963272D01*
X115751375Y-89963272D02*
X115749375Y-89912272D01*
X115749375Y-89912272D02*
X115771955Y-89866001D01*
X115771955Y-89866001D02*
X115780107Y-89857444D01*
X115780107Y-89857444D02*
X115795436Y-89844893D01*
X115795436Y-89844893D02*
X115813618Y-89836188D01*
X115813618Y-89836188D02*
X115839909Y-89830631D01*
X115839909Y-89830631D02*
X115879562Y-89827526D01*
X115879562Y-89827526D02*
X115937832Y-89826176D01*
X115937832Y-89826176D02*
X116018173Y-89825886D01*
X116018173Y-89825886D02*
X116222646Y-89825886D01*
X116222646Y-89825886D02*
X116238580Y-89780177D01*
X116238580Y-89780177D02*
X116249420Y-89747713D01*
X116249420Y-89747713D02*
X116254468Y-89729901D01*
X116254468Y-89729901D02*
X116254514Y-89729377D01*
X116254514Y-89729377D02*
X116240623Y-89728037D01*
X116240623Y-89728037D02*
X116201439Y-89726828D01*
X116201439Y-89726828D02*
X116140700Y-89725801D01*
X116140700Y-89725801D02*
X116062141Y-89725002D01*
X116062141Y-89725002D02*
X115969498Y-89724481D01*
X115969498Y-89724481D02*
X115866509Y-89724286D01*
X115866509Y-89724286D02*
X115469342Y-89724286D01*
X115469342Y-89724286D02*
X115449444Y-89771457D01*
X115449444Y-89771457D02*
X115429547Y-89818629D01*
X115429547Y-89818629D02*
X115551289Y-89825886D01*
X115551289Y-89825886D02*
X115551289Y-89825886D01*
G36*
X115969498Y-89724481D02*
G01*
X116062141Y-89725002D01*
X116140700Y-89725801D01*
X116201439Y-89726828D01*
X116240623Y-89728037D01*
X116254514Y-89729377D01*
X116254468Y-89729901D01*
X116249420Y-89747713D01*
X116238580Y-89780177D01*
X116222646Y-89825886D01*
X116018173Y-89825886D01*
X115937832Y-89826176D01*
X115879562Y-89827526D01*
X115839909Y-89830631D01*
X115813618Y-89836188D01*
X115795436Y-89844893D01*
X115780107Y-89857444D01*
X115771955Y-89866001D01*
X115749375Y-89912272D01*
X115751375Y-89963272D01*
X115778073Y-90010007D01*
X115784698Y-90016811D01*
X115798456Y-90027707D01*
X115816642Y-90035164D01*
X115844177Y-90039831D01*
X115885981Y-90042358D01*
X115946973Y-90043398D01*
X116032073Y-90043600D01*
X116075234Y-90043697D01*
X116146224Y-90044326D01*
X116203076Y-90045444D01*
X116240828Y-90046937D01*
X116254514Y-90048691D01*
X116254468Y-90049215D01*
X116249420Y-90067027D01*
X116238580Y-90099491D01*
X116222646Y-90145200D01*
X116017237Y-90145177D01*
X115998951Y-90145143D01*
X115903626Y-90143222D01*
X115831543Y-90137322D01*
X115777813Y-90125999D01*
X115737549Y-90107813D01*
X115705861Y-90081321D01*
X115677861Y-90045082D01*
X115660333Y-90009737D01*
X115646785Y-89953227D01*
X115646015Y-89897644D01*
X115659195Y-89854914D01*
X115661015Y-89851702D01*
X115660820Y-89841795D01*
X115645572Y-89835025D01*
X115610613Y-89830139D01*
X115551289Y-89825886D01*
X115429547Y-89818629D01*
X115449444Y-89771457D01*
X115469342Y-89724286D01*
X115866509Y-89724286D01*
X115969498Y-89724481D01*
G37*
X115969498Y-89724481D02*
X116062141Y-89725002D01*
X116140700Y-89725801D01*
X116201439Y-89726828D01*
X116240623Y-89728037D01*
X116254514Y-89729377D01*
X116254468Y-89729901D01*
X116249420Y-89747713D01*
X116238580Y-89780177D01*
X116222646Y-89825886D01*
X116018173Y-89825886D01*
X115937832Y-89826176D01*
X115879562Y-89827526D01*
X115839909Y-89830631D01*
X115813618Y-89836188D01*
X115795436Y-89844893D01*
X115780107Y-89857444D01*
X115771955Y-89866001D01*
X115749375Y-89912272D01*
X115751375Y-89963272D01*
X115778073Y-90010007D01*
X115784698Y-90016811D01*
X115798456Y-90027707D01*
X115816642Y-90035164D01*
X115844177Y-90039831D01*
X115885981Y-90042358D01*
X115946973Y-90043398D01*
X116032073Y-90043600D01*
X116075234Y-90043697D01*
X116146224Y-90044326D01*
X116203076Y-90045444D01*
X116240828Y-90046937D01*
X116254514Y-90048691D01*
X116254468Y-90049215D01*
X116249420Y-90067027D01*
X116238580Y-90099491D01*
X116222646Y-90145200D01*
X116017237Y-90145177D01*
X115998951Y-90145143D01*
X115903626Y-90143222D01*
X115831543Y-90137322D01*
X115777813Y-90125999D01*
X115737549Y-90107813D01*
X115705861Y-90081321D01*
X115677861Y-90045082D01*
X115660333Y-90009737D01*
X115646785Y-89953227D01*
X115646015Y-89897644D01*
X115659195Y-89854914D01*
X115661015Y-89851702D01*
X115660820Y-89841795D01*
X115645572Y-89835025D01*
X115610613Y-89830139D01*
X115551289Y-89825886D01*
X115429547Y-89818629D01*
X115449444Y-89771457D01*
X115469342Y-89724286D01*
X115866509Y-89724286D01*
X115969498Y-89724481D01*
X115627780Y-89166093D02*
X115654723Y-89212672D01*
X115654723Y-89212672D02*
X115681466Y-89245057D01*
X115681466Y-89245057D02*
X115709484Y-89268742D01*
X115709484Y-89268742D02*
X115743748Y-89285059D01*
X115743748Y-89285059D02*
X115789227Y-89295339D01*
X115789227Y-89295339D02*
X115850892Y-89300914D01*
X115850892Y-89300914D02*
X115933711Y-89303116D01*
X115933711Y-89303116D02*
X115993246Y-89303371D01*
X115993246Y-89303371D02*
X116212391Y-89303371D01*
X116212391Y-89303371D02*
X116240044Y-89241686D01*
X116240044Y-89241686D02*
X116267697Y-89180000D01*
X116267697Y-89180000D02*
X116027670Y-89172743D01*
X116027670Y-89172743D02*
X115938028Y-89169744D01*
X115938028Y-89169744D02*
X115872962Y-89166598D01*
X115872962Y-89166598D02*
X115828026Y-89162701D01*
X115828026Y-89162701D02*
X115798770Y-89157447D01*
X115798770Y-89157447D02*
X115780748Y-89150231D01*
X115780748Y-89150231D02*
X115769511Y-89140450D01*
X115769511Y-89140450D02*
X115767079Y-89137312D01*
X115767079Y-89137312D02*
X115748083Y-89089761D01*
X115748083Y-89089761D02*
X115755600Y-89041697D01*
X115755600Y-89041697D02*
X115775543Y-89013086D01*
X115775543Y-89013086D02*
X115789675Y-89001447D01*
X115789675Y-89001447D02*
X115808220Y-88993391D01*
X115808220Y-88993391D02*
X115836334Y-88988271D01*
X115836334Y-88988271D02*
X115879173Y-88985441D01*
X115879173Y-88985441D02*
X115941895Y-88984256D01*
X115941895Y-88984256D02*
X116007261Y-88984057D01*
X116007261Y-88984057D02*
X116089268Y-88984018D01*
X116089268Y-88984018D02*
X116147316Y-88982614D01*
X116147316Y-88982614D02*
X116186465Y-88977914D01*
X116186465Y-88977914D02*
X116211780Y-88967987D01*
X116211780Y-88967987D02*
X116228323Y-88950903D01*
X116228323Y-88950903D02*
X116241156Y-88924732D01*
X116241156Y-88924732D02*
X116254491Y-88889775D01*
X116254491Y-88889775D02*
X116269007Y-88851596D01*
X116269007Y-88851596D02*
X116011389Y-88856141D01*
X116011389Y-88856141D02*
X115918519Y-88857971D01*
X115918519Y-88857971D02*
X115849889Y-88860112D01*
X115849889Y-88860112D02*
X115800711Y-88863181D01*
X115800711Y-88863181D02*
X115766198Y-88867794D01*
X115766198Y-88867794D02*
X115741562Y-88874568D01*
X115741562Y-88874568D02*
X115722016Y-88884119D01*
X115722016Y-88884119D02*
X115704770Y-88895634D01*
X115704770Y-88895634D02*
X115649680Y-88951190D01*
X115649680Y-88951190D02*
X115617822Y-89018980D01*
X115617822Y-89018980D02*
X115610191Y-89092713D01*
X115610191Y-89092713D02*
X115627780Y-89166093D01*
X115627780Y-89166093D02*
X115627780Y-89166093D01*
G36*
X116254491Y-88889775D02*
G01*
X116241156Y-88924732D01*
X116228323Y-88950903D01*
X116211780Y-88967987D01*
X116186465Y-88977914D01*
X116147316Y-88982614D01*
X116089268Y-88984018D01*
X116007261Y-88984057D01*
X115941895Y-88984256D01*
X115879173Y-88985441D01*
X115836334Y-88988271D01*
X115808220Y-88993391D01*
X115789675Y-89001447D01*
X115775543Y-89013086D01*
X115755600Y-89041697D01*
X115748083Y-89089761D01*
X115767079Y-89137312D01*
X115769511Y-89140450D01*
X115780748Y-89150231D01*
X115798770Y-89157447D01*
X115828026Y-89162701D01*
X115872962Y-89166598D01*
X115938028Y-89169744D01*
X116027670Y-89172743D01*
X116267697Y-89180000D01*
X116240044Y-89241686D01*
X116212391Y-89303371D01*
X115993246Y-89303371D01*
X115933711Y-89303116D01*
X115850892Y-89300914D01*
X115789227Y-89295339D01*
X115743748Y-89285059D01*
X115709484Y-89268742D01*
X115681466Y-89245057D01*
X115654723Y-89212672D01*
X115627780Y-89166093D01*
X115610191Y-89092713D01*
X115617822Y-89018980D01*
X115649680Y-88951190D01*
X115704770Y-88895634D01*
X115722016Y-88884119D01*
X115741562Y-88874568D01*
X115766198Y-88867794D01*
X115800711Y-88863181D01*
X115849889Y-88860112D01*
X115918519Y-88857971D01*
X116011389Y-88856141D01*
X116269007Y-88851596D01*
X116254491Y-88889775D01*
G37*
X116254491Y-88889775D02*
X116241156Y-88924732D01*
X116228323Y-88950903D01*
X116211780Y-88967987D01*
X116186465Y-88977914D01*
X116147316Y-88982614D01*
X116089268Y-88984018D01*
X116007261Y-88984057D01*
X115941895Y-88984256D01*
X115879173Y-88985441D01*
X115836334Y-88988271D01*
X115808220Y-88993391D01*
X115789675Y-89001447D01*
X115775543Y-89013086D01*
X115755600Y-89041697D01*
X115748083Y-89089761D01*
X115767079Y-89137312D01*
X115769511Y-89140450D01*
X115780748Y-89150231D01*
X115798770Y-89157447D01*
X115828026Y-89162701D01*
X115872962Y-89166598D01*
X115938028Y-89169744D01*
X116027670Y-89172743D01*
X116267697Y-89180000D01*
X116240044Y-89241686D01*
X116212391Y-89303371D01*
X115993246Y-89303371D01*
X115933711Y-89303116D01*
X115850892Y-89300914D01*
X115789227Y-89295339D01*
X115743748Y-89285059D01*
X115709484Y-89268742D01*
X115681466Y-89245057D01*
X115654723Y-89212672D01*
X115627780Y-89166093D01*
X115610191Y-89092713D01*
X115617822Y-89018980D01*
X115649680Y-88951190D01*
X115704770Y-88895634D01*
X115722016Y-88884119D01*
X115741562Y-88874568D01*
X115766198Y-88867794D01*
X115800711Y-88863181D01*
X115849889Y-88860112D01*
X115918519Y-88857971D01*
X116011389Y-88856141D01*
X116269007Y-88851596D01*
X116254491Y-88889775D01*
X115656335Y-92594876D02*
X115675344Y-92636667D01*
X115675344Y-92636667D02*
X115698378Y-92669469D01*
X115698378Y-92669469D02*
X115724133Y-92693503D01*
X115724133Y-92693503D02*
X115757358Y-92710097D01*
X115757358Y-92710097D02*
X115802800Y-92720577D01*
X115802800Y-92720577D02*
X115865207Y-92726271D01*
X115865207Y-92726271D02*
X115949327Y-92728507D01*
X115949327Y-92728507D02*
X116004721Y-92728743D01*
X116004721Y-92728743D02*
X116220826Y-92728743D01*
X116220826Y-92728743D02*
X116237670Y-92691774D01*
X116237670Y-92691774D02*
X116249981Y-92662656D01*
X116249981Y-92662656D02*
X116254514Y-92648231D01*
X116254514Y-92648231D02*
X116241025Y-92645472D01*
X116241025Y-92645472D02*
X116204653Y-92643282D01*
X116204653Y-92643282D02*
X116151542Y-92641942D01*
X116151542Y-92641942D02*
X116109372Y-92641657D01*
X116109372Y-92641657D02*
X116048447Y-92640434D01*
X116048447Y-92640434D02*
X116000115Y-92637136D01*
X116000115Y-92637136D02*
X115970518Y-92632321D01*
X115970518Y-92632321D02*
X115964229Y-92628496D01*
X115964229Y-92628496D02*
X115970652Y-92602783D01*
X115970652Y-92602783D02*
X115987125Y-92562418D01*
X115987125Y-92562418D02*
X116009458Y-92515679D01*
X116009458Y-92515679D02*
X116033457Y-92470845D01*
X116033457Y-92470845D02*
X116054930Y-92436193D01*
X116054930Y-92436193D02*
X116069685Y-92420002D01*
X116069685Y-92420002D02*
X116069845Y-92419938D01*
X116069845Y-92419938D02*
X116097152Y-92421330D01*
X116097152Y-92421330D02*
X116123219Y-92433818D01*
X116123219Y-92433818D02*
X116144392Y-92455743D01*
X116144392Y-92455743D02*
X116151474Y-92487743D01*
X116151474Y-92487743D02*
X116150649Y-92515092D01*
X116150649Y-92515092D02*
X116150042Y-92553826D01*
X116150042Y-92553826D02*
X116159116Y-92574158D01*
X116159116Y-92574158D02*
X116183092Y-92586369D01*
X116183092Y-92586369D02*
X116187613Y-92587909D01*
X116187613Y-92587909D02*
X116221806Y-92593203D01*
X116221806Y-92593203D02*
X116242568Y-92579047D01*
X116242568Y-92579047D02*
X116252462Y-92542148D01*
X116252462Y-92542148D02*
X116254292Y-92502289D01*
X116254292Y-92502289D02*
X116240727Y-92430562D01*
X116240727Y-92430562D02*
X116221355Y-92393432D01*
X116221355Y-92393432D02*
X116175845Y-92347576D01*
X116175845Y-92347576D02*
X116119983Y-92323256D01*
X116119983Y-92323256D02*
X116060957Y-92321073D01*
X116060957Y-92321073D02*
X116005953Y-92341629D01*
X116005953Y-92341629D02*
X115971486Y-92372549D01*
X115971486Y-92372549D02*
X115952189Y-92403420D01*
X115952189Y-92403420D02*
X115927759Y-92451942D01*
X115927759Y-92451942D02*
X115902985Y-92508485D01*
X115902985Y-92508485D02*
X115899199Y-92517910D01*
X115899199Y-92517910D02*
X115871791Y-92580019D01*
X115871791Y-92580019D02*
X115847634Y-92615822D01*
X115847634Y-92615822D02*
X115823619Y-92627337D01*
X115823619Y-92627337D02*
X115796635Y-92616580D01*
X115796635Y-92616580D02*
X115775543Y-92598114D01*
X115775543Y-92598114D02*
X115749572Y-92554469D01*
X115749572Y-92554469D02*
X115747624Y-92506446D01*
X115747624Y-92506446D02*
X115767637Y-92462406D01*
X115767637Y-92462406D02*
X115807551Y-92430709D01*
X115807551Y-92430709D02*
X115817848Y-92426549D01*
X115817848Y-92426549D02*
X115855724Y-92402327D01*
X115855724Y-92402327D02*
X115883842Y-92366965D01*
X115883842Y-92366965D02*
X115906917Y-92322343D01*
X115906917Y-92322343D02*
X115841485Y-92322343D01*
X115841485Y-92322343D02*
X115801506Y-92324969D01*
X115801506Y-92324969D02*
X115769997Y-92336230D01*
X115769997Y-92336230D02*
X115736378Y-92361199D01*
X115736378Y-92361199D02*
X115710484Y-92385169D01*
X115710484Y-92385169D02*
X115673817Y-92422441D01*
X115673817Y-92422441D02*
X115654121Y-92451401D01*
X115654121Y-92451401D02*
X115646220Y-92482505D01*
X115646220Y-92482505D02*
X115644914Y-92517713D01*
X115644914Y-92517713D02*
X115656335Y-92594876D01*
X115656335Y-92594876D02*
X115656335Y-92594876D01*
G36*
X116119983Y-92323256D02*
G01*
X116175845Y-92347576D01*
X116221355Y-92393432D01*
X116240727Y-92430562D01*
X116254292Y-92502289D01*
X116252462Y-92542148D01*
X116242568Y-92579047D01*
X116221806Y-92593203D01*
X116187613Y-92587909D01*
X116183092Y-92586369D01*
X116159116Y-92574158D01*
X116150042Y-92553826D01*
X116150649Y-92515092D01*
X116151474Y-92487743D01*
X116144392Y-92455743D01*
X116123219Y-92433818D01*
X116097152Y-92421330D01*
X116069845Y-92419938D01*
X116069685Y-92420002D01*
X116054930Y-92436193D01*
X116033457Y-92470845D01*
X116009458Y-92515679D01*
X115987125Y-92562418D01*
X115970652Y-92602783D01*
X115964229Y-92628496D01*
X115970518Y-92632321D01*
X116000115Y-92637136D01*
X116048447Y-92640434D01*
X116109372Y-92641657D01*
X116151542Y-92641942D01*
X116204653Y-92643282D01*
X116241025Y-92645472D01*
X116254514Y-92648231D01*
X116249981Y-92662656D01*
X116237670Y-92691774D01*
X116220826Y-92728743D01*
X116004721Y-92728743D01*
X115949327Y-92728507D01*
X115865207Y-92726271D01*
X115802800Y-92720577D01*
X115757358Y-92710097D01*
X115724133Y-92693503D01*
X115698378Y-92669469D01*
X115675344Y-92636667D01*
X115656335Y-92594876D01*
X115644914Y-92517713D01*
X115646220Y-92482505D01*
X115654121Y-92451401D01*
X115673817Y-92422441D01*
X115710484Y-92385169D01*
X115736378Y-92361199D01*
X115769997Y-92336230D01*
X115801506Y-92324969D01*
X115841485Y-92322343D01*
X115906917Y-92322343D01*
X115883842Y-92366965D01*
X115855724Y-92402327D01*
X115817848Y-92426549D01*
X115807551Y-92430709D01*
X115767637Y-92462406D01*
X115747624Y-92506446D01*
X115749572Y-92554469D01*
X115775543Y-92598114D01*
X115796635Y-92616580D01*
X115823619Y-92627337D01*
X115847634Y-92615822D01*
X115871791Y-92580019D01*
X115899199Y-92517910D01*
X115902985Y-92508485D01*
X115927759Y-92451942D01*
X115952189Y-92403420D01*
X115971486Y-92372549D01*
X116005953Y-92341629D01*
X116060957Y-92321073D01*
X116119983Y-92323256D01*
G37*
X116119983Y-92323256D02*
X116175845Y-92347576D01*
X116221355Y-92393432D01*
X116240727Y-92430562D01*
X116254292Y-92502289D01*
X116252462Y-92542148D01*
X116242568Y-92579047D01*
X116221806Y-92593203D01*
X116187613Y-92587909D01*
X116183092Y-92586369D01*
X116159116Y-92574158D01*
X116150042Y-92553826D01*
X116150649Y-92515092D01*
X116151474Y-92487743D01*
X116144392Y-92455743D01*
X116123219Y-92433818D01*
X116097152Y-92421330D01*
X116069845Y-92419938D01*
X116069685Y-92420002D01*
X116054930Y-92436193D01*
X116033457Y-92470845D01*
X116009458Y-92515679D01*
X115987125Y-92562418D01*
X115970652Y-92602783D01*
X115964229Y-92628496D01*
X115970518Y-92632321D01*
X116000115Y-92637136D01*
X116048447Y-92640434D01*
X116109372Y-92641657D01*
X116151542Y-92641942D01*
X116204653Y-92643282D01*
X116241025Y-92645472D01*
X116254514Y-92648231D01*
X116249981Y-92662656D01*
X116237670Y-92691774D01*
X116220826Y-92728743D01*
X116004721Y-92728743D01*
X115949327Y-92728507D01*
X115865207Y-92726271D01*
X115802800Y-92720577D01*
X115757358Y-92710097D01*
X115724133Y-92693503D01*
X115698378Y-92669469D01*
X115675344Y-92636667D01*
X115656335Y-92594876D01*
X115644914Y-92517713D01*
X115646220Y-92482505D01*
X115654121Y-92451401D01*
X115673817Y-92422441D01*
X115710484Y-92385169D01*
X115736378Y-92361199D01*
X115769997Y-92336230D01*
X115801506Y-92324969D01*
X115841485Y-92322343D01*
X115906917Y-92322343D01*
X115883842Y-92366965D01*
X115855724Y-92402327D01*
X115817848Y-92426549D01*
X115807551Y-92430709D01*
X115767637Y-92462406D01*
X115747624Y-92506446D01*
X115749572Y-92554469D01*
X115775543Y-92598114D01*
X115796635Y-92616580D01*
X115823619Y-92627337D01*
X115847634Y-92615822D01*
X115871791Y-92580019D01*
X115899199Y-92517910D01*
X115902985Y-92508485D01*
X115927759Y-92451942D01*
X115952189Y-92403420D01*
X115971486Y-92372549D01*
X116005953Y-92341629D01*
X116060957Y-92321073D01*
X116119983Y-92323256D01*
X115621962Y-87491115D02*
X115657733Y-87559145D01*
X115657733Y-87559145D02*
X115715301Y-87609351D01*
X115715301Y-87609351D02*
X115752312Y-87627185D01*
X115752312Y-87627185D02*
X115807882Y-87641063D01*
X115807882Y-87641063D02*
X115878096Y-87648167D01*
X115878096Y-87648167D02*
X115954727Y-87648840D01*
X115954727Y-87648840D02*
X116029552Y-87643427D01*
X116029552Y-87643427D02*
X116094342Y-87632270D01*
X116094342Y-87632270D02*
X116140873Y-87615714D01*
X116140873Y-87615714D02*
X116148887Y-87610626D01*
X116148887Y-87610626D02*
X116208707Y-87550355D01*
X116208707Y-87550355D02*
X116244535Y-87478769D01*
X116244535Y-87478769D02*
X116255020Y-87401092D01*
X116255020Y-87401092D02*
X116238810Y-87322548D01*
X116238810Y-87322548D02*
X116229092Y-87300689D01*
X116229092Y-87300689D02*
X116199143Y-87258122D01*
X116199143Y-87258122D02*
X116159433Y-87220763D01*
X116159433Y-87220763D02*
X116154397Y-87217232D01*
X116154397Y-87217232D02*
X116130124Y-87202881D01*
X116130124Y-87202881D02*
X116104178Y-87193394D01*
X116104178Y-87193394D02*
X116070022Y-87187790D01*
X116070022Y-87187790D02*
X116021119Y-87185086D01*
X116021119Y-87185086D02*
X115950935Y-87184299D01*
X115950935Y-87184299D02*
X115935200Y-87184286D01*
X115935200Y-87184286D02*
X115930192Y-87184322D01*
X115930192Y-87184322D02*
X115930192Y-87329429D01*
X115930192Y-87329429D02*
X115996430Y-87330273D01*
X115996430Y-87330273D02*
X116040386Y-87333596D01*
X116040386Y-87333596D02*
X116068779Y-87340583D01*
X116068779Y-87340583D02*
X116088325Y-87352416D01*
X116088325Y-87352416D02*
X116094857Y-87358457D01*
X116094857Y-87358457D02*
X116119680Y-87393186D01*
X116119680Y-87393186D02*
X116118548Y-87426903D01*
X116118548Y-87426903D02*
X116097016Y-87460995D01*
X116097016Y-87460995D02*
X116074029Y-87481329D01*
X116074029Y-87481329D02*
X116040478Y-87493371D01*
X116040478Y-87493371D02*
X115987569Y-87500134D01*
X115987569Y-87500134D02*
X115981399Y-87500598D01*
X115981399Y-87500598D02*
X115885513Y-87501752D01*
X115885513Y-87501752D02*
X115814299Y-87489688D01*
X115814299Y-87489688D02*
X115768194Y-87464570D01*
X115768194Y-87464570D02*
X115747635Y-87426560D01*
X115747635Y-87426560D02*
X115746514Y-87412992D01*
X115746514Y-87412992D02*
X115752152Y-87377364D01*
X115752152Y-87377364D02*
X115771686Y-87352994D01*
X115771686Y-87352994D02*
X115809042Y-87338093D01*
X115809042Y-87338093D02*
X115868150Y-87330875D01*
X115868150Y-87330875D02*
X115930192Y-87329429D01*
X115930192Y-87329429D02*
X115930192Y-87184322D01*
X115930192Y-87184322D02*
X115860413Y-87184826D01*
X115860413Y-87184826D02*
X115808159Y-87187096D01*
X115808159Y-87187096D02*
X115771949Y-87192068D01*
X115771949Y-87192068D02*
X115745299Y-87200713D01*
X115745299Y-87200713D02*
X115721722Y-87214005D01*
X115721722Y-87214005D02*
X115717338Y-87216943D01*
X115717338Y-87216943D02*
X115658249Y-87266313D01*
X115658249Y-87266313D02*
X115623947Y-87320109D01*
X115623947Y-87320109D02*
X115610331Y-87385602D01*
X115610331Y-87385602D02*
X115609665Y-87407842D01*
X115609665Y-87407842D02*
X115621962Y-87491115D01*
X115621962Y-87491115D02*
X115621962Y-87491115D01*
G36*
X115950935Y-87184299D02*
G01*
X116021119Y-87185086D01*
X116070022Y-87187790D01*
X116104178Y-87193394D01*
X116130124Y-87202881D01*
X116154397Y-87217232D01*
X116159433Y-87220763D01*
X116199143Y-87258122D01*
X116229092Y-87300689D01*
X116238810Y-87322548D01*
X116255020Y-87401092D01*
X116244535Y-87478769D01*
X116208707Y-87550355D01*
X116148887Y-87610626D01*
X116140873Y-87615714D01*
X116094342Y-87632270D01*
X116029552Y-87643427D01*
X115954727Y-87648840D01*
X115878096Y-87648167D01*
X115807882Y-87641063D01*
X115752312Y-87627185D01*
X115715301Y-87609351D01*
X115657733Y-87559145D01*
X115621962Y-87491115D01*
X115610426Y-87412992D01*
X115746514Y-87412992D01*
X115747635Y-87426560D01*
X115768194Y-87464570D01*
X115814299Y-87489688D01*
X115885513Y-87501752D01*
X115981399Y-87500598D01*
X115987569Y-87500134D01*
X116040478Y-87493371D01*
X116074029Y-87481329D01*
X116097016Y-87460995D01*
X116118548Y-87426903D01*
X116119680Y-87393186D01*
X116094857Y-87358457D01*
X116088325Y-87352416D01*
X116068779Y-87340583D01*
X116040386Y-87333596D01*
X115996430Y-87330273D01*
X115930192Y-87329429D01*
X115868150Y-87330875D01*
X115809042Y-87338093D01*
X115771686Y-87352994D01*
X115752152Y-87377364D01*
X115746514Y-87412992D01*
X115610426Y-87412992D01*
X115609665Y-87407842D01*
X115610331Y-87385602D01*
X115623947Y-87320109D01*
X115658249Y-87266313D01*
X115717338Y-87216943D01*
X115721722Y-87214005D01*
X115745299Y-87200713D01*
X115771949Y-87192068D01*
X115808159Y-87187096D01*
X115860413Y-87184826D01*
X115930192Y-87184322D01*
X115935200Y-87184286D01*
X115950935Y-87184299D01*
G37*
X115950935Y-87184299D02*
X116021119Y-87185086D01*
X116070022Y-87187790D01*
X116104178Y-87193394D01*
X116130124Y-87202881D01*
X116154397Y-87217232D01*
X116159433Y-87220763D01*
X116199143Y-87258122D01*
X116229092Y-87300689D01*
X116238810Y-87322548D01*
X116255020Y-87401092D01*
X116244535Y-87478769D01*
X116208707Y-87550355D01*
X116148887Y-87610626D01*
X116140873Y-87615714D01*
X116094342Y-87632270D01*
X116029552Y-87643427D01*
X115954727Y-87648840D01*
X115878096Y-87648167D01*
X115807882Y-87641063D01*
X115752312Y-87627185D01*
X115715301Y-87609351D01*
X115657733Y-87559145D01*
X115621962Y-87491115D01*
X115610426Y-87412992D01*
X115746514Y-87412992D01*
X115747635Y-87426560D01*
X115768194Y-87464570D01*
X115814299Y-87489688D01*
X115885513Y-87501752D01*
X115981399Y-87500598D01*
X115987569Y-87500134D01*
X116040478Y-87493371D01*
X116074029Y-87481329D01*
X116097016Y-87460995D01*
X116118548Y-87426903D01*
X116119680Y-87393186D01*
X116094857Y-87358457D01*
X116088325Y-87352416D01*
X116068779Y-87340583D01*
X116040386Y-87333596D01*
X115996430Y-87330273D01*
X115930192Y-87329429D01*
X115868150Y-87330875D01*
X115809042Y-87338093D01*
X115771686Y-87352994D01*
X115752152Y-87377364D01*
X115746514Y-87412992D01*
X115610426Y-87412992D01*
X115609665Y-87407842D01*
X115610331Y-87385602D01*
X115623947Y-87320109D01*
X115658249Y-87266313D01*
X115717338Y-87216943D01*
X115721722Y-87214005D01*
X115745299Y-87200713D01*
X115771949Y-87192068D01*
X115808159Y-87187096D01*
X115860413Y-87184826D01*
X115930192Y-87184322D01*
X115935200Y-87184286D01*
X115950935Y-87184299D01*
X110942348Y-90553910D02*
X110942778Y-90632454D01*
X110942778Y-90632454D02*
X110943942Y-90689298D01*
X110943942Y-90689298D02*
X110946207Y-90728105D01*
X110946207Y-90728105D02*
X110949940Y-90752538D01*
X110949940Y-90752538D02*
X110955506Y-90766262D01*
X110955506Y-90766262D02*
X110963273Y-90772940D01*
X110963273Y-90772940D02*
X110973605Y-90776236D01*
X110973605Y-90776236D02*
X110974943Y-90776556D01*
X110974943Y-90776556D02*
X110999079Y-90781562D01*
X110999079Y-90781562D02*
X111046701Y-90790829D01*
X111046701Y-90790829D02*
X111112741Y-90803392D01*
X111112741Y-90803392D02*
X111192128Y-90818287D01*
X111192128Y-90818287D02*
X111279796Y-90834551D01*
X111279796Y-90834551D02*
X111282875Y-90835119D01*
X111282875Y-90835119D02*
X111368789Y-90851410D01*
X111368789Y-90851410D02*
X111444696Y-90866652D01*
X111444696Y-90866652D02*
X111506045Y-90879861D01*
X111506045Y-90879861D02*
X111548282Y-90890054D01*
X111548282Y-90890054D02*
X111566855Y-90896248D01*
X111566855Y-90896248D02*
X111567184Y-90896543D01*
X111567184Y-90896543D02*
X111576253Y-90914788D01*
X111576253Y-90914788D02*
X111591367Y-90952405D01*
X111591367Y-90952405D02*
X111609262Y-91001271D01*
X111609262Y-91001271D02*
X111609358Y-91001543D01*
X111609358Y-91001543D02*
X111632493Y-91063093D01*
X111632493Y-91063093D02*
X111661965Y-91135657D01*
X111661965Y-91135657D02*
X111691597Y-91204057D01*
X111691597Y-91204057D02*
X111693062Y-91207294D01*
X111693062Y-91207294D02*
X111743626Y-91318702D01*
X111743626Y-91318702D02*
X111575160Y-91565399D01*
X111575160Y-91565399D02*
X111523803Y-91641077D01*
X111523803Y-91641077D02*
X111477889Y-91709631D01*
X111477889Y-91709631D02*
X111440030Y-91767088D01*
X111440030Y-91767088D02*
X111412837Y-91809476D01*
X111412837Y-91809476D02*
X111398921Y-91832825D01*
X111398921Y-91832825D02*
X111397889Y-91835042D01*
X111397889Y-91835042D02*
X111402484Y-91852010D01*
X111402484Y-91852010D02*
X111424655Y-91883701D01*
X111424655Y-91883701D02*
X111465447Y-91931352D01*
X111465447Y-91931352D02*
X111525905Y-91996198D01*
X111525905Y-91996198D02*
X111590227Y-92062397D01*
X111590227Y-92062397D02*
X111653612Y-92126214D01*
X111653612Y-92126214D02*
X111711451Y-92183329D01*
X111711451Y-92183329D02*
X111760175Y-92230305D01*
X111760175Y-92230305D02*
X111796210Y-92263703D01*
X111796210Y-92263703D02*
X111815984Y-92280085D01*
X111815984Y-92280085D02*
X111817002Y-92280694D01*
X111817002Y-92280694D02*
X111830572Y-92282505D01*
X111830572Y-92282505D02*
X111852733Y-92275683D01*
X111852733Y-92275683D02*
X111886478Y-92258540D01*
X111886478Y-92258540D02*
X111934800Y-92229393D01*
X111934800Y-92229393D02*
X112000692Y-92186555D01*
X112000692Y-92186555D02*
X112085517Y-92129448D01*
X112085517Y-92129448D02*
X112160177Y-92078766D01*
X112160177Y-92078766D02*
X112227140Y-92033461D01*
X112227140Y-92033461D02*
X112282516Y-91996150D01*
X112282516Y-91996150D02*
X112322420Y-91969452D01*
X112322420Y-91969452D02*
X112342962Y-91955985D01*
X112342962Y-91955985D02*
X112344356Y-91955137D01*
X112344356Y-91955137D02*
X112364038Y-91956781D01*
X112364038Y-91956781D02*
X112402293Y-91969245D01*
X112402293Y-91969245D02*
X112451889Y-91990048D01*
X112451889Y-91990048D02*
X112467728Y-91997462D01*
X112467728Y-91997462D02*
X112538290Y-92029814D01*
X112538290Y-92029814D02*
X112618353Y-92064328D01*
X112618353Y-92064328D02*
X112687629Y-92092365D01*
X112687629Y-92092365D02*
X112739045Y-92112568D01*
X112739045Y-92112568D02*
X112778119Y-92128615D01*
X112778119Y-92128615D02*
X112798541Y-92137888D01*
X112798541Y-92137888D02*
X112800114Y-92139041D01*
X112800114Y-92139041D02*
X112802721Y-92156096D01*
X112802721Y-92156096D02*
X112809863Y-92196298D01*
X112809863Y-92196298D02*
X112820523Y-92254302D01*
X112820523Y-92254302D02*
X112833685Y-92324763D01*
X112833685Y-92324763D02*
X112848333Y-92402335D01*
X112848333Y-92402335D02*
X112863449Y-92481672D01*
X112863449Y-92481672D02*
X112878018Y-92557431D01*
X112878018Y-92557431D02*
X112891022Y-92624264D01*
X112891022Y-92624264D02*
X112901445Y-92676828D01*
X112901445Y-92676828D02*
X112908270Y-92709776D01*
X112908270Y-92709776D02*
X112910199Y-92717857D01*
X112910199Y-92717857D02*
X112914962Y-92726205D01*
X112914962Y-92726205D02*
X112925718Y-92732506D01*
X112925718Y-92732506D02*
X112946098Y-92737045D01*
X112946098Y-92737045D02*
X112979734Y-92740104D01*
X112979734Y-92740104D02*
X113030255Y-92741967D01*
X113030255Y-92741967D02*
X113101292Y-92742918D01*
X113101292Y-92742918D02*
X113196476Y-92743240D01*
X113196476Y-92743240D02*
X113235492Y-92743257D01*
X113235492Y-92743257D02*
X113552799Y-92743257D01*
X113552799Y-92743257D02*
X113567839Y-92667057D01*
X113567839Y-92667057D02*
X113575995Y-92624663D01*
X113575995Y-92624663D02*
X113587899Y-92561400D01*
X113587899Y-92561400D02*
X113602116Y-92484962D01*
X113602116Y-92484962D02*
X113617210Y-92403043D01*
X113617210Y-92403043D02*
X113621355Y-92380400D01*
X113621355Y-92380400D02*
X113636053Y-92304806D01*
X113636053Y-92304806D02*
X113650505Y-92238953D01*
X113650505Y-92238953D02*
X113663375Y-92188366D01*
X113663375Y-92188366D02*
X113673322Y-92158574D01*
X113673322Y-92158574D02*
X113676287Y-92153612D01*
X113676287Y-92153612D02*
X113697283Y-92141426D01*
X113697283Y-92141426D02*
X113737967Y-92123953D01*
X113737967Y-92123953D02*
X113790322Y-92104577D01*
X113790322Y-92104577D02*
X113801600Y-92100734D01*
X113801600Y-92100734D02*
X113871523Y-92075339D01*
X113871523Y-92075339D02*
X113950418Y-92043817D01*
X113950418Y-92043817D02*
X114021266Y-92012969D01*
X114021266Y-92012969D02*
X114021595Y-92012817D01*
X114021595Y-92012817D02*
X114132733Y-91961447D01*
X114132733Y-91961447D02*
X114381253Y-92130399D01*
X114381253Y-92130399D02*
X114629772Y-92299352D01*
X114629772Y-92299352D02*
X114847058Y-92082429D01*
X114847058Y-92082429D02*
X114911726Y-92016819D01*
X114911726Y-92016819D02*
X114968733Y-91956979D01*
X114968733Y-91956979D02*
X115015033Y-91906267D01*
X115015033Y-91906267D02*
X115047584Y-91868046D01*
X115047584Y-91868046D02*
X115063343Y-91845675D01*
X115063343Y-91845675D02*
X115064343Y-91842466D01*
X115064343Y-91842466D02*
X115056469Y-91823626D01*
X115056469Y-91823626D02*
X115034578Y-91785180D01*
X115034578Y-91785180D02*
X115001267Y-91731330D01*
X115001267Y-91731330D02*
X114959131Y-91666276D01*
X114959131Y-91666276D02*
X114911943Y-91595940D01*
X114911943Y-91595940D02*
X114863810Y-91524555D01*
X114863810Y-91524555D02*
X114821928Y-91460908D01*
X114821928Y-91460908D02*
X114788871Y-91409041D01*
X114788871Y-91409041D02*
X114767218Y-91372995D01*
X114767218Y-91372995D02*
X114759543Y-91356867D01*
X114759543Y-91356867D02*
X114766037Y-91337189D01*
X114766037Y-91337189D02*
X114783150Y-91299875D01*
X114783150Y-91299875D02*
X114807326Y-91252621D01*
X114807326Y-91252621D02*
X114810013Y-91247612D01*
X114810013Y-91247612D02*
X114841927Y-91183977D01*
X114841927Y-91183977D02*
X114857579Y-91140341D01*
X114857579Y-91140341D02*
X114857745Y-91113202D01*
X114857745Y-91113202D02*
X114843204Y-91099057D01*
X114843204Y-91099057D02*
X114843000Y-91098975D01*
X114843000Y-91098975D02*
X114825779Y-91091905D01*
X114825779Y-91091905D02*
X114784899Y-91075042D01*
X114784899Y-91075042D02*
X114723525Y-91049695D01*
X114723525Y-91049695D02*
X114644819Y-91017171D01*
X114644819Y-91017171D02*
X114551947Y-90978778D01*
X114551947Y-90978778D02*
X114448072Y-90935822D01*
X114448072Y-90935822D02*
X114347502Y-90894222D01*
X114347502Y-90894222D02*
X114236516Y-90848504D01*
X114236516Y-90848504D02*
X114133703Y-90806526D01*
X114133703Y-90806526D02*
X114042215Y-90769548D01*
X114042215Y-90769548D02*
X113965201Y-90738827D01*
X113965201Y-90738827D02*
X113905815Y-90715622D01*
X113905815Y-90715622D02*
X113867209Y-90701190D01*
X113867209Y-90701190D02*
X113852800Y-90696743D01*
X113852800Y-90696743D02*
X113836272Y-90707896D01*
X113836272Y-90707896D02*
X113809930Y-90737069D01*
X113809930Y-90737069D02*
X113780887Y-90775971D01*
X113780887Y-90775971D02*
X113689039Y-90886757D01*
X113689039Y-90886757D02*
X113583759Y-90973351D01*
X113583759Y-90973351D02*
X113467266Y-91034716D01*
X113467266Y-91034716D02*
X113341776Y-91069815D01*
X113341776Y-91069815D02*
X113209507Y-91077608D01*
X113209507Y-91077608D02*
X113148457Y-91071943D01*
X113148457Y-91071943D02*
X113021795Y-91041078D01*
X113021795Y-91041078D02*
X112909941Y-90987920D01*
X112909941Y-90987920D02*
X112814001Y-90915767D01*
X112814001Y-90915767D02*
X112735076Y-90827917D01*
X112735076Y-90827917D02*
X112674270Y-90727665D01*
X112674270Y-90727665D02*
X112632687Y-90618310D01*
X112632687Y-90618310D02*
X112611428Y-90503147D01*
X112611428Y-90503147D02*
X112611599Y-90385475D01*
X112611599Y-90385475D02*
X112634301Y-90268590D01*
X112634301Y-90268590D02*
X112680638Y-90155789D01*
X112680638Y-90155789D02*
X112751713Y-90050369D01*
X112751713Y-90050369D02*
X112791911Y-90006368D01*
X112791911Y-90006368D02*
X112895129Y-89921979D01*
X112895129Y-89921979D02*
X113007925Y-89863222D01*
X113007925Y-89863222D02*
X113127010Y-89829704D01*
X113127010Y-89829704D02*
X113249095Y-89821035D01*
X113249095Y-89821035D02*
X113370893Y-89836823D01*
X113370893Y-89836823D02*
X113489116Y-89876678D01*
X113489116Y-89876678D02*
X113600475Y-89940207D01*
X113600475Y-89940207D02*
X113701684Y-90027021D01*
X113701684Y-90027021D02*
X113780887Y-90124029D01*
X113780887Y-90124029D02*
X113811162Y-90164437D01*
X113811162Y-90164437D02*
X113837219Y-90192982D01*
X113837219Y-90192982D02*
X113852825Y-90203257D01*
X113852825Y-90203257D02*
X113869843Y-90197877D01*
X113869843Y-90197877D02*
X113910500Y-90182575D01*
X113910500Y-90182575D02*
X113971642Y-90158612D01*
X113971642Y-90158612D02*
X114050119Y-90127244D01*
X114050119Y-90127244D02*
X114142780Y-90089732D01*
X114142780Y-90089732D02*
X114246472Y-90047333D01*
X114246472Y-90047333D02*
X114347526Y-90005663D01*
X114347526Y-90005663D02*
X114458607Y-89959690D01*
X114458607Y-89959690D02*
X114561541Y-89917107D01*
X114561541Y-89917107D02*
X114653165Y-89879221D01*
X114653165Y-89879221D02*
X114730316Y-89847340D01*
X114730316Y-89847340D02*
X114789831Y-89822771D01*
X114789831Y-89822771D02*
X114828544Y-89806820D01*
X114828544Y-89806820D02*
X114843000Y-89800910D01*
X114843000Y-89800910D02*
X114857685Y-89786948D01*
X114857685Y-89786948D02*
X114857642Y-89759940D01*
X114857642Y-89759940D02*
X114842099Y-89716413D01*
X114842099Y-89716413D02*
X114810284Y-89652890D01*
X114810284Y-89652890D02*
X114810013Y-89652388D01*
X114810013Y-89652388D02*
X114785323Y-89604560D01*
X114785323Y-89604560D02*
X114767338Y-89565897D01*
X114767338Y-89565897D02*
X114759614Y-89544095D01*
X114759614Y-89544095D02*
X114759543Y-89543133D01*
X114759543Y-89543133D02*
X114767378Y-89526721D01*
X114767378Y-89526721D02*
X114789165Y-89490487D01*
X114789165Y-89490487D02*
X114822328Y-89438474D01*
X114822328Y-89438474D02*
X114864291Y-89374725D01*
X114864291Y-89374725D02*
X114911943Y-89304060D01*
X114911943Y-89304060D02*
X114960191Y-89232116D01*
X114960191Y-89232116D02*
X115002151Y-89167274D01*
X115002151Y-89167274D02*
X115035227Y-89113735D01*
X115035227Y-89113735D02*
X115056821Y-89075697D01*
X115056821Y-89075697D02*
X115064343Y-89057533D01*
X115064343Y-89057533D02*
X115054457Y-89040808D01*
X115054457Y-89040808D02*
X115026826Y-89007180D01*
X115026826Y-89007180D02*
X114984495Y-88960010D01*
X114984495Y-88960010D02*
X114930505Y-88902658D01*
X114930505Y-88902658D02*
X114867899Y-88838484D01*
X114867899Y-88838484D02*
X114846983Y-88817497D01*
X114846983Y-88817497D02*
X114629623Y-88600499D01*
X114629623Y-88600499D02*
X114387220Y-88765668D01*
X114387220Y-88765668D02*
X114312781Y-88815864D01*
X114312781Y-88815864D02*
X114245972Y-88859919D01*
X114245972Y-88859919D02*
X114190665Y-88895362D01*
X114190665Y-88895362D02*
X114150729Y-88919719D01*
X114150729Y-88919719D02*
X114130036Y-88930522D01*
X114130036Y-88930522D02*
X114128563Y-88930838D01*
X114128563Y-88930838D02*
X114109058Y-88925143D01*
X114109058Y-88925143D02*
X114069822Y-88909826D01*
X114069822Y-88909826D02*
X114017430Y-88887537D01*
X114017430Y-88887537D02*
X113982355Y-88871893D01*
X113982355Y-88871893D02*
X113915201Y-88842641D01*
X113915201Y-88842641D02*
X113847358Y-88815094D01*
X113847358Y-88815094D02*
X113790034Y-88793737D01*
X113790034Y-88793737D02*
X113772572Y-88787935D01*
X113772572Y-88787935D02*
X113725938Y-88771452D01*
X113725938Y-88771452D02*
X113689905Y-88755340D01*
X113689905Y-88755340D02*
X113676287Y-88746490D01*
X113676287Y-88746490D02*
X113667952Y-88726960D01*
X113667952Y-88726960D02*
X113656137Y-88684334D01*
X113656137Y-88684334D02*
X113642181Y-88624145D01*
X113642181Y-88624145D02*
X113627422Y-88551922D01*
X113627422Y-88551922D02*
X113621355Y-88519600D01*
X113621355Y-88519600D02*
X113606273Y-88437522D01*
X113606273Y-88437522D02*
X113591669Y-88358795D01*
X113591669Y-88358795D02*
X113578980Y-88291109D01*
X113578980Y-88291109D02*
X113569642Y-88242160D01*
X113569642Y-88242160D02*
X113567839Y-88232943D01*
X113567839Y-88232943D02*
X113552799Y-88156743D01*
X113552799Y-88156743D02*
X113235492Y-88156743D01*
X113235492Y-88156743D02*
X113131154Y-88156914D01*
X113131154Y-88156914D02*
X113052213Y-88157616D01*
X113052213Y-88157616D02*
X112995038Y-88159134D01*
X112995038Y-88159134D02*
X112955999Y-88161749D01*
X112955999Y-88161749D02*
X112931465Y-88165746D01*
X112931465Y-88165746D02*
X112917805Y-88171409D01*
X112917805Y-88171409D02*
X112911389Y-88179020D01*
X112911389Y-88179020D02*
X112910199Y-88182143D01*
X112910199Y-88182143D02*
X112905980Y-88200978D01*
X112905980Y-88200978D02*
X112897562Y-88242588D01*
X112897562Y-88242588D02*
X112885961Y-88301630D01*
X112885961Y-88301630D02*
X112872195Y-88372757D01*
X112872195Y-88372757D02*
X112857280Y-88450625D01*
X112857280Y-88450625D02*
X112842232Y-88529887D01*
X112842232Y-88529887D02*
X112828069Y-88605198D01*
X112828069Y-88605198D02*
X112815806Y-88671213D01*
X112815806Y-88671213D02*
X112806461Y-88722587D01*
X112806461Y-88722587D02*
X112801050Y-88753975D01*
X112801050Y-88753975D02*
X112800114Y-88760959D01*
X112800114Y-88760959D02*
X112787596Y-88767285D01*
X112787596Y-88767285D02*
X112754246Y-88781290D01*
X112754246Y-88781290D02*
X112706377Y-88800355D01*
X112706377Y-88800355D02*
X112687629Y-88807634D01*
X112687629Y-88807634D02*
X112615195Y-88836996D01*
X112615195Y-88836996D02*
X112535170Y-88871571D01*
X112535170Y-88871571D02*
X112467728Y-88902537D01*
X112467728Y-88902537D02*
X112416159Y-88925323D01*
X112416159Y-88925323D02*
X112373785Y-88940482D01*
X112373785Y-88940482D02*
X112347834Y-88945542D01*
X112347834Y-88945542D02*
X112344356Y-88944736D01*
X112344356Y-88944736D02*
X112327936Y-88934041D01*
X112327936Y-88934041D02*
X112291417Y-88909620D01*
X112291417Y-88909620D02*
X112238687Y-88874095D01*
X112238687Y-88874095D02*
X112173635Y-88830087D01*
X112173635Y-88830087D02*
X112100151Y-88780217D01*
X112100151Y-88780217D02*
X112085645Y-88770356D01*
X112085645Y-88770356D02*
X111999704Y-88712492D01*
X111999704Y-88712492D02*
X111934261Y-88669956D01*
X111934261Y-88669956D02*
X111886304Y-88641054D01*
X111886304Y-88641054D02*
X111852820Y-88624090D01*
X111852820Y-88624090D02*
X111830795Y-88617367D01*
X111830795Y-88617367D02*
X111817217Y-88619190D01*
X111817217Y-88619190D02*
X111817131Y-88619236D01*
X111817131Y-88619236D02*
X111799297Y-88633586D01*
X111799297Y-88633586D02*
X111764817Y-88665323D01*
X111764817Y-88665323D02*
X111717268Y-88711010D01*
X111717268Y-88711010D02*
X111660222Y-88767204D01*
X111660222Y-88767204D02*
X111597255Y-88830468D01*
X111597255Y-88830468D02*
X111590227Y-88837602D01*
X111590227Y-88837602D02*
X111513020Y-88917330D01*
X111513020Y-88917330D02*
X111456330Y-88978857D01*
X111456330Y-88978857D02*
X111419110Y-89023421D01*
X111419110Y-89023421D02*
X111400315Y-89052257D01*
X111400315Y-89052257D02*
X111397889Y-89064958D01*
X111397889Y-89064958D02*
X111408471Y-89083494D01*
X111408471Y-89083494D02*
X111432916Y-89121961D01*
X111432916Y-89121961D02*
X111468612Y-89176386D01*
X111468612Y-89176386D02*
X111512947Y-89242798D01*
X111512947Y-89242798D02*
X111563311Y-89317225D01*
X111563311Y-89317225D02*
X111575160Y-89334601D01*
X111575160Y-89334601D02*
X111743626Y-89581297D01*
X111743626Y-89581297D02*
X111693062Y-89692706D01*
X111693062Y-89692706D02*
X111663595Y-89760457D01*
X111663595Y-89760457D02*
X111633959Y-89833183D01*
X111633959Y-89833183D02*
X111610330Y-89895703D01*
X111610330Y-89895703D02*
X111609358Y-89898457D01*
X111609358Y-89898457D02*
X111591457Y-89947360D01*
X111591457Y-89947360D02*
X111576320Y-89985057D01*
X111576320Y-89985057D02*
X111567210Y-90003425D01*
X111567210Y-90003425D02*
X111567184Y-90003456D01*
X111567184Y-90003456D02*
X111550717Y-90009285D01*
X111550717Y-90009285D02*
X111510219Y-90019192D01*
X111510219Y-90019192D02*
X111450242Y-90032195D01*
X111450242Y-90032195D02*
X111375340Y-90047309D01*
X111375340Y-90047309D02*
X111290064Y-90063552D01*
X111290064Y-90063552D02*
X111282875Y-90064881D01*
X111282875Y-90064881D02*
X111195014Y-90081175D01*
X111195014Y-90081175D02*
X111115260Y-90096133D01*
X111115260Y-90096133D02*
X111048681Y-90108791D01*
X111048681Y-90108791D02*
X111000347Y-90118186D01*
X111000347Y-90118186D02*
X110975325Y-90123354D01*
X110975325Y-90123354D02*
X110974943Y-90123444D01*
X110974943Y-90123444D02*
X110964299Y-90126589D01*
X110964299Y-90126589D02*
X110956262Y-90132704D01*
X110956262Y-90132704D02*
X110950467Y-90145453D01*
X110950467Y-90145453D02*
X110946547Y-90168500D01*
X110946547Y-90168500D02*
X110944135Y-90205509D01*
X110944135Y-90205509D02*
X110942865Y-90260144D01*
X110942865Y-90260144D02*
X110942371Y-90336067D01*
X110942371Y-90336067D02*
X110942286Y-90436944D01*
X110942286Y-90436944D02*
X110942286Y-90450000D01*
X110942286Y-90450000D02*
X110942348Y-90553910D01*
X110942348Y-90553910D02*
X110942348Y-90553910D01*
G36*
X113567839Y-88232943D02*
G01*
X113569642Y-88242160D01*
X113578980Y-88291109D01*
X113591669Y-88358795D01*
X113606273Y-88437522D01*
X113621355Y-88519600D01*
X113627422Y-88551922D01*
X113642181Y-88624145D01*
X113656137Y-88684334D01*
X113667952Y-88726960D01*
X113676287Y-88746490D01*
X113689905Y-88755340D01*
X113725938Y-88771452D01*
X113772572Y-88787935D01*
X113790034Y-88793737D01*
X113847358Y-88815094D01*
X113915201Y-88842641D01*
X113982355Y-88871893D01*
X114017430Y-88887537D01*
X114069822Y-88909826D01*
X114109058Y-88925143D01*
X114128563Y-88930838D01*
X114130036Y-88930522D01*
X114150729Y-88919719D01*
X114190665Y-88895362D01*
X114245972Y-88859919D01*
X114312781Y-88815864D01*
X114387220Y-88765668D01*
X114629623Y-88600499D01*
X114846983Y-88817497D01*
X114867899Y-88838484D01*
X114930505Y-88902658D01*
X114984495Y-88960010D01*
X115026826Y-89007180D01*
X115054457Y-89040808D01*
X115064343Y-89057533D01*
X115056821Y-89075697D01*
X115035227Y-89113735D01*
X115002151Y-89167274D01*
X114960191Y-89232116D01*
X114911943Y-89304060D01*
X114864291Y-89374725D01*
X114822328Y-89438474D01*
X114789165Y-89490487D01*
X114767378Y-89526721D01*
X114759543Y-89543133D01*
X114759614Y-89544095D01*
X114767338Y-89565897D01*
X114785323Y-89604560D01*
X114810013Y-89652388D01*
X114810284Y-89652890D01*
X114842099Y-89716413D01*
X114857642Y-89759940D01*
X114857685Y-89786948D01*
X114843000Y-89800910D01*
X114828544Y-89806820D01*
X114789831Y-89822771D01*
X114730316Y-89847340D01*
X114653165Y-89879221D01*
X114561541Y-89917107D01*
X114458607Y-89959690D01*
X114347526Y-90005663D01*
X114246472Y-90047333D01*
X114142780Y-90089732D01*
X114050119Y-90127244D01*
X113971642Y-90158612D01*
X113910500Y-90182575D01*
X113869843Y-90197877D01*
X113852825Y-90203257D01*
X113837219Y-90192982D01*
X113811162Y-90164437D01*
X113780887Y-90124029D01*
X113701684Y-90027021D01*
X113600475Y-89940207D01*
X113489116Y-89876678D01*
X113370893Y-89836823D01*
X113249095Y-89821035D01*
X113127010Y-89829704D01*
X113007925Y-89863222D01*
X112895129Y-89921979D01*
X112791911Y-90006368D01*
X112751713Y-90050369D01*
X112680638Y-90155789D01*
X112634301Y-90268590D01*
X112611599Y-90385475D01*
X112611428Y-90503147D01*
X112632687Y-90618310D01*
X112674270Y-90727665D01*
X112735076Y-90827917D01*
X112814001Y-90915767D01*
X112909941Y-90987920D01*
X113021795Y-91041078D01*
X113148457Y-91071943D01*
X113209507Y-91077608D01*
X113341776Y-91069815D01*
X113467266Y-91034716D01*
X113583759Y-90973351D01*
X113689039Y-90886757D01*
X113780887Y-90775971D01*
X113809930Y-90737069D01*
X113836272Y-90707896D01*
X113852800Y-90696743D01*
X113867209Y-90701190D01*
X113905815Y-90715622D01*
X113965201Y-90738827D01*
X114042215Y-90769548D01*
X114133703Y-90806526D01*
X114236516Y-90848504D01*
X114347502Y-90894222D01*
X114448072Y-90935822D01*
X114551947Y-90978778D01*
X114644819Y-91017171D01*
X114723525Y-91049695D01*
X114784899Y-91075042D01*
X114825779Y-91091905D01*
X114843000Y-91098975D01*
X114843204Y-91099057D01*
X114857745Y-91113202D01*
X114857579Y-91140341D01*
X114841927Y-91183977D01*
X114810013Y-91247612D01*
X114807326Y-91252621D01*
X114783150Y-91299875D01*
X114766037Y-91337189D01*
X114759543Y-91356867D01*
X114767218Y-91372995D01*
X114788871Y-91409041D01*
X114821928Y-91460908D01*
X114863810Y-91524555D01*
X114911943Y-91595940D01*
X114959131Y-91666276D01*
X115001267Y-91731330D01*
X115034578Y-91785180D01*
X115056469Y-91823626D01*
X115064343Y-91842466D01*
X115063343Y-91845675D01*
X115047584Y-91868046D01*
X115015033Y-91906267D01*
X114968733Y-91956979D01*
X114911726Y-92016819D01*
X114847058Y-92082429D01*
X114629772Y-92299352D01*
X114381253Y-92130399D01*
X114132733Y-91961447D01*
X114021595Y-92012817D01*
X114021266Y-92012969D01*
X113950418Y-92043817D01*
X113871523Y-92075339D01*
X113801600Y-92100734D01*
X113790322Y-92104577D01*
X113737967Y-92123953D01*
X113697283Y-92141426D01*
X113676287Y-92153612D01*
X113673322Y-92158574D01*
X113663375Y-92188366D01*
X113650505Y-92238953D01*
X113636053Y-92304806D01*
X113621355Y-92380400D01*
X113617210Y-92403043D01*
X113602116Y-92484962D01*
X113587899Y-92561400D01*
X113575995Y-92624663D01*
X113567839Y-92667057D01*
X113552799Y-92743257D01*
X113235492Y-92743257D01*
X113196476Y-92743240D01*
X113101292Y-92742918D01*
X113030255Y-92741967D01*
X112979734Y-92740104D01*
X112946098Y-92737045D01*
X112925718Y-92732506D01*
X112914962Y-92726205D01*
X112910199Y-92717857D01*
X112908270Y-92709776D01*
X112901445Y-92676828D01*
X112891022Y-92624264D01*
X112878018Y-92557431D01*
X112863449Y-92481672D01*
X112848333Y-92402335D01*
X112833685Y-92324763D01*
X112820523Y-92254302D01*
X112809863Y-92196298D01*
X112802721Y-92156096D01*
X112800114Y-92139041D01*
X112798541Y-92137888D01*
X112778119Y-92128615D01*
X112739045Y-92112568D01*
X112687629Y-92092365D01*
X112618353Y-92064328D01*
X112538290Y-92029814D01*
X112467728Y-91997462D01*
X112451889Y-91990048D01*
X112402293Y-91969245D01*
X112364038Y-91956781D01*
X112344356Y-91955137D01*
X112342962Y-91955985D01*
X112322420Y-91969452D01*
X112282516Y-91996150D01*
X112227140Y-92033461D01*
X112160177Y-92078766D01*
X112085517Y-92129448D01*
X112000692Y-92186555D01*
X111934800Y-92229393D01*
X111886478Y-92258540D01*
X111852733Y-92275683D01*
X111830572Y-92282505D01*
X111817002Y-92280694D01*
X111815984Y-92280085D01*
X111796210Y-92263703D01*
X111760175Y-92230305D01*
X111711451Y-92183329D01*
X111653612Y-92126214D01*
X111590227Y-92062397D01*
X111525905Y-91996198D01*
X111465447Y-91931352D01*
X111424655Y-91883701D01*
X111402484Y-91852010D01*
X111397889Y-91835042D01*
X111398921Y-91832825D01*
X111412837Y-91809476D01*
X111440030Y-91767088D01*
X111477889Y-91709631D01*
X111523803Y-91641077D01*
X111575160Y-91565399D01*
X111743626Y-91318702D01*
X111693062Y-91207294D01*
X111691597Y-91204057D01*
X111661965Y-91135657D01*
X111632493Y-91063093D01*
X111609358Y-91001543D01*
X111609262Y-91001271D01*
X111591367Y-90952405D01*
X111576253Y-90914788D01*
X111567184Y-90896543D01*
X111566855Y-90896248D01*
X111548282Y-90890054D01*
X111506045Y-90879861D01*
X111444696Y-90866652D01*
X111368789Y-90851410D01*
X111282875Y-90835119D01*
X111279796Y-90834551D01*
X111192128Y-90818287D01*
X111112741Y-90803392D01*
X111046701Y-90790829D01*
X110999079Y-90781562D01*
X110974943Y-90776556D01*
X110973605Y-90776236D01*
X110963273Y-90772940D01*
X110955506Y-90766262D01*
X110949940Y-90752538D01*
X110946207Y-90728105D01*
X110943942Y-90689298D01*
X110942778Y-90632454D01*
X110942348Y-90553910D01*
X110942286Y-90450000D01*
X110942286Y-90436944D01*
X110942371Y-90336067D01*
X110942865Y-90260144D01*
X110944135Y-90205509D01*
X110946547Y-90168500D01*
X110950467Y-90145453D01*
X110956262Y-90132704D01*
X110964299Y-90126589D01*
X110974943Y-90123444D01*
X110975325Y-90123354D01*
X111000347Y-90118186D01*
X111048681Y-90108791D01*
X111115260Y-90096133D01*
X111195014Y-90081175D01*
X111282875Y-90064881D01*
X111290064Y-90063552D01*
X111375340Y-90047309D01*
X111450242Y-90032195D01*
X111510219Y-90019192D01*
X111550717Y-90009285D01*
X111567184Y-90003456D01*
X111567210Y-90003425D01*
X111576320Y-89985057D01*
X111591457Y-89947360D01*
X111609358Y-89898457D01*
X111610330Y-89895703D01*
X111633959Y-89833183D01*
X111663595Y-89760457D01*
X111693062Y-89692706D01*
X111743626Y-89581297D01*
X111575160Y-89334601D01*
X111563311Y-89317225D01*
X111512947Y-89242798D01*
X111468612Y-89176386D01*
X111432916Y-89121961D01*
X111408471Y-89083494D01*
X111397889Y-89064958D01*
X111400315Y-89052257D01*
X111419110Y-89023421D01*
X111456330Y-88978857D01*
X111513020Y-88917330D01*
X111590227Y-88837602D01*
X111597255Y-88830468D01*
X111660222Y-88767204D01*
X111717268Y-88711010D01*
X111764817Y-88665323D01*
X111799297Y-88633586D01*
X111817131Y-88619236D01*
X111817217Y-88619190D01*
X111830795Y-88617367D01*
X111852820Y-88624090D01*
X111886304Y-88641054D01*
X111934261Y-88669956D01*
X111999704Y-88712492D01*
X112085645Y-88770356D01*
X112100151Y-88780217D01*
X112173635Y-88830087D01*
X112238687Y-88874095D01*
X112291417Y-88909620D01*
X112327936Y-88934041D01*
X112344356Y-88944736D01*
X112347834Y-88945542D01*
X112373785Y-88940482D01*
X112416159Y-88925323D01*
X112467728Y-88902537D01*
X112535170Y-88871571D01*
X112615195Y-88836996D01*
X112687629Y-88807634D01*
X112706377Y-88800355D01*
X112754246Y-88781290D01*
X112787596Y-88767285D01*
X112800114Y-88760959D01*
X112801050Y-88753975D01*
X112806461Y-88722587D01*
X112815806Y-88671213D01*
X112828069Y-88605198D01*
X112842232Y-88529887D01*
X112857280Y-88450625D01*
X112872195Y-88372757D01*
X112885961Y-88301630D01*
X112897562Y-88242588D01*
X112905980Y-88200978D01*
X112910199Y-88182143D01*
X112911389Y-88179020D01*
X112917805Y-88171409D01*
X112931465Y-88165746D01*
X112955999Y-88161749D01*
X112995038Y-88159134D01*
X113052213Y-88157616D01*
X113131154Y-88156914D01*
X113235492Y-88156743D01*
X113552799Y-88156743D01*
X113567839Y-88232943D01*
G37*
X113567839Y-88232943D02*
X113569642Y-88242160D01*
X113578980Y-88291109D01*
X113591669Y-88358795D01*
X113606273Y-88437522D01*
X113621355Y-88519600D01*
X113627422Y-88551922D01*
X113642181Y-88624145D01*
X113656137Y-88684334D01*
X113667952Y-88726960D01*
X113676287Y-88746490D01*
X113689905Y-88755340D01*
X113725938Y-88771452D01*
X113772572Y-88787935D01*
X113790034Y-88793737D01*
X113847358Y-88815094D01*
X113915201Y-88842641D01*
X113982355Y-88871893D01*
X114017430Y-88887537D01*
X114069822Y-88909826D01*
X114109058Y-88925143D01*
X114128563Y-88930838D01*
X114130036Y-88930522D01*
X114150729Y-88919719D01*
X114190665Y-88895362D01*
X114245972Y-88859919D01*
X114312781Y-88815864D01*
X114387220Y-88765668D01*
X114629623Y-88600499D01*
X114846983Y-88817497D01*
X114867899Y-88838484D01*
X114930505Y-88902658D01*
X114984495Y-88960010D01*
X115026826Y-89007180D01*
X115054457Y-89040808D01*
X115064343Y-89057533D01*
X115056821Y-89075697D01*
X115035227Y-89113735D01*
X115002151Y-89167274D01*
X114960191Y-89232116D01*
X114911943Y-89304060D01*
X114864291Y-89374725D01*
X114822328Y-89438474D01*
X114789165Y-89490487D01*
X114767378Y-89526721D01*
X114759543Y-89543133D01*
X114759614Y-89544095D01*
X114767338Y-89565897D01*
X114785323Y-89604560D01*
X114810013Y-89652388D01*
X114810284Y-89652890D01*
X114842099Y-89716413D01*
X114857642Y-89759940D01*
X114857685Y-89786948D01*
X114843000Y-89800910D01*
X114828544Y-89806820D01*
X114789831Y-89822771D01*
X114730316Y-89847340D01*
X114653165Y-89879221D01*
X114561541Y-89917107D01*
X114458607Y-89959690D01*
X114347526Y-90005663D01*
X114246472Y-90047333D01*
X114142780Y-90089732D01*
X114050119Y-90127244D01*
X113971642Y-90158612D01*
X113910500Y-90182575D01*
X113869843Y-90197877D01*
X113852825Y-90203257D01*
X113837219Y-90192982D01*
X113811162Y-90164437D01*
X113780887Y-90124029D01*
X113701684Y-90027021D01*
X113600475Y-89940207D01*
X113489116Y-89876678D01*
X113370893Y-89836823D01*
X113249095Y-89821035D01*
X113127010Y-89829704D01*
X113007925Y-89863222D01*
X112895129Y-89921979D01*
X112791911Y-90006368D01*
X112751713Y-90050369D01*
X112680638Y-90155789D01*
X112634301Y-90268590D01*
X112611599Y-90385475D01*
X112611428Y-90503147D01*
X112632687Y-90618310D01*
X112674270Y-90727665D01*
X112735076Y-90827917D01*
X112814001Y-90915767D01*
X112909941Y-90987920D01*
X113021795Y-91041078D01*
X113148457Y-91071943D01*
X113209507Y-91077608D01*
X113341776Y-91069815D01*
X113467266Y-91034716D01*
X113583759Y-90973351D01*
X113689039Y-90886757D01*
X113780887Y-90775971D01*
X113809930Y-90737069D01*
X113836272Y-90707896D01*
X113852800Y-90696743D01*
X113867209Y-90701190D01*
X113905815Y-90715622D01*
X113965201Y-90738827D01*
X114042215Y-90769548D01*
X114133703Y-90806526D01*
X114236516Y-90848504D01*
X114347502Y-90894222D01*
X114448072Y-90935822D01*
X114551947Y-90978778D01*
X114644819Y-91017171D01*
X114723525Y-91049695D01*
X114784899Y-91075042D01*
X114825779Y-91091905D01*
X114843000Y-91098975D01*
X114843204Y-91099057D01*
X114857745Y-91113202D01*
X114857579Y-91140341D01*
X114841927Y-91183977D01*
X114810013Y-91247612D01*
X114807326Y-91252621D01*
X114783150Y-91299875D01*
X114766037Y-91337189D01*
X114759543Y-91356867D01*
X114767218Y-91372995D01*
X114788871Y-91409041D01*
X114821928Y-91460908D01*
X114863810Y-91524555D01*
X114911943Y-91595940D01*
X114959131Y-91666276D01*
X115001267Y-91731330D01*
X115034578Y-91785180D01*
X115056469Y-91823626D01*
X115064343Y-91842466D01*
X115063343Y-91845675D01*
X115047584Y-91868046D01*
X115015033Y-91906267D01*
X114968733Y-91956979D01*
X114911726Y-92016819D01*
X114847058Y-92082429D01*
X114629772Y-92299352D01*
X114381253Y-92130399D01*
X114132733Y-91961447D01*
X114021595Y-92012817D01*
X114021266Y-92012969D01*
X113950418Y-92043817D01*
X113871523Y-92075339D01*
X113801600Y-92100734D01*
X113790322Y-92104577D01*
X113737967Y-92123953D01*
X113697283Y-92141426D01*
X113676287Y-92153612D01*
X113673322Y-92158574D01*
X113663375Y-92188366D01*
X113650505Y-92238953D01*
X113636053Y-92304806D01*
X113621355Y-92380400D01*
X113617210Y-92403043D01*
X113602116Y-92484962D01*
X113587899Y-92561400D01*
X113575995Y-92624663D01*
X113567839Y-92667057D01*
X113552799Y-92743257D01*
X113235492Y-92743257D01*
X113196476Y-92743240D01*
X113101292Y-92742918D01*
X113030255Y-92741967D01*
X112979734Y-92740104D01*
X112946098Y-92737045D01*
X112925718Y-92732506D01*
X112914962Y-92726205D01*
X112910199Y-92717857D01*
X112908270Y-92709776D01*
X112901445Y-92676828D01*
X112891022Y-92624264D01*
X112878018Y-92557431D01*
X112863449Y-92481672D01*
X112848333Y-92402335D01*
X112833685Y-92324763D01*
X112820523Y-92254302D01*
X112809863Y-92196298D01*
X112802721Y-92156096D01*
X112800114Y-92139041D01*
X112798541Y-92137888D01*
X112778119Y-92128615D01*
X112739045Y-92112568D01*
X112687629Y-92092365D01*
X112618353Y-92064328D01*
X112538290Y-92029814D01*
X112467728Y-91997462D01*
X112451889Y-91990048D01*
X112402293Y-91969245D01*
X112364038Y-91956781D01*
X112344356Y-91955137D01*
X112342962Y-91955985D01*
X112322420Y-91969452D01*
X112282516Y-91996150D01*
X112227140Y-92033461D01*
X112160177Y-92078766D01*
X112085517Y-92129448D01*
X112000692Y-92186555D01*
X111934800Y-92229393D01*
X111886478Y-92258540D01*
X111852733Y-92275683D01*
X111830572Y-92282505D01*
X111817002Y-92280694D01*
X111815984Y-92280085D01*
X111796210Y-92263703D01*
X111760175Y-92230305D01*
X111711451Y-92183329D01*
X111653612Y-92126214D01*
X111590227Y-92062397D01*
X111525905Y-91996198D01*
X111465447Y-91931352D01*
X111424655Y-91883701D01*
X111402484Y-91852010D01*
X111397889Y-91835042D01*
X111398921Y-91832825D01*
X111412837Y-91809476D01*
X111440030Y-91767088D01*
X111477889Y-91709631D01*
X111523803Y-91641077D01*
X111575160Y-91565399D01*
X111743626Y-91318702D01*
X111693062Y-91207294D01*
X111691597Y-91204057D01*
X111661965Y-91135657D01*
X111632493Y-91063093D01*
X111609358Y-91001543D01*
X111609262Y-91001271D01*
X111591367Y-90952405D01*
X111576253Y-90914788D01*
X111567184Y-90896543D01*
X111566855Y-90896248D01*
X111548282Y-90890054D01*
X111506045Y-90879861D01*
X111444696Y-90866652D01*
X111368789Y-90851410D01*
X111282875Y-90835119D01*
X111279796Y-90834551D01*
X111192128Y-90818287D01*
X111112741Y-90803392D01*
X111046701Y-90790829D01*
X110999079Y-90781562D01*
X110974943Y-90776556D01*
X110973605Y-90776236D01*
X110963273Y-90772940D01*
X110955506Y-90766262D01*
X110949940Y-90752538D01*
X110946207Y-90728105D01*
X110943942Y-90689298D01*
X110942778Y-90632454D01*
X110942348Y-90553910D01*
X110942286Y-90450000D01*
X110942286Y-90436944D01*
X110942371Y-90336067D01*
X110942865Y-90260144D01*
X110944135Y-90205509D01*
X110946547Y-90168500D01*
X110950467Y-90145453D01*
X110956262Y-90132704D01*
X110964299Y-90126589D01*
X110974943Y-90123444D01*
X110975325Y-90123354D01*
X111000347Y-90118186D01*
X111048681Y-90108791D01*
X111115260Y-90096133D01*
X111195014Y-90081175D01*
X111282875Y-90064881D01*
X111290064Y-90063552D01*
X111375340Y-90047309D01*
X111450242Y-90032195D01*
X111510219Y-90019192D01*
X111550717Y-90009285D01*
X111567184Y-90003456D01*
X111567210Y-90003425D01*
X111576320Y-89985057D01*
X111591457Y-89947360D01*
X111609358Y-89898457D01*
X111610330Y-89895703D01*
X111633959Y-89833183D01*
X111663595Y-89760457D01*
X111693062Y-89692706D01*
X111743626Y-89581297D01*
X111575160Y-89334601D01*
X111563311Y-89317225D01*
X111512947Y-89242798D01*
X111468612Y-89176386D01*
X111432916Y-89121961D01*
X111408471Y-89083494D01*
X111397889Y-89064958D01*
X111400315Y-89052257D01*
X111419110Y-89023421D01*
X111456330Y-88978857D01*
X111513020Y-88917330D01*
X111590227Y-88837602D01*
X111597255Y-88830468D01*
X111660222Y-88767204D01*
X111717268Y-88711010D01*
X111764817Y-88665323D01*
X111799297Y-88633586D01*
X111817131Y-88619236D01*
X111817217Y-88619190D01*
X111830795Y-88617367D01*
X111852820Y-88624090D01*
X111886304Y-88641054D01*
X111934261Y-88669956D01*
X111999704Y-88712492D01*
X112085645Y-88770356D01*
X112100151Y-88780217D01*
X112173635Y-88830087D01*
X112238687Y-88874095D01*
X112291417Y-88909620D01*
X112327936Y-88934041D01*
X112344356Y-88944736D01*
X112347834Y-88945542D01*
X112373785Y-88940482D01*
X112416159Y-88925323D01*
X112467728Y-88902537D01*
X112535170Y-88871571D01*
X112615195Y-88836996D01*
X112687629Y-88807634D01*
X112706377Y-88800355D01*
X112754246Y-88781290D01*
X112787596Y-88767285D01*
X112800114Y-88760959D01*
X112801050Y-88753975D01*
X112806461Y-88722587D01*
X112815806Y-88671213D01*
X112828069Y-88605198D01*
X112842232Y-88529887D01*
X112857280Y-88450625D01*
X112872195Y-88372757D01*
X112885961Y-88301630D01*
X112897562Y-88242588D01*
X112905980Y-88200978D01*
X112910199Y-88182143D01*
X112911389Y-88179020D01*
X112917805Y-88171409D01*
X112931465Y-88165746D01*
X112955999Y-88161749D01*
X112995038Y-88159134D01*
X113052213Y-88157616D01*
X113131154Y-88156914D01*
X113235492Y-88156743D01*
X113552799Y-88156743D01*
X113567839Y-88232943D01*
X115631239Y-88618303D02*
X115669735Y-88675527D01*
X115669735Y-88675527D02*
X115725335Y-88719749D01*
X115725335Y-88719749D02*
X115796086Y-88746167D01*
X115796086Y-88746167D02*
X115848162Y-88751510D01*
X115848162Y-88751510D02*
X115869893Y-88750903D01*
X115869893Y-88750903D02*
X115886531Y-88745822D01*
X115886531Y-88745822D02*
X115901437Y-88731855D01*
X115901437Y-88731855D02*
X115917973Y-88704589D01*
X115917973Y-88704589D02*
X115939498Y-88659612D01*
X115939498Y-88659612D02*
X115969374Y-88592511D01*
X115969374Y-88592511D02*
X115969524Y-88592171D01*
X115969524Y-88592171D02*
X115997813Y-88530407D01*
X115997813Y-88530407D02*
X116022933Y-88479759D01*
X116022933Y-88479759D02*
X116042179Y-88445404D01*
X116042179Y-88445404D02*
X116052848Y-88432518D01*
X116052848Y-88432518D02*
X116052934Y-88432514D01*
X116052934Y-88432514D02*
X116076166Y-88443872D01*
X116076166Y-88443872D02*
X116101774Y-88470431D01*
X116101774Y-88470431D02*
X116120221Y-88500923D01*
X116120221Y-88500923D02*
X116123886Y-88516370D01*
X116123886Y-88516370D02*
X116111212Y-88558515D01*
X116111212Y-88558515D02*
X116079471Y-88594808D01*
X116079471Y-88594808D02*
X116044572Y-88612517D01*
X116044572Y-88612517D02*
X116018845Y-88629552D01*
X116018845Y-88629552D02*
X115989546Y-88662922D01*
X115989546Y-88662922D02*
X115964235Y-88702149D01*
X115964235Y-88702149D02*
X115950471Y-88736756D01*
X115950471Y-88736756D02*
X115949714Y-88743993D01*
X115949714Y-88743993D02*
X115962160Y-88752139D01*
X115962160Y-88752139D02*
X115993972Y-88752630D01*
X115993972Y-88752630D02*
X116036866Y-88746643D01*
X116036866Y-88746643D02*
X116082558Y-88735357D01*
X116082558Y-88735357D02*
X116122761Y-88719950D01*
X116122761Y-88719950D02*
X116124322Y-88719171D01*
X116124322Y-88719171D02*
X116189062Y-88672804D01*
X116189062Y-88672804D02*
X116233097Y-88612711D01*
X116233097Y-88612711D02*
X116254711Y-88544465D01*
X116254711Y-88544465D02*
X116252185Y-88473638D01*
X116252185Y-88473638D02*
X116223804Y-88405804D01*
X116223804Y-88405804D02*
X116221808Y-88402788D01*
X116221808Y-88402788D02*
X116173448Y-88349427D01*
X116173448Y-88349427D02*
X116110352Y-88314340D01*
X116110352Y-88314340D02*
X116027387Y-88294922D01*
X116027387Y-88294922D02*
X116004078Y-88292316D01*
X116004078Y-88292316D02*
X115894055Y-88287701D01*
X115894055Y-88287701D02*
X115842748Y-88293233D01*
X115842748Y-88293233D02*
X115842748Y-88432514D01*
X115842748Y-88432514D02*
X115874753Y-88434324D01*
X115874753Y-88434324D02*
X115884093Y-88444222D01*
X115884093Y-88444222D02*
X115877105Y-88468898D01*
X115877105Y-88468898D02*
X115860587Y-88507795D01*
X115860587Y-88507795D02*
X115839881Y-88551275D01*
X115839881Y-88551275D02*
X115839333Y-88552356D01*
X115839333Y-88552356D02*
X115819949Y-88589209D01*
X115819949Y-88589209D02*
X115807013Y-88604000D01*
X115807013Y-88604000D02*
X115793451Y-88600353D01*
X115793451Y-88600353D02*
X115775632Y-88584995D01*
X115775632Y-88584995D02*
X115749845Y-88545923D01*
X115749845Y-88545923D02*
X115747950Y-88503846D01*
X115747950Y-88503846D02*
X115766717Y-88466103D01*
X115766717Y-88466103D02*
X115802915Y-88440034D01*
X115802915Y-88440034D02*
X115842748Y-88432514D01*
X115842748Y-88432514D02*
X115842748Y-88293233D01*
X115842748Y-88293233D02*
X115806027Y-88297194D01*
X115806027Y-88297194D02*
X115736212Y-88321550D01*
X115736212Y-88321550D02*
X115687302Y-88355456D01*
X115687302Y-88355456D02*
X115637878Y-88416653D01*
X115637878Y-88416653D02*
X115613359Y-88484063D01*
X115613359Y-88484063D02*
X115611797Y-88552880D01*
X115611797Y-88552880D02*
X115631239Y-88618303D01*
X115631239Y-88618303D02*
X115631239Y-88618303D01*
G36*
X116004078Y-88292316D02*
G01*
X116027387Y-88294922D01*
X116110352Y-88314340D01*
X116173448Y-88349427D01*
X116221808Y-88402788D01*
X116223804Y-88405804D01*
X116252185Y-88473638D01*
X116254711Y-88544465D01*
X116233097Y-88612711D01*
X116189062Y-88672804D01*
X116124322Y-88719171D01*
X116122761Y-88719950D01*
X116082558Y-88735357D01*
X116036866Y-88746643D01*
X115993972Y-88752630D01*
X115962160Y-88752139D01*
X115949714Y-88743993D01*
X115950471Y-88736756D01*
X115964235Y-88702149D01*
X115989546Y-88662922D01*
X116018845Y-88629552D01*
X116044572Y-88612517D01*
X116079471Y-88594808D01*
X116111212Y-88558515D01*
X116123886Y-88516370D01*
X116120221Y-88500923D01*
X116101774Y-88470431D01*
X116076166Y-88443872D01*
X116052934Y-88432514D01*
X116052848Y-88432518D01*
X116042179Y-88445404D01*
X116022933Y-88479759D01*
X115997813Y-88530407D01*
X115969524Y-88592171D01*
X115969374Y-88592511D01*
X115939498Y-88659612D01*
X115917973Y-88704589D01*
X115901437Y-88731855D01*
X115886531Y-88745822D01*
X115869893Y-88750903D01*
X115848162Y-88751510D01*
X115796086Y-88746167D01*
X115725335Y-88719749D01*
X115669735Y-88675527D01*
X115631239Y-88618303D01*
X115611797Y-88552880D01*
X115612910Y-88503846D01*
X115747950Y-88503846D01*
X115749845Y-88545923D01*
X115775632Y-88584995D01*
X115793451Y-88600353D01*
X115807013Y-88604000D01*
X115819949Y-88589209D01*
X115839333Y-88552356D01*
X115839881Y-88551275D01*
X115860587Y-88507795D01*
X115877105Y-88468898D01*
X115884093Y-88444222D01*
X115874753Y-88434324D01*
X115842748Y-88432514D01*
X115802915Y-88440034D01*
X115766717Y-88466103D01*
X115747950Y-88503846D01*
X115612910Y-88503846D01*
X115613359Y-88484063D01*
X115637878Y-88416653D01*
X115687302Y-88355456D01*
X115736212Y-88321550D01*
X115806027Y-88297194D01*
X115842748Y-88293233D01*
X115894055Y-88287701D01*
X116004078Y-88292316D01*
G37*
X116004078Y-88292316D02*
X116027387Y-88294922D01*
X116110352Y-88314340D01*
X116173448Y-88349427D01*
X116221808Y-88402788D01*
X116223804Y-88405804D01*
X116252185Y-88473638D01*
X116254711Y-88544465D01*
X116233097Y-88612711D01*
X116189062Y-88672804D01*
X116124322Y-88719171D01*
X116122761Y-88719950D01*
X116082558Y-88735357D01*
X116036866Y-88746643D01*
X115993972Y-88752630D01*
X115962160Y-88752139D01*
X115949714Y-88743993D01*
X115950471Y-88736756D01*
X115964235Y-88702149D01*
X115989546Y-88662922D01*
X116018845Y-88629552D01*
X116044572Y-88612517D01*
X116079471Y-88594808D01*
X116111212Y-88558515D01*
X116123886Y-88516370D01*
X116120221Y-88500923D01*
X116101774Y-88470431D01*
X116076166Y-88443872D01*
X116052934Y-88432514D01*
X116052848Y-88432518D01*
X116042179Y-88445404D01*
X116022933Y-88479759D01*
X115997813Y-88530407D01*
X115969524Y-88592171D01*
X115969374Y-88592511D01*
X115939498Y-88659612D01*
X115917973Y-88704589D01*
X115901437Y-88731855D01*
X115886531Y-88745822D01*
X115869893Y-88750903D01*
X115848162Y-88751510D01*
X115796086Y-88746167D01*
X115725335Y-88719749D01*
X115669735Y-88675527D01*
X115631239Y-88618303D01*
X115611797Y-88552880D01*
X115612910Y-88503846D01*
X115747950Y-88503846D01*
X115749845Y-88545923D01*
X115775632Y-88584995D01*
X115793451Y-88600353D01*
X115807013Y-88604000D01*
X115819949Y-88589209D01*
X115839333Y-88552356D01*
X115839881Y-88551275D01*
X115860587Y-88507795D01*
X115877105Y-88468898D01*
X115884093Y-88444222D01*
X115874753Y-88434324D01*
X115842748Y-88432514D01*
X115802915Y-88440034D01*
X115766717Y-88466103D01*
X115747950Y-88503846D01*
X115612910Y-88503846D01*
X115613359Y-88484063D01*
X115637878Y-88416653D01*
X115687302Y-88355456D01*
X115736212Y-88321550D01*
X115806027Y-88297194D01*
X115842748Y-88293233D01*
X115894055Y-88287701D01*
X116004078Y-88292316D01*
X115650968Y-90489744D02*
X115672087Y-90546616D01*
X115672087Y-90546616D02*
X115672493Y-90547267D01*
X115672493Y-90547267D02*
X115698380Y-90582440D01*
X115698380Y-90582440D02*
X115728633Y-90608407D01*
X115728633Y-90608407D02*
X115768058Y-90626670D01*
X115768058Y-90626670D02*
X115821462Y-90638732D01*
X115821462Y-90638732D02*
X115893651Y-90646096D01*
X115893651Y-90646096D02*
X115989432Y-90650264D01*
X115989432Y-90650264D02*
X116003078Y-90650629D01*
X116003078Y-90650629D02*
X116208842Y-90655876D01*
X116208842Y-90655876D02*
X116231678Y-90611716D01*
X116231678Y-90611716D02*
X116247110Y-90579763D01*
X116247110Y-90579763D02*
X116254423Y-90560470D01*
X116254423Y-90560470D02*
X116254514Y-90559578D01*
X116254514Y-90559578D02*
X116241022Y-90556239D01*
X116241022Y-90556239D02*
X116204626Y-90553587D01*
X116204626Y-90553587D02*
X116151452Y-90551956D01*
X116151452Y-90551956D02*
X116108393Y-90551600D01*
X116108393Y-90551600D02*
X116038641Y-90551592D01*
X116038641Y-90551592D02*
X115994837Y-90548403D01*
X115994837Y-90548403D02*
X115973944Y-90537288D01*
X115973944Y-90537288D02*
X115972925Y-90513501D01*
X115972925Y-90513501D02*
X115988741Y-90472296D01*
X115988741Y-90472296D02*
X116017815Y-90410086D01*
X116017815Y-90410086D02*
X116041963Y-90364341D01*
X116041963Y-90364341D02*
X116062913Y-90340813D01*
X116062913Y-90340813D02*
X116085747Y-90333896D01*
X116085747Y-90333896D02*
X116086877Y-90333886D01*
X116086877Y-90333886D02*
X116126212Y-90345299D01*
X116126212Y-90345299D02*
X116147462Y-90379092D01*
X116147462Y-90379092D02*
X116150539Y-90430809D01*
X116150539Y-90430809D02*
X116150006Y-90468061D01*
X116150006Y-90468061D02*
X116160735Y-90487703D01*
X116160735Y-90487703D02*
X116186505Y-90499952D01*
X116186505Y-90499952D02*
X116219337Y-90507002D01*
X116219337Y-90507002D02*
X116237966Y-90496842D01*
X116237966Y-90496842D02*
X116240632Y-90493017D01*
X116240632Y-90493017D02*
X116251340Y-90457001D01*
X116251340Y-90457001D02*
X116252856Y-90406566D01*
X116252856Y-90406566D02*
X116245759Y-90354626D01*
X116245759Y-90354626D02*
X116232788Y-90317822D01*
X116232788Y-90317822D02*
X116189585Y-90266938D01*
X116189585Y-90266938D02*
X116129446Y-90238014D01*
X116129446Y-90238014D02*
X116082462Y-90232286D01*
X116082462Y-90232286D02*
X116040082Y-90236657D01*
X116040082Y-90236657D02*
X116005488Y-90252475D01*
X116005488Y-90252475D02*
X115974763Y-90283797D01*
X115974763Y-90283797D02*
X115943990Y-90334678D01*
X115943990Y-90334678D02*
X115909252Y-90409176D01*
X115909252Y-90409176D02*
X115907288Y-90413714D01*
X115907288Y-90413714D02*
X115876287Y-90480821D01*
X115876287Y-90480821D02*
X115850862Y-90522232D01*
X115850862Y-90522232D02*
X115828014Y-90539981D01*
X115828014Y-90539981D02*
X115804745Y-90536107D01*
X115804745Y-90536107D02*
X115778056Y-90512643D01*
X115778056Y-90512643D02*
X115771914Y-90505627D01*
X115771914Y-90505627D02*
X115748100Y-90458630D01*
X115748100Y-90458630D02*
X115749103Y-90409933D01*
X115749103Y-90409933D02*
X115772451Y-90367522D01*
X115772451Y-90367522D02*
X115815675Y-90339384D01*
X115815675Y-90339384D02*
X115824160Y-90336769D01*
X115824160Y-90336769D02*
X115865308Y-90311308D01*
X115865308Y-90311308D02*
X115885128Y-90279001D01*
X115885128Y-90279001D02*
X115904770Y-90232286D01*
X115904770Y-90232286D02*
X115853950Y-90232286D01*
X115853950Y-90232286D02*
X115780082Y-90246496D01*
X115780082Y-90246496D02*
X115712327Y-90288675D01*
X115712327Y-90288675D02*
X115689661Y-90310624D01*
X115689661Y-90310624D02*
X115660569Y-90360517D01*
X115660569Y-90360517D02*
X115647400Y-90423967D01*
X115647400Y-90423967D02*
X115650968Y-90489744D01*
X115650968Y-90489744D02*
X115650968Y-90489744D01*
G36*
X115885128Y-90279001D02*
G01*
X115865308Y-90311308D01*
X115824160Y-90336769D01*
X115815675Y-90339384D01*
X115772451Y-90367522D01*
X115749103Y-90409933D01*
X115748100Y-90458630D01*
X115771914Y-90505627D01*
X115778056Y-90512643D01*
X115804745Y-90536107D01*
X115828014Y-90539981D01*
X115850862Y-90522232D01*
X115876287Y-90480821D01*
X115907288Y-90413714D01*
X115909252Y-90409176D01*
X115943990Y-90334678D01*
X115974763Y-90283797D01*
X116005488Y-90252475D01*
X116040082Y-90236657D01*
X116082462Y-90232286D01*
X116129446Y-90238014D01*
X116189585Y-90266938D01*
X116232788Y-90317822D01*
X116245759Y-90354626D01*
X116252856Y-90406566D01*
X116251340Y-90457001D01*
X116240632Y-90493017D01*
X116237966Y-90496842D01*
X116219337Y-90507002D01*
X116186505Y-90499952D01*
X116160735Y-90487703D01*
X116150006Y-90468061D01*
X116150539Y-90430809D01*
X116147462Y-90379092D01*
X116126212Y-90345299D01*
X116086877Y-90333886D01*
X116085747Y-90333896D01*
X116062913Y-90340813D01*
X116041963Y-90364341D01*
X116017815Y-90410086D01*
X115988741Y-90472296D01*
X115972925Y-90513501D01*
X115973944Y-90537288D01*
X115994837Y-90548403D01*
X116038641Y-90551592D01*
X116108393Y-90551600D01*
X116151452Y-90551956D01*
X116204626Y-90553587D01*
X116241022Y-90556239D01*
X116254514Y-90559578D01*
X116254423Y-90560470D01*
X116247110Y-90579763D01*
X116231678Y-90611716D01*
X116208842Y-90655876D01*
X116003078Y-90650629D01*
X115989432Y-90650264D01*
X115893651Y-90646096D01*
X115821462Y-90638732D01*
X115768058Y-90626670D01*
X115728633Y-90608407D01*
X115698380Y-90582440D01*
X115672493Y-90547267D01*
X115672087Y-90546616D01*
X115650968Y-90489744D01*
X115647400Y-90423967D01*
X115660569Y-90360517D01*
X115689661Y-90310624D01*
X115712327Y-90288675D01*
X115780082Y-90246496D01*
X115853950Y-90232286D01*
X115904770Y-90232286D01*
X115885128Y-90279001D01*
G37*
X115885128Y-90279001D02*
X115865308Y-90311308D01*
X115824160Y-90336769D01*
X115815675Y-90339384D01*
X115772451Y-90367522D01*
X115749103Y-90409933D01*
X115748100Y-90458630D01*
X115771914Y-90505627D01*
X115778056Y-90512643D01*
X115804745Y-90536107D01*
X115828014Y-90539981D01*
X115850862Y-90522232D01*
X115876287Y-90480821D01*
X115907288Y-90413714D01*
X115909252Y-90409176D01*
X115943990Y-90334678D01*
X115974763Y-90283797D01*
X116005488Y-90252475D01*
X116040082Y-90236657D01*
X116082462Y-90232286D01*
X116129446Y-90238014D01*
X116189585Y-90266938D01*
X116232788Y-90317822D01*
X116245759Y-90354626D01*
X116252856Y-90406566D01*
X116251340Y-90457001D01*
X116240632Y-90493017D01*
X116237966Y-90496842D01*
X116219337Y-90507002D01*
X116186505Y-90499952D01*
X116160735Y-90487703D01*
X116150006Y-90468061D01*
X116150539Y-90430809D01*
X116147462Y-90379092D01*
X116126212Y-90345299D01*
X116086877Y-90333886D01*
X116085747Y-90333896D01*
X116062913Y-90340813D01*
X116041963Y-90364341D01*
X116017815Y-90410086D01*
X115988741Y-90472296D01*
X115972925Y-90513501D01*
X115973944Y-90537288D01*
X115994837Y-90548403D01*
X116038641Y-90551592D01*
X116108393Y-90551600D01*
X116151452Y-90551956D01*
X116204626Y-90553587D01*
X116241022Y-90556239D01*
X116254514Y-90559578D01*
X116254423Y-90560470D01*
X116247110Y-90579763D01*
X116231678Y-90611716D01*
X116208842Y-90655876D01*
X116003078Y-90650629D01*
X115989432Y-90650264D01*
X115893651Y-90646096D01*
X115821462Y-90638732D01*
X115768058Y-90626670D01*
X115728633Y-90608407D01*
X115698380Y-90582440D01*
X115672493Y-90547267D01*
X115672087Y-90546616D01*
X115650968Y-90489744D01*
X115647400Y-90423967D01*
X115660569Y-90360517D01*
X115689661Y-90310624D01*
X115712327Y-90288675D01*
X115780082Y-90246496D01*
X115853950Y-90232286D01*
X115904770Y-90232286D01*
X115885128Y-90279001D01*
X115765358Y-91640117D02*
X115873837Y-91639933D01*
X115873837Y-91639933D02*
X115957287Y-91639219D01*
X115957287Y-91639219D02*
X116019704Y-91637675D01*
X116019704Y-91637675D02*
X116065085Y-91635001D01*
X116065085Y-91635001D02*
X116097429Y-91630894D01*
X116097429Y-91630894D02*
X116120733Y-91625055D01*
X116120733Y-91625055D02*
X116138995Y-91617182D01*
X116138995Y-91617182D02*
X116149418Y-91611221D01*
X116149418Y-91611221D02*
X116205945Y-91561855D01*
X116205945Y-91561855D02*
X116241377Y-91499264D01*
X116241377Y-91499264D02*
X116254090Y-91430013D01*
X116254090Y-91430013D02*
X116242463Y-91360668D01*
X116242463Y-91360668D02*
X116221568Y-91319375D01*
X116221568Y-91319375D02*
X116185422Y-91276025D01*
X116185422Y-91276025D02*
X116141276Y-91246481D01*
X116141276Y-91246481D02*
X116083462Y-91228655D01*
X116083462Y-91228655D02*
X116006313Y-91220463D01*
X116006313Y-91220463D02*
X115949714Y-91219302D01*
X115949714Y-91219302D02*
X115945647Y-91219458D01*
X115945647Y-91219458D02*
X115945647Y-91320857D01*
X115945647Y-91320857D02*
X116010550Y-91321476D01*
X116010550Y-91321476D02*
X116053514Y-91324314D01*
X116053514Y-91324314D02*
X116081622Y-91330840D01*
X116081622Y-91330840D02*
X116101953Y-91342523D01*
X116101953Y-91342523D02*
X116117288Y-91356483D01*
X116117288Y-91356483D02*
X116146890Y-91403365D01*
X116146890Y-91403365D02*
X116149419Y-91453701D01*
X116149419Y-91453701D02*
X116124705Y-91501276D01*
X116124705Y-91501276D02*
X116121356Y-91504979D01*
X116121356Y-91504979D02*
X116103935Y-91520783D01*
X116103935Y-91520783D02*
X116083209Y-91530693D01*
X116083209Y-91530693D02*
X116052362Y-91536058D01*
X116052362Y-91536058D02*
X116004577Y-91538228D01*
X116004577Y-91538228D02*
X115951748Y-91538571D01*
X115951748Y-91538571D02*
X115885381Y-91537827D01*
X115885381Y-91537827D02*
X115841106Y-91534748D01*
X115841106Y-91534748D02*
X115812009Y-91528061D01*
X115812009Y-91528061D02*
X115791173Y-91516496D01*
X115791173Y-91516496D02*
X115780107Y-91507013D01*
X115780107Y-91507013D02*
X115752198Y-91462960D01*
X115752198Y-91462960D02*
X115748843Y-91412224D01*
X115748843Y-91412224D02*
X115770159Y-91363796D01*
X115770159Y-91363796D02*
X115778073Y-91354450D01*
X115778073Y-91354450D02*
X115795647Y-91338540D01*
X115795647Y-91338540D02*
X115816587Y-91328610D01*
X115816587Y-91328610D02*
X115847782Y-91323278D01*
X115847782Y-91323278D02*
X115896122Y-91321163D01*
X115896122Y-91321163D02*
X115945647Y-91320857D01*
X115945647Y-91320857D02*
X115945647Y-91219458D01*
X115945647Y-91219458D02*
X115858568Y-91222810D01*
X115858568Y-91222810D02*
X115790086Y-91234726D01*
X115790086Y-91234726D02*
X115738600Y-91257135D01*
X115738600Y-91257135D02*
X115698443Y-91292124D01*
X115698443Y-91292124D02*
X115677861Y-91319375D01*
X115677861Y-91319375D02*
X115655625Y-91368907D01*
X115655625Y-91368907D02*
X115645304Y-91426316D01*
X115645304Y-91426316D02*
X115648067Y-91479682D01*
X115648067Y-91479682D02*
X115659212Y-91509543D01*
X115659212Y-91509543D02*
X115662383Y-91521261D01*
X115662383Y-91521261D02*
X115650557Y-91529037D01*
X115650557Y-91529037D02*
X115618866Y-91534465D01*
X115618866Y-91534465D02*
X115570593Y-91538571D01*
X115570593Y-91538571D02*
X115516829Y-91543067D01*
X115516829Y-91543067D02*
X115484482Y-91549313D01*
X115484482Y-91549313D02*
X115465985Y-91560676D01*
X115465985Y-91560676D02*
X115453770Y-91580528D01*
X115453770Y-91580528D02*
X115448362Y-91593000D01*
X115448362Y-91593000D02*
X115428601Y-91640171D01*
X115428601Y-91640171D02*
X115765358Y-91640117D01*
X115765358Y-91640117D02*
X115765358Y-91640117D01*
G36*
X116006313Y-91220463D02*
G01*
X116083462Y-91228655D01*
X116141276Y-91246481D01*
X116185422Y-91276025D01*
X116221568Y-91319375D01*
X116242463Y-91360668D01*
X116254090Y-91430013D01*
X116241377Y-91499264D01*
X116205945Y-91561855D01*
X116149418Y-91611221D01*
X116138995Y-91617182D01*
X116120733Y-91625055D01*
X116097429Y-91630894D01*
X116065085Y-91635001D01*
X116019704Y-91637675D01*
X115957287Y-91639219D01*
X115873837Y-91639933D01*
X115765358Y-91640117D01*
X115428601Y-91640171D01*
X115448362Y-91593000D01*
X115453770Y-91580528D01*
X115465985Y-91560676D01*
X115484482Y-91549313D01*
X115516829Y-91543067D01*
X115570593Y-91538571D01*
X115618866Y-91534465D01*
X115650557Y-91529037D01*
X115662383Y-91521261D01*
X115659212Y-91509543D01*
X115648067Y-91479682D01*
X115645304Y-91426316D01*
X115647837Y-91412224D01*
X115748843Y-91412224D01*
X115752198Y-91462960D01*
X115780107Y-91507013D01*
X115791173Y-91516496D01*
X115812009Y-91528061D01*
X115841106Y-91534748D01*
X115885381Y-91537827D01*
X115951748Y-91538571D01*
X116004577Y-91538228D01*
X116052362Y-91536058D01*
X116083209Y-91530693D01*
X116103935Y-91520783D01*
X116121356Y-91504979D01*
X116124705Y-91501276D01*
X116149419Y-91453701D01*
X116146890Y-91403365D01*
X116117288Y-91356483D01*
X116101953Y-91342523D01*
X116081622Y-91330840D01*
X116053514Y-91324314D01*
X116010550Y-91321476D01*
X115945647Y-91320857D01*
X115896122Y-91321163D01*
X115847782Y-91323278D01*
X115816587Y-91328610D01*
X115795647Y-91338540D01*
X115778073Y-91354450D01*
X115770159Y-91363796D01*
X115748843Y-91412224D01*
X115647837Y-91412224D01*
X115655625Y-91368907D01*
X115677861Y-91319375D01*
X115698443Y-91292124D01*
X115738600Y-91257135D01*
X115790086Y-91234726D01*
X115858568Y-91222810D01*
X115945647Y-91219458D01*
X115949714Y-91219302D01*
X116006313Y-91220463D01*
G37*
X116006313Y-91220463D02*
X116083462Y-91228655D01*
X116141276Y-91246481D01*
X116185422Y-91276025D01*
X116221568Y-91319375D01*
X116242463Y-91360668D01*
X116254090Y-91430013D01*
X116241377Y-91499264D01*
X116205945Y-91561855D01*
X116149418Y-91611221D01*
X116138995Y-91617182D01*
X116120733Y-91625055D01*
X116097429Y-91630894D01*
X116065085Y-91635001D01*
X116019704Y-91637675D01*
X115957287Y-91639219D01*
X115873837Y-91639933D01*
X115765358Y-91640117D01*
X115428601Y-91640171D01*
X115448362Y-91593000D01*
X115453770Y-91580528D01*
X115465985Y-91560676D01*
X115484482Y-91549313D01*
X115516829Y-91543067D01*
X115570593Y-91538571D01*
X115618866Y-91534465D01*
X115650557Y-91529037D01*
X115662383Y-91521261D01*
X115659212Y-91509543D01*
X115648067Y-91479682D01*
X115645304Y-91426316D01*
X115647837Y-91412224D01*
X115748843Y-91412224D01*
X115752198Y-91462960D01*
X115780107Y-91507013D01*
X115791173Y-91516496D01*
X115812009Y-91528061D01*
X115841106Y-91534748D01*
X115885381Y-91537827D01*
X115951748Y-91538571D01*
X116004577Y-91538228D01*
X116052362Y-91536058D01*
X116083209Y-91530693D01*
X116103935Y-91520783D01*
X116121356Y-91504979D01*
X116124705Y-91501276D01*
X116149419Y-91453701D01*
X116146890Y-91403365D01*
X116117288Y-91356483D01*
X116101953Y-91342523D01*
X116081622Y-91330840D01*
X116053514Y-91324314D01*
X116010550Y-91321476D01*
X115945647Y-91320857D01*
X115896122Y-91321163D01*
X115847782Y-91323278D01*
X115816587Y-91328610D01*
X115795647Y-91338540D01*
X115778073Y-91354450D01*
X115770159Y-91363796D01*
X115748843Y-91412224D01*
X115647837Y-91412224D01*
X115655625Y-91368907D01*
X115677861Y-91319375D01*
X115698443Y-91292124D01*
X115738600Y-91257135D01*
X115790086Y-91234726D01*
X115858568Y-91222810D01*
X115945647Y-91219458D01*
X115949714Y-91219302D01*
X116006313Y-91220463D01*
X115666966Y-93603595D02*
X115704497Y-93661021D01*
X115704497Y-93661021D02*
X115738096Y-93688719D01*
X115738096Y-93688719D02*
X115799064Y-93710662D01*
X115799064Y-93710662D02*
X115847308Y-93712405D01*
X115847308Y-93712405D02*
X115911816Y-93708457D01*
X115911816Y-93708457D02*
X115976934Y-93559686D01*
X115976934Y-93559686D02*
X116010202Y-93487349D01*
X116010202Y-93487349D02*
X116036964Y-93440084D01*
X116036964Y-93440084D02*
X116060144Y-93415507D01*
X116060144Y-93415507D02*
X116082667Y-93411237D01*
X116082667Y-93411237D02*
X116107455Y-93424889D01*
X116107455Y-93424889D02*
X116123886Y-93439943D01*
X116123886Y-93439943D02*
X116150235Y-93483746D01*
X116150235Y-93483746D02*
X116152081Y-93531389D01*
X116152081Y-93531389D02*
X116131546Y-93575145D01*
X116131546Y-93575145D02*
X116090752Y-93607289D01*
X116090752Y-93607289D02*
X116076347Y-93613038D01*
X116076347Y-93613038D02*
X116031356Y-93640576D01*
X116031356Y-93640576D02*
X116012182Y-93672258D01*
X116012182Y-93672258D02*
X115995779Y-93715714D01*
X115995779Y-93715714D02*
X116057966Y-93715714D01*
X116057966Y-93715714D02*
X116100283Y-93711872D01*
X116100283Y-93711872D02*
X116135969Y-93696823D01*
X116135969Y-93696823D02*
X116176943Y-93665280D01*
X116176943Y-93665280D02*
X116182267Y-93660592D01*
X116182267Y-93660592D02*
X116218720Y-93625506D01*
X116218720Y-93625506D02*
X116238283Y-93595347D01*
X116238283Y-93595347D02*
X116247283Y-93557615D01*
X116247283Y-93557615D02*
X116250230Y-93526335D01*
X116250230Y-93526335D02*
X116250965Y-93470385D01*
X116250965Y-93470385D02*
X116241660Y-93430555D01*
X116241660Y-93430555D02*
X116227846Y-93405708D01*
X116227846Y-93405708D02*
X116197467Y-93366656D01*
X116197467Y-93366656D02*
X116164613Y-93339625D01*
X116164613Y-93339625D02*
X116123294Y-93322517D01*
X116123294Y-93322517D02*
X116067521Y-93313238D01*
X116067521Y-93313238D02*
X115991305Y-93309693D01*
X115991305Y-93309693D02*
X115952622Y-93309410D01*
X115952622Y-93309410D02*
X115906247Y-93310372D01*
X115906247Y-93310372D02*
X115906247Y-93398007D01*
X115906247Y-93398007D02*
X115931126Y-93399023D01*
X115931126Y-93399023D02*
X115935200Y-93401556D01*
X115935200Y-93401556D02*
X115929665Y-93418274D01*
X115929665Y-93418274D02*
X115915017Y-93454249D01*
X115915017Y-93454249D02*
X115894190Y-93502331D01*
X115894190Y-93502331D02*
X115889714Y-93512386D01*
X115889714Y-93512386D02*
X115858814Y-93573152D01*
X115858814Y-93573152D02*
X115831657Y-93606632D01*
X115831657Y-93606632D02*
X115806220Y-93613990D01*
X115806220Y-93613990D02*
X115780481Y-93596391D01*
X115780481Y-93596391D02*
X115769109Y-93581856D01*
X115769109Y-93581856D02*
X115746364Y-93529410D01*
X115746364Y-93529410D02*
X115750122Y-93480322D01*
X115750122Y-93480322D02*
X115777884Y-93439227D01*
X115777884Y-93439227D02*
X115827152Y-93410758D01*
X115827152Y-93410758D02*
X115866257Y-93401631D01*
X115866257Y-93401631D02*
X115906247Y-93398007D01*
X115906247Y-93398007D02*
X115906247Y-93310372D01*
X115906247Y-93310372D02*
X115862249Y-93311285D01*
X115862249Y-93311285D02*
X115795384Y-93318196D01*
X115795384Y-93318196D02*
X115746695Y-93331884D01*
X115746695Y-93331884D02*
X115710849Y-93354096D01*
X115710849Y-93354096D02*
X115682513Y-93386574D01*
X115682513Y-93386574D02*
X115673355Y-93400733D01*
X115673355Y-93400733D02*
X115649507Y-93465053D01*
X115649507Y-93465053D02*
X115648006Y-93535473D01*
X115648006Y-93535473D02*
X115666966Y-93603595D01*
X115666966Y-93603595D02*
X115666966Y-93603595D01*
G36*
X115991305Y-93309693D02*
G01*
X116067521Y-93313238D01*
X116123294Y-93322517D01*
X116164613Y-93339625D01*
X116197467Y-93366656D01*
X116227846Y-93405708D01*
X116241660Y-93430555D01*
X116250965Y-93470385D01*
X116250230Y-93526335D01*
X116247283Y-93557615D01*
X116238283Y-93595347D01*
X116218720Y-93625506D01*
X116182267Y-93660592D01*
X116176943Y-93665280D01*
X116135969Y-93696823D01*
X116100283Y-93711872D01*
X116057966Y-93715714D01*
X115995779Y-93715714D01*
X116012182Y-93672258D01*
X116031356Y-93640576D01*
X116076347Y-93613038D01*
X116090752Y-93607289D01*
X116131546Y-93575145D01*
X116152081Y-93531389D01*
X116150235Y-93483746D01*
X116123886Y-93439943D01*
X116107455Y-93424889D01*
X116082667Y-93411237D01*
X116060144Y-93415507D01*
X116036964Y-93440084D01*
X116010202Y-93487349D01*
X115976934Y-93559686D01*
X115911816Y-93708457D01*
X115847308Y-93712405D01*
X115799064Y-93710662D01*
X115738096Y-93688719D01*
X115704497Y-93661021D01*
X115666966Y-93603595D01*
X115648006Y-93535473D01*
X115648135Y-93529410D01*
X115746364Y-93529410D01*
X115769109Y-93581856D01*
X115780481Y-93596391D01*
X115806220Y-93613990D01*
X115831657Y-93606632D01*
X115858814Y-93573152D01*
X115889714Y-93512386D01*
X115894190Y-93502331D01*
X115915017Y-93454249D01*
X115929665Y-93418274D01*
X115935200Y-93401556D01*
X115931126Y-93399023D01*
X115906247Y-93398007D01*
X115866257Y-93401631D01*
X115827152Y-93410758D01*
X115777884Y-93439227D01*
X115750122Y-93480322D01*
X115746364Y-93529410D01*
X115648135Y-93529410D01*
X115649507Y-93465053D01*
X115673355Y-93400733D01*
X115682513Y-93386574D01*
X115710849Y-93354096D01*
X115746695Y-93331884D01*
X115795384Y-93318196D01*
X115862249Y-93311285D01*
X115906247Y-93310372D01*
X115952622Y-93309410D01*
X115991305Y-93309693D01*
G37*
X115991305Y-93309693D02*
X116067521Y-93313238D01*
X116123294Y-93322517D01*
X116164613Y-93339625D01*
X116197467Y-93366656D01*
X116227846Y-93405708D01*
X116241660Y-93430555D01*
X116250965Y-93470385D01*
X116250230Y-93526335D01*
X116247283Y-93557615D01*
X116238283Y-93595347D01*
X116218720Y-93625506D01*
X116182267Y-93660592D01*
X116176943Y-93665280D01*
X116135969Y-93696823D01*
X116100283Y-93711872D01*
X116057966Y-93715714D01*
X115995779Y-93715714D01*
X116012182Y-93672258D01*
X116031356Y-93640576D01*
X116076347Y-93613038D01*
X116090752Y-93607289D01*
X116131546Y-93575145D01*
X116152081Y-93531389D01*
X116150235Y-93483746D01*
X116123886Y-93439943D01*
X116107455Y-93424889D01*
X116082667Y-93411237D01*
X116060144Y-93415507D01*
X116036964Y-93440084D01*
X116010202Y-93487349D01*
X115976934Y-93559686D01*
X115911816Y-93708457D01*
X115847308Y-93712405D01*
X115799064Y-93710662D01*
X115738096Y-93688719D01*
X115704497Y-93661021D01*
X115666966Y-93603595D01*
X115648006Y-93535473D01*
X115648135Y-93529410D01*
X115746364Y-93529410D01*
X115769109Y-93581856D01*
X115780481Y-93596391D01*
X115806220Y-93613990D01*
X115831657Y-93606632D01*
X115858814Y-93573152D01*
X115889714Y-93512386D01*
X115894190Y-93502331D01*
X115915017Y-93454249D01*
X115929665Y-93418274D01*
X115935200Y-93401556D01*
X115931126Y-93399023D01*
X115906247Y-93398007D01*
X115866257Y-93401631D01*
X115827152Y-93410758D01*
X115777884Y-93439227D01*
X115750122Y-93480322D01*
X115746364Y-93529410D01*
X115648135Y-93529410D01*
X115649507Y-93465053D01*
X115673355Y-93400733D01*
X115682513Y-93386574D01*
X115710849Y-93354096D01*
X115746695Y-93331884D01*
X115795384Y-93318196D01*
X115862249Y-93311285D01*
X115906247Y-93310372D01*
X115952622Y-93309410D01*
X115991305Y-93309693D01*
D13*
%TO.C,E*%
X109400000Y-91850000D02*
X109400000Y-89050000D01*
X106600000Y-91850000D02*
X109400000Y-91850000D01*
X106600000Y-89050000D02*
X106600000Y-91850000D01*
X109400000Y-89050000D02*
X106600000Y-89050000D01*
%TD*%
M02*
