%TF.GenerationSoftware,KiCad,Pcbnew,6.0.0-d3dd2cf0fa~116~ubuntu20.04.1*%
%TF.CreationDate,2022-02-06T14:44:09+01:00*%
%TF.ProjectId,vreg1,76726567-312e-46b6-9963-61645f706362,rev?*%
%TF.SameCoordinates,Original*%
%TF.FileFunction,Copper,L2,Bot*%
%TF.FilePolarity,Positive*%
%FSLAX46Y46*%
G04 Gerber Fmt 4.6, Leading zero omitted, Abs format (unit mm)*
G04 Created by KiCad (PCBNEW 6.0.0-d3dd2cf0fa~116~ubuntu20.04.1) date 2022-02-06 14:44:09*
%MOMM*%
%LPD*%
G01*
G04 APERTURE LIST*
G04 Aperture macros list*
%AMRoundRect*
0 Rectangle with rounded corners*
0 $1 Rounding radius*
0 $2 $3 $4 $5 $6 $7 $8 $9 X,Y pos of 4 corners*
0 Add a 4 corners polygon primitive as box body*
4,1,4,$2,$3,$4,$5,$6,$7,$8,$9,$2,$3,0*
0 Add four circle primitives for the rounded corners*
1,1,$1+$1,$2,$3*
1,1,$1+$1,$4,$5*
1,1,$1+$1,$6,$7*
1,1,$1+$1,$8,$9*
0 Add four rect primitives between the rounded corners*
20,1,$1+$1,$2,$3,$4,$5,0*
20,1,$1+$1,$4,$5,$6,$7,0*
20,1,$1+$1,$6,$7,$8,$9,0*
20,1,$1+$1,$8,$9,$2,$3,0*%
G04 Aperture macros list end*
%TA.AperFunction,ComponentPad*%
%ADD10RoundRect,0.500000X0.500000X-1.000000X0.500000X1.000000X-0.500000X1.000000X-0.500000X-1.000000X0*%
%TD*%
%TA.AperFunction,ComponentPad*%
%ADD11RoundRect,0.500000X-0.500000X1.000000X-0.500000X-1.000000X0.500000X-1.000000X0.500000X1.000000X0*%
%TD*%
%TA.AperFunction,ComponentPad*%
%ADD12R,1.350000X1.350000*%
%TD*%
%TA.AperFunction,ComponentPad*%
%ADD13O,1.350000X1.350000*%
%TD*%
%TA.AperFunction,SMDPad,CuDef*%
%ADD14RoundRect,0.075000X-0.075000X0.337500X-0.075000X-0.337500X0.075000X-0.337500X0.075000X0.337500X0*%
%TD*%
%TA.AperFunction,SMDPad,CuDef*%
%ADD15RoundRect,0.075000X-0.337500X0.075000X-0.337500X-0.075000X0.337500X-0.075000X0.337500X0.075000X0*%
%TD*%
G04 APERTURE END LIST*
D10*
%TO.P,TP5,1,1*%
%TO.N,/INPUT*%
X114100000Y-99000000D03*
%TD*%
%TO.P,TP1,1,1*%
%TO.N,GND*%
X101500000Y-99000000D03*
%TD*%
D11*
%TO.P,TP4,1,1*%
%TO.N,/OUT*%
X108900000Y-81900000D03*
%TD*%
%TO.P,TP6,1,1*%
%TO.N,GND*%
X98900000Y-81900000D03*
%TD*%
D10*
%TO.P,TP7,1,1*%
%TO.N,GND*%
X98900000Y-99000000D03*
%TD*%
D11*
%TO.P,TP8,1,1*%
%TO.N,/OUT*%
X111500000Y-81900000D03*
%TD*%
D10*
%TO.P,TP9,1,1*%
%TO.N,/EN*%
X108900000Y-99000000D03*
%TD*%
%TO.P,TP2,1,1*%
%TO.N,/INPUT*%
X111500000Y-99000000D03*
%TD*%
D11*
%TO.P,TP3,1,1*%
%TO.N,GND*%
X101500000Y-81900000D03*
%TD*%
D12*
%TO.P,J2,1,Pin_1*%
%TO.N,/OUT*%
X106200000Y-83100000D03*
D13*
%TO.P,J2,2,Pin_2*%
%TO.N,GND*%
X104200000Y-83100000D03*
%TD*%
D12*
%TO.P,J1,1,Pin_1*%
%TO.N,/INPUT*%
X106200000Y-97800000D03*
D13*
%TO.P,J1,2,Pin_2*%
%TO.N,GND*%
X104200000Y-97800000D03*
%TD*%
D14*
%TO.P,E,1*%
%TO.N,N/C*%
X107025000Y-88487500D03*
%TO.P,E,2*%
X107675000Y-88487500D03*
%TO.P,E,3*%
X108325000Y-88487500D03*
%TO.P,E,4*%
X108975000Y-88487500D03*
D15*
%TO.P,E,5*%
X109962500Y-89475000D03*
%TO.P,E,6*%
X109962500Y-90125000D03*
%TO.P,E,7*%
X109962500Y-90775000D03*
%TO.P,E,8*%
X109962500Y-91425000D03*
D14*
%TO.P,E,9*%
X108975000Y-92412500D03*
%TO.P,E,10*%
X108325000Y-92412500D03*
%TO.P,E,11*%
X107675000Y-92412500D03*
%TO.P,E,12*%
X107025000Y-92412500D03*
D15*
%TO.P,E,13*%
X106037500Y-91425000D03*
%TO.P,E,14*%
X106037500Y-90775000D03*
%TO.P,E,15*%
X106037500Y-90125000D03*
%TO.P,E,16*%
X106037500Y-89475000D03*
%TD*%
%TA.AperFunction,Conductor*%
%TO.N,/OUT*%
G36*
X112842121Y-82020002D02*
G01*
X112888614Y-82073658D01*
X112900000Y-82126000D01*
X112900000Y-83474000D01*
X112879998Y-83542121D01*
X112826342Y-83588614D01*
X112774000Y-83600000D01*
X107626000Y-83600000D01*
X107557879Y-83579998D01*
X107511386Y-83526342D01*
X107500000Y-83474000D01*
X107500000Y-82126000D01*
X107520002Y-82057879D01*
X107573658Y-82011386D01*
X107626000Y-82000000D01*
X112774000Y-82000000D01*
X112842121Y-82020002D01*
G37*
%TD.AperFunction*%
%TD*%
%TA.AperFunction,Conductor*%
%TO.N,GND*%
G36*
X105457847Y-82020002D02*
G01*
X105504340Y-82073658D01*
X105514444Y-82143932D01*
X105484950Y-82208512D01*
X105446729Y-82236073D01*
X105446769Y-82236133D01*
X105380448Y-82280448D01*
X105336133Y-82346769D01*
X105324500Y-82405252D01*
X105324500Y-83794748D01*
X105336133Y-83853231D01*
X105380448Y-83919552D01*
X105446769Y-83963867D01*
X105458938Y-83966288D01*
X105458939Y-83966288D01*
X105499184Y-83974293D01*
X105505252Y-83975500D01*
X106894748Y-83975500D01*
X106900816Y-83974293D01*
X106941061Y-83966288D01*
X106941062Y-83966288D01*
X106953231Y-83963867D01*
X107019552Y-83919552D01*
X107063867Y-83853231D01*
X107075500Y-83794748D01*
X107075500Y-83623137D01*
X107095502Y-83555016D01*
X107149158Y-83508523D01*
X107219432Y-83498419D01*
X107284012Y-83527913D01*
X107317718Y-83576063D01*
X107318378Y-83578762D01*
X107322081Y-83585711D01*
X107322082Y-83585714D01*
X107335625Y-83611128D01*
X107360236Y-83657314D01*
X107406729Y-83710970D01*
X107423851Y-83728445D01*
X107501533Y-83771897D01*
X107534654Y-83781622D01*
X107565331Y-83790630D01*
X107565335Y-83790631D01*
X107569654Y-83791899D01*
X107574102Y-83792539D01*
X107574109Y-83792540D01*
X107621552Y-83799361D01*
X107621559Y-83799361D01*
X107626000Y-83800000D01*
X112774000Y-83800000D01*
X112777346Y-83799640D01*
X112777352Y-83799640D01*
X112791436Y-83798126D01*
X112816512Y-83795430D01*
X112868854Y-83784044D01*
X112878762Y-83781622D01*
X112957314Y-83739764D01*
X113010970Y-83693271D01*
X113028445Y-83676149D01*
X113071897Y-83598467D01*
X113082542Y-83562214D01*
X113090630Y-83534669D01*
X113090631Y-83534665D01*
X113091899Y-83530346D01*
X113095370Y-83506206D01*
X113099361Y-83478448D01*
X113099361Y-83478441D01*
X113100000Y-83474000D01*
X113100000Y-82126000D01*
X113120002Y-82057879D01*
X113173658Y-82011386D01*
X113226000Y-82000000D01*
X115438753Y-82000000D01*
X115506874Y-82020002D01*
X115553367Y-82073658D01*
X115563471Y-82143932D01*
X115533977Y-82208512D01*
X115508482Y-82229940D01*
X115508638Y-82230145D01*
X115504511Y-82233278D01*
X115503648Y-82234003D01*
X115497352Y-82237786D01*
X115492392Y-82242477D01*
X115492390Y-82242478D01*
X115382106Y-82346769D01*
X115366877Y-82361170D01*
X115265940Y-82509694D01*
X115199252Y-82676427D01*
X115169922Y-82853591D01*
X115179321Y-83032921D01*
X115227008Y-83206049D01*
X115310760Y-83364898D01*
X115426668Y-83502058D01*
X115432091Y-83506205D01*
X115432093Y-83506206D01*
X115563905Y-83606984D01*
X115563909Y-83606987D01*
X115569326Y-83611128D01*
X115575506Y-83614010D01*
X115575508Y-83614011D01*
X115725900Y-83684140D01*
X115725903Y-83684141D01*
X115732077Y-83687020D01*
X115738725Y-83688506D01*
X115738728Y-83688507D01*
X115902290Y-83725067D01*
X115902291Y-83725067D01*
X115907328Y-83726193D01*
X115912819Y-83726500D01*
X116044866Y-83726500D01*
X116178525Y-83711980D01*
X116284996Y-83676149D01*
X116342257Y-83656879D01*
X116342259Y-83656878D01*
X116348722Y-83654703D01*
X116502648Y-83562214D01*
X116531776Y-83534669D01*
X116628165Y-83443519D01*
X116628167Y-83443517D01*
X116633123Y-83438830D01*
X116636956Y-83433190D01*
X116636961Y-83433184D01*
X116669788Y-83384880D01*
X116724621Y-83339781D01*
X116795131Y-83331487D01*
X116858932Y-83362630D01*
X116895768Y-83423322D01*
X116900000Y-83455702D01*
X116900000Y-98773933D01*
X116879998Y-98842054D01*
X116826342Y-98888547D01*
X116774000Y-98899933D01*
X116276000Y-98899933D01*
X116207879Y-98879931D01*
X116161386Y-98826275D01*
X116150000Y-98773933D01*
X116150000Y-96626000D01*
X116145430Y-96583488D01*
X116134044Y-96531146D01*
X116131622Y-96521238D01*
X116089764Y-96442686D01*
X116043271Y-96389030D01*
X116026149Y-96371555D01*
X115948467Y-96328103D01*
X115907098Y-96315956D01*
X115884669Y-96309370D01*
X115884665Y-96309369D01*
X115880346Y-96308101D01*
X115875898Y-96307461D01*
X115875891Y-96307460D01*
X115828448Y-96300639D01*
X115828441Y-96300639D01*
X115824000Y-96300000D01*
X105426000Y-96300000D01*
X105422654Y-96300360D01*
X105422648Y-96300360D01*
X105408564Y-96301874D01*
X105383488Y-96304570D01*
X105331146Y-96315956D01*
X105321238Y-96318378D01*
X105242686Y-96360236D01*
X105189030Y-96406729D01*
X105171555Y-96423851D01*
X105128103Y-96501533D01*
X105108101Y-96569654D01*
X105107461Y-96574102D01*
X105107460Y-96574109D01*
X105105629Y-96586851D01*
X105100000Y-96626000D01*
X105100000Y-98773933D01*
X105079998Y-98842054D01*
X105026342Y-98888547D01*
X104974000Y-98899933D01*
X97626000Y-98899933D01*
X97557879Y-98879931D01*
X97511386Y-98826275D01*
X97500000Y-98773933D01*
X97500000Y-96978144D01*
X97520002Y-96910023D01*
X97573658Y-96863530D01*
X97643932Y-96853426D01*
X97708512Y-96882920D01*
X97722238Y-96896816D01*
X97726668Y-96902058D01*
X97732091Y-96906205D01*
X97732093Y-96906206D01*
X97863905Y-97006984D01*
X97863909Y-97006987D01*
X97869326Y-97011128D01*
X97875506Y-97014010D01*
X97875508Y-97014011D01*
X98025900Y-97084140D01*
X98025903Y-97084141D01*
X98032077Y-97087020D01*
X98038725Y-97088506D01*
X98038728Y-97088507D01*
X98202290Y-97125067D01*
X98202291Y-97125067D01*
X98207328Y-97126193D01*
X98212819Y-97126500D01*
X98344866Y-97126500D01*
X98478525Y-97111980D01*
X98561251Y-97084140D01*
X98642257Y-97056879D01*
X98642259Y-97056878D01*
X98648722Y-97054703D01*
X98802648Y-96962214D01*
X98807610Y-96957522D01*
X98928165Y-96843519D01*
X98928167Y-96843517D01*
X98933123Y-96838830D01*
X99034060Y-96690306D01*
X99100748Y-96523573D01*
X99102287Y-96514280D01*
X99128963Y-96353146D01*
X99128963Y-96353143D01*
X99130078Y-96346409D01*
X99128804Y-96322086D01*
X99121036Y-96173892D01*
X99120679Y-96167079D01*
X99072992Y-95993951D01*
X98989240Y-95835102D01*
X98873332Y-95697942D01*
X98800783Y-95642474D01*
X98736095Y-95593016D01*
X98736091Y-95593013D01*
X98730674Y-95588872D01*
X98724494Y-95585990D01*
X98724492Y-95585989D01*
X98574100Y-95515860D01*
X98574097Y-95515859D01*
X98567923Y-95512980D01*
X98561275Y-95511494D01*
X98561272Y-95511493D01*
X98397710Y-95474933D01*
X98397709Y-95474933D01*
X98392672Y-95473807D01*
X98387181Y-95473500D01*
X98255134Y-95473500D01*
X98121475Y-95488020D01*
X98051726Y-95511493D01*
X97957743Y-95543121D01*
X97957741Y-95543122D01*
X97951278Y-95545297D01*
X97797352Y-95637786D01*
X97712572Y-95717959D01*
X97649335Y-95750229D01*
X97578688Y-95743189D01*
X97523063Y-95699072D01*
X97500000Y-95626409D01*
X97500000Y-92047867D01*
X106674500Y-92047867D01*
X106674501Y-92777132D01*
X106675708Y-92783198D01*
X106675708Y-92783203D01*
X106688064Y-92845322D01*
X106690485Y-92857495D01*
X106751376Y-92948624D01*
X106842505Y-93009515D01*
X106922867Y-93025500D01*
X107024991Y-93025500D01*
X107127132Y-93025499D01*
X107133199Y-93024292D01*
X107133202Y-93024292D01*
X107195324Y-93011936D01*
X107195325Y-93011936D01*
X107207495Y-93009515D01*
X107217814Y-93002620D01*
X107279998Y-92961070D01*
X107347751Y-92939855D01*
X107420002Y-92961070D01*
X107481796Y-93002359D01*
X107492505Y-93009515D01*
X107572867Y-93025500D01*
X107674991Y-93025500D01*
X107777132Y-93025499D01*
X107783199Y-93024292D01*
X107783202Y-93024292D01*
X107845324Y-93011936D01*
X107845325Y-93011936D01*
X107857495Y-93009515D01*
X107867814Y-93002620D01*
X107929998Y-92961070D01*
X107997751Y-92939855D01*
X108070002Y-92961070D01*
X108131796Y-93002359D01*
X108142505Y-93009515D01*
X108222867Y-93025500D01*
X108324991Y-93025500D01*
X108427132Y-93025499D01*
X108433199Y-93024292D01*
X108433202Y-93024292D01*
X108495324Y-93011936D01*
X108495325Y-93011936D01*
X108507495Y-93009515D01*
X108517814Y-93002620D01*
X108579998Y-92961070D01*
X108647751Y-92939855D01*
X108720002Y-92961070D01*
X108781796Y-93002359D01*
X108792505Y-93009515D01*
X108872867Y-93025500D01*
X108974991Y-93025500D01*
X109077132Y-93025499D01*
X109083199Y-93024292D01*
X109083202Y-93024292D01*
X109145324Y-93011936D01*
X109145325Y-93011936D01*
X109157495Y-93009515D01*
X109248624Y-92948624D01*
X109309515Y-92857495D01*
X109325500Y-92777133D01*
X109325499Y-92047868D01*
X109324292Y-92041799D01*
X109324292Y-92041797D01*
X109311936Y-91979676D01*
X109311936Y-91979675D01*
X109309515Y-91967505D01*
X109248624Y-91876376D01*
X109157495Y-91815485D01*
X109077133Y-91799500D01*
X108975009Y-91799500D01*
X108872868Y-91799501D01*
X108866801Y-91800708D01*
X108866798Y-91800708D01*
X108804676Y-91813064D01*
X108804675Y-91813064D01*
X108792505Y-91815485D01*
X108782188Y-91822378D01*
X108782187Y-91822379D01*
X108720002Y-91863930D01*
X108652249Y-91885145D01*
X108579998Y-91863930D01*
X108517814Y-91822380D01*
X108507495Y-91815485D01*
X108427133Y-91799500D01*
X108325009Y-91799500D01*
X108222868Y-91799501D01*
X108216801Y-91800708D01*
X108216798Y-91800708D01*
X108154676Y-91813064D01*
X108154675Y-91813064D01*
X108142505Y-91815485D01*
X108132188Y-91822378D01*
X108132187Y-91822379D01*
X108070002Y-91863930D01*
X108002249Y-91885145D01*
X107929998Y-91863930D01*
X107867814Y-91822380D01*
X107857495Y-91815485D01*
X107777133Y-91799500D01*
X107675009Y-91799500D01*
X107572868Y-91799501D01*
X107566801Y-91800708D01*
X107566798Y-91800708D01*
X107504676Y-91813064D01*
X107504675Y-91813064D01*
X107492505Y-91815485D01*
X107482188Y-91822378D01*
X107482187Y-91822379D01*
X107420002Y-91863930D01*
X107352249Y-91885145D01*
X107279998Y-91863930D01*
X107217814Y-91822380D01*
X107207495Y-91815485D01*
X107127133Y-91799500D01*
X107025009Y-91799500D01*
X106922868Y-91799501D01*
X106916801Y-91800708D01*
X106916798Y-91800708D01*
X106854676Y-91813064D01*
X106854675Y-91813064D01*
X106842505Y-91815485D01*
X106751376Y-91876376D01*
X106690485Y-91967505D01*
X106674500Y-92047867D01*
X97500000Y-92047867D01*
X97500000Y-91322867D01*
X105424500Y-91322867D01*
X105424501Y-91527132D01*
X105440485Y-91607495D01*
X105501376Y-91698624D01*
X105592505Y-91759515D01*
X105672867Y-91775500D01*
X106037470Y-91775500D01*
X106402132Y-91775499D01*
X106408198Y-91774292D01*
X106408203Y-91774292D01*
X106470324Y-91761936D01*
X106470325Y-91761936D01*
X106482495Y-91759515D01*
X106573624Y-91698624D01*
X106634515Y-91607495D01*
X106650500Y-91527133D01*
X106650499Y-91322868D01*
X106650499Y-91322867D01*
X109349500Y-91322867D01*
X109349501Y-91527132D01*
X109365485Y-91607495D01*
X109426376Y-91698624D01*
X109517505Y-91759515D01*
X109597867Y-91775500D01*
X109962470Y-91775500D01*
X110327132Y-91775499D01*
X110333198Y-91774292D01*
X110333203Y-91774292D01*
X110395324Y-91761936D01*
X110395325Y-91761936D01*
X110407495Y-91759515D01*
X110498624Y-91698624D01*
X110559515Y-91607495D01*
X110575500Y-91527133D01*
X110575499Y-91322868D01*
X110559515Y-91242505D01*
X110511070Y-91170002D01*
X110489855Y-91102249D01*
X110511070Y-91029998D01*
X110552620Y-90967814D01*
X110559515Y-90957495D01*
X110575500Y-90877133D01*
X110575499Y-90672868D01*
X110559515Y-90592505D01*
X110511070Y-90520002D01*
X110489855Y-90452249D01*
X110511070Y-90379998D01*
X110552620Y-90317814D01*
X110559515Y-90307495D01*
X110575500Y-90227133D01*
X110575499Y-90022868D01*
X110559515Y-89942505D01*
X110511070Y-89870002D01*
X110489855Y-89802249D01*
X110511070Y-89729998D01*
X110552620Y-89667814D01*
X110559515Y-89657495D01*
X110575500Y-89577133D01*
X110575499Y-89372868D01*
X110559515Y-89292505D01*
X110498624Y-89201376D01*
X110407495Y-89140485D01*
X110327133Y-89124500D01*
X109962530Y-89124500D01*
X109597868Y-89124501D01*
X109591802Y-89125708D01*
X109591797Y-89125708D01*
X109529676Y-89138064D01*
X109529675Y-89138064D01*
X109517505Y-89140485D01*
X109426376Y-89201376D01*
X109365485Y-89292505D01*
X109349500Y-89372867D01*
X109349501Y-89577132D01*
X109365485Y-89657495D01*
X109372378Y-89667812D01*
X109372379Y-89667813D01*
X109413930Y-89729998D01*
X109435145Y-89797751D01*
X109413930Y-89870002D01*
X109365485Y-89942505D01*
X109349500Y-90022867D01*
X109349501Y-90227132D01*
X109365485Y-90307495D01*
X109372378Y-90317812D01*
X109372379Y-90317813D01*
X109413930Y-90379998D01*
X109435145Y-90447751D01*
X109413930Y-90520002D01*
X109365485Y-90592505D01*
X109349500Y-90672867D01*
X109349501Y-90877132D01*
X109365485Y-90957495D01*
X109372378Y-90967812D01*
X109372379Y-90967813D01*
X109413930Y-91029998D01*
X109435145Y-91097751D01*
X109413930Y-91170002D01*
X109365485Y-91242505D01*
X109349500Y-91322867D01*
X106650499Y-91322867D01*
X106634515Y-91242505D01*
X106586070Y-91170002D01*
X106564855Y-91102249D01*
X106586070Y-91029998D01*
X106627620Y-90967814D01*
X106634515Y-90957495D01*
X106650500Y-90877133D01*
X106650499Y-90672868D01*
X106634515Y-90592505D01*
X106586070Y-90520002D01*
X106564855Y-90452249D01*
X106586070Y-90379998D01*
X106627620Y-90317814D01*
X106634515Y-90307495D01*
X106650500Y-90227133D01*
X106650499Y-90022868D01*
X106634515Y-89942505D01*
X106586070Y-89870002D01*
X106564855Y-89802249D01*
X106586070Y-89729998D01*
X106627620Y-89667814D01*
X106634515Y-89657495D01*
X106650500Y-89577133D01*
X106650499Y-89372868D01*
X106634515Y-89292505D01*
X106573624Y-89201376D01*
X106482495Y-89140485D01*
X106402133Y-89124500D01*
X106037530Y-89124500D01*
X105672868Y-89124501D01*
X105666802Y-89125708D01*
X105666797Y-89125708D01*
X105604676Y-89138064D01*
X105604675Y-89138064D01*
X105592505Y-89140485D01*
X105501376Y-89201376D01*
X105440485Y-89292505D01*
X105424500Y-89372867D01*
X105424501Y-89577132D01*
X105440485Y-89657495D01*
X105447378Y-89667812D01*
X105447379Y-89667813D01*
X105488930Y-89729998D01*
X105510145Y-89797751D01*
X105488930Y-89870002D01*
X105440485Y-89942505D01*
X105424500Y-90022867D01*
X105424501Y-90227132D01*
X105440485Y-90307495D01*
X105447378Y-90317812D01*
X105447379Y-90317813D01*
X105488930Y-90379998D01*
X105510145Y-90447751D01*
X105488930Y-90520002D01*
X105440485Y-90592505D01*
X105424500Y-90672867D01*
X105424501Y-90877132D01*
X105440485Y-90957495D01*
X105447378Y-90967812D01*
X105447379Y-90967813D01*
X105488930Y-91029998D01*
X105510145Y-91097751D01*
X105488930Y-91170002D01*
X105440485Y-91242505D01*
X105424500Y-91322867D01*
X97500000Y-91322867D01*
X97500000Y-88122867D01*
X106674500Y-88122867D01*
X106674501Y-88852132D01*
X106675708Y-88858198D01*
X106675708Y-88858203D01*
X106688064Y-88920322D01*
X106690485Y-88932495D01*
X106751376Y-89023624D01*
X106842505Y-89084515D01*
X106922867Y-89100500D01*
X107024991Y-89100500D01*
X107127132Y-89100499D01*
X107133199Y-89099292D01*
X107133202Y-89099292D01*
X107195324Y-89086936D01*
X107195325Y-89086936D01*
X107207495Y-89084515D01*
X107217814Y-89077620D01*
X107279998Y-89036070D01*
X107347751Y-89014855D01*
X107420002Y-89036070D01*
X107481796Y-89077359D01*
X107492505Y-89084515D01*
X107572867Y-89100500D01*
X107674991Y-89100500D01*
X107777132Y-89100499D01*
X107783199Y-89099292D01*
X107783202Y-89099292D01*
X107845324Y-89086936D01*
X107845325Y-89086936D01*
X107857495Y-89084515D01*
X107867814Y-89077620D01*
X107929998Y-89036070D01*
X107997751Y-89014855D01*
X108070002Y-89036070D01*
X108131796Y-89077359D01*
X108142505Y-89084515D01*
X108222867Y-89100500D01*
X108324991Y-89100500D01*
X108427132Y-89100499D01*
X108433199Y-89099292D01*
X108433202Y-89099292D01*
X108495324Y-89086936D01*
X108495325Y-89086936D01*
X108507495Y-89084515D01*
X108517814Y-89077620D01*
X108579998Y-89036070D01*
X108647751Y-89014855D01*
X108720002Y-89036070D01*
X108781796Y-89077359D01*
X108792505Y-89084515D01*
X108872867Y-89100500D01*
X108974991Y-89100500D01*
X109077132Y-89100499D01*
X109083199Y-89099292D01*
X109083202Y-89099292D01*
X109145324Y-89086936D01*
X109145325Y-89086936D01*
X109157495Y-89084515D01*
X109248624Y-89023624D01*
X109309515Y-88932495D01*
X109325500Y-88852133D01*
X109325499Y-88122868D01*
X109324292Y-88116799D01*
X109324292Y-88116797D01*
X109311936Y-88054676D01*
X109311936Y-88054675D01*
X109309515Y-88042505D01*
X109248624Y-87951376D01*
X109157495Y-87890485D01*
X109077133Y-87874500D01*
X108975009Y-87874500D01*
X108872868Y-87874501D01*
X108866801Y-87875708D01*
X108866798Y-87875708D01*
X108804676Y-87888064D01*
X108804675Y-87888064D01*
X108792505Y-87890485D01*
X108782188Y-87897378D01*
X108782187Y-87897379D01*
X108720002Y-87938930D01*
X108652249Y-87960145D01*
X108579998Y-87938930D01*
X108517814Y-87897380D01*
X108507495Y-87890485D01*
X108427133Y-87874500D01*
X108325009Y-87874500D01*
X108222868Y-87874501D01*
X108216801Y-87875708D01*
X108216798Y-87875708D01*
X108154676Y-87888064D01*
X108154675Y-87888064D01*
X108142505Y-87890485D01*
X108132188Y-87897378D01*
X108132187Y-87897379D01*
X108070002Y-87938930D01*
X108002249Y-87960145D01*
X107929998Y-87938930D01*
X107867814Y-87897380D01*
X107857495Y-87890485D01*
X107777133Y-87874500D01*
X107675009Y-87874500D01*
X107572868Y-87874501D01*
X107566801Y-87875708D01*
X107566798Y-87875708D01*
X107504676Y-87888064D01*
X107504675Y-87888064D01*
X107492505Y-87890485D01*
X107482188Y-87897378D01*
X107482187Y-87897379D01*
X107420002Y-87938930D01*
X107352249Y-87960145D01*
X107279998Y-87938930D01*
X107217814Y-87897380D01*
X107207495Y-87890485D01*
X107127133Y-87874500D01*
X107025009Y-87874500D01*
X106922868Y-87874501D01*
X106916801Y-87875708D01*
X106916798Y-87875708D01*
X106854676Y-87888064D01*
X106854675Y-87888064D01*
X106842505Y-87890485D01*
X106751376Y-87951376D01*
X106690485Y-88042505D01*
X106674500Y-88122867D01*
X97500000Y-88122867D01*
X97500000Y-82126000D01*
X97520002Y-82057879D01*
X97573658Y-82011386D01*
X97626000Y-82000000D01*
X105389726Y-82000000D01*
X105457847Y-82020002D01*
G37*
%TD.AperFunction*%
%TD*%
%TA.AperFunction,Conductor*%
%TO.N,/INPUT*%
G36*
X115892121Y-96520002D02*
G01*
X115938614Y-96573658D01*
X115950000Y-96626000D01*
X115950000Y-98774000D01*
X115929998Y-98842121D01*
X115876342Y-98888614D01*
X115824000Y-98900000D01*
X110226499Y-98900000D01*
X110158378Y-98879998D01*
X110111885Y-98826342D01*
X110100499Y-98774000D01*
X110100499Y-97944008D01*
X110100234Y-97941116D01*
X110094440Y-97878060D01*
X110093829Y-97871406D01*
X110043127Y-97709617D01*
X109955297Y-97564592D01*
X109835408Y-97444703D01*
X109690383Y-97356873D01*
X109683136Y-97354602D01*
X109683134Y-97354601D01*
X109617894Y-97334156D01*
X109528594Y-97306171D01*
X109455993Y-97299500D01*
X109453095Y-97299500D01*
X108898558Y-97299501D01*
X108344008Y-97299501D01*
X108341150Y-97299764D01*
X108341141Y-97299764D01*
X108305757Y-97303015D01*
X108271406Y-97306171D01*
X108265028Y-97308170D01*
X108265027Y-97308170D01*
X108116866Y-97354601D01*
X108116864Y-97354602D01*
X108109617Y-97356873D01*
X107964592Y-97444703D01*
X107844703Y-97564592D01*
X107756873Y-97709617D01*
X107706171Y-97871406D01*
X107699500Y-97944007D01*
X107699500Y-97946905D01*
X107699501Y-98774000D01*
X107679499Y-98842121D01*
X107625843Y-98888614D01*
X107573501Y-98900000D01*
X105426000Y-98900000D01*
X105357879Y-98879998D01*
X105311386Y-98826342D01*
X105300000Y-98774000D01*
X105300000Y-96626000D01*
X105320002Y-96557879D01*
X105373658Y-96511386D01*
X105426000Y-96500000D01*
X115824000Y-96500000D01*
X115892121Y-96520002D01*
G37*
%TD.AperFunction*%
%TD*%
M02*
