%TF.GenerationSoftware,KiCad,Pcbnew,6.0.0-d3dd2cf0fa~116~ubuntu20.04.1*%
%TF.CreationDate,2022-02-06T14:44:09+01:00*%
%TF.ProjectId,vreg1,76726567-312e-46b6-9963-61645f706362,rev?*%
%TF.SameCoordinates,Original*%
%TF.FileFunction,Legend,Top*%
%TF.FilePolarity,Positive*%
%FSLAX46Y46*%
G04 Gerber Fmt 4.6, Leading zero omitted, Abs format (unit mm)*
G04 Created by KiCad (PCBNEW 6.0.0-d3dd2cf0fa~116~ubuntu20.04.1) date 2022-02-06 14:44:09*
%MOMM*%
%LPD*%
G01*
G04 APERTURE LIST*
%ADD10C,0.150000*%
%ADD11C,0.120000*%
G04 APERTURE END LIST*
D10*
%TO.C,FID1*%
X112928571Y-80828571D02*
X112595238Y-80828571D01*
X112595238Y-81352380D02*
X112595238Y-80352380D01*
X113071428Y-80352380D01*
X113452380Y-81352380D02*
X113452380Y-80352380D01*
X113928571Y-81352380D02*
X113928571Y-80352380D01*
X114166666Y-80352380D01*
X114309523Y-80400000D01*
X114404761Y-80495238D01*
X114452380Y-80590476D01*
X114500000Y-80780952D01*
X114500000Y-80923809D01*
X114452380Y-81114285D01*
X114404761Y-81209523D01*
X114309523Y-81304761D01*
X114166666Y-81352380D01*
X113928571Y-81352380D01*
X115452380Y-81352380D02*
X114880952Y-81352380D01*
X115166666Y-81352380D02*
X115166666Y-80352380D01*
X115071428Y-80495238D01*
X114976190Y-80590476D01*
X114880952Y-80638095D01*
%TO.C,R2*%
X107133333Y-96366666D02*
X106900000Y-96033333D01*
X106733333Y-96366666D02*
X106733333Y-95666666D01*
X107000000Y-95666666D01*
X107066666Y-95700000D01*
X107100000Y-95733333D01*
X107133333Y-95800000D01*
X107133333Y-95900000D01*
X107100000Y-95966666D01*
X107066666Y-96000000D01*
X107000000Y-96033333D01*
X106733333Y-96033333D01*
X107400000Y-95733333D02*
X107433333Y-95700000D01*
X107500000Y-95666666D01*
X107666666Y-95666666D01*
X107733333Y-95700000D01*
X107766666Y-95733333D01*
X107800000Y-95800000D01*
X107800000Y-95866666D01*
X107766666Y-95966666D01*
X107366666Y-96366666D01*
X107800000Y-96366666D01*
%TO.C,Q1*%
X112783333Y-93683333D02*
X112716666Y-93650000D01*
X112650000Y-93583333D01*
X112550000Y-93483333D01*
X112483333Y-93450000D01*
X112416666Y-93450000D01*
X112450000Y-93616666D02*
X112383333Y-93583333D01*
X112316666Y-93516666D01*
X112283333Y-93383333D01*
X112283333Y-93150000D01*
X112316666Y-93016666D01*
X112383333Y-92950000D01*
X112450000Y-92916666D01*
X112583333Y-92916666D01*
X112650000Y-92950000D01*
X112716666Y-93016666D01*
X112750000Y-93150000D01*
X112750000Y-93383333D01*
X112716666Y-93516666D01*
X112650000Y-93583333D01*
X112583333Y-93616666D01*
X112450000Y-93616666D01*
X113416666Y-93616666D02*
X113016666Y-93616666D01*
X113216666Y-93616666D02*
X113216666Y-92916666D01*
X113150000Y-93016666D01*
X113083333Y-93083333D01*
X113016666Y-93116666D01*
%TO.C,R1*%
X115816666Y-89866666D02*
X115483333Y-90100000D01*
X115816666Y-90266666D02*
X115116666Y-90266666D01*
X115116666Y-90000000D01*
X115150000Y-89933333D01*
X115183333Y-89900000D01*
X115250000Y-89866666D01*
X115350000Y-89866666D01*
X115416666Y-89900000D01*
X115450000Y-89933333D01*
X115483333Y-90000000D01*
X115483333Y-90266666D01*
X115816666Y-89200000D02*
X115816666Y-89600000D01*
X115816666Y-89400000D02*
X115116666Y-89400000D01*
X115216666Y-89466666D01*
X115283333Y-89533333D01*
X115316666Y-89600000D01*
%TO.C,TP1*%
X100966666Y-96450000D02*
X100900000Y-96416666D01*
X100800000Y-96416666D01*
X100700000Y-96450000D01*
X100633333Y-96516666D01*
X100600000Y-96583333D01*
X100566666Y-96716666D01*
X100566666Y-96816666D01*
X100600000Y-96950000D01*
X100633333Y-97016666D01*
X100700000Y-97083333D01*
X100800000Y-97116666D01*
X100866666Y-97116666D01*
X100966666Y-97083333D01*
X101000000Y-97050000D01*
X101000000Y-96816666D01*
X100866666Y-96816666D01*
X101300000Y-97116666D02*
X101300000Y-96416666D01*
X101700000Y-97116666D01*
X101700000Y-96416666D01*
X102033333Y-97116666D02*
X102033333Y-96416666D01*
X102200000Y-96416666D01*
X102300000Y-96450000D01*
X102366666Y-96516666D01*
X102400000Y-96583333D01*
X102433333Y-96716666D01*
X102433333Y-96816666D01*
X102400000Y-96950000D01*
X102366666Y-97016666D01*
X102300000Y-97083333D01*
X102200000Y-97116666D01*
X102033333Y-97116666D01*
%TO.C,TP4*%
X109600000Y-84583333D02*
X109466666Y-84583333D01*
X109400000Y-84550000D01*
X109333333Y-84483333D01*
X109300000Y-84350000D01*
X109300000Y-84116666D01*
X109333333Y-83983333D01*
X109400000Y-83916666D01*
X109466666Y-83883333D01*
X109600000Y-83883333D01*
X109666666Y-83916666D01*
X109733333Y-83983333D01*
X109766666Y-84116666D01*
X109766666Y-84350000D01*
X109733333Y-84483333D01*
X109666666Y-84550000D01*
X109600000Y-84583333D01*
X109000000Y-84583333D02*
X109000000Y-84016666D01*
X108966666Y-83950000D01*
X108933333Y-83916666D01*
X108866666Y-83883333D01*
X108733333Y-83883333D01*
X108666666Y-83916666D01*
X108633333Y-83950000D01*
X108600000Y-84016666D01*
X108600000Y-84583333D01*
X108366666Y-84583333D02*
X107966666Y-84583333D01*
X108166666Y-83883333D02*
X108166666Y-84583333D01*
%TO.C,F1*%
X115800000Y-97583333D02*
X115800000Y-97816666D01*
X116166666Y-97816666D02*
X115466666Y-97816666D01*
X115466666Y-97483333D01*
X116166666Y-96850000D02*
X116166666Y-97250000D01*
X116166666Y-97050000D02*
X115466666Y-97050000D01*
X115566666Y-97116666D01*
X115633333Y-97183333D01*
X115666666Y-97250000D01*
%TO.C,Q2*%
X110133333Y-88983333D02*
X110066666Y-88950000D01*
X110000000Y-88883333D01*
X109900000Y-88783333D01*
X109833333Y-88750000D01*
X109766666Y-88750000D01*
X109800000Y-88916666D02*
X109733333Y-88883333D01*
X109666666Y-88816666D01*
X109633333Y-88683333D01*
X109633333Y-88450000D01*
X109666666Y-88316666D01*
X109733333Y-88250000D01*
X109800000Y-88216666D01*
X109933333Y-88216666D01*
X110000000Y-88250000D01*
X110066666Y-88316666D01*
X110100000Y-88450000D01*
X110100000Y-88683333D01*
X110066666Y-88816666D01*
X110000000Y-88883333D01*
X109933333Y-88916666D01*
X109800000Y-88916666D01*
X110366666Y-88283333D02*
X110400000Y-88250000D01*
X110466666Y-88216666D01*
X110633333Y-88216666D01*
X110700000Y-88250000D01*
X110733333Y-88283333D01*
X110766666Y-88350000D01*
X110766666Y-88416666D01*
X110733333Y-88516666D01*
X110333333Y-88916666D01*
X110766666Y-88916666D01*
%TO.C,C1*%
X102533333Y-94450000D02*
X102500000Y-94483333D01*
X102400000Y-94516666D01*
X102333333Y-94516666D01*
X102233333Y-94483333D01*
X102166666Y-94416666D01*
X102133333Y-94350000D01*
X102100000Y-94216666D01*
X102100000Y-94116666D01*
X102133333Y-93983333D01*
X102166666Y-93916666D01*
X102233333Y-93850000D01*
X102333333Y-93816666D01*
X102400000Y-93816666D01*
X102500000Y-93850000D01*
X102533333Y-93883333D01*
X103200000Y-94516666D02*
X102800000Y-94516666D01*
X103000000Y-94516666D02*
X103000000Y-93816666D01*
X102933333Y-93916666D01*
X102866666Y-93983333D01*
X102800000Y-94016666D01*
%TO.C,C2*%
X104383333Y-85250000D02*
X104350000Y-85283333D01*
X104250000Y-85316666D01*
X104183333Y-85316666D01*
X104083333Y-85283333D01*
X104016666Y-85216666D01*
X103983333Y-85150000D01*
X103950000Y-85016666D01*
X103950000Y-84916666D01*
X103983333Y-84783333D01*
X104016666Y-84716666D01*
X104083333Y-84650000D01*
X104183333Y-84616666D01*
X104250000Y-84616666D01*
X104350000Y-84650000D01*
X104383333Y-84683333D01*
X104650000Y-84683333D02*
X104683333Y-84650000D01*
X104750000Y-84616666D01*
X104916666Y-84616666D01*
X104983333Y-84650000D01*
X105016666Y-84683333D01*
X105050000Y-84750000D01*
X105050000Y-84816666D01*
X105016666Y-84916666D01*
X104616666Y-85316666D01*
X105050000Y-85316666D01*
%TO.C,U1*%
X99190476Y-93161904D02*
X99190476Y-93809523D01*
X99228571Y-93885714D01*
X99266666Y-93923809D01*
X99342857Y-93961904D01*
X99495238Y-93961904D01*
X99571428Y-93923809D01*
X99609523Y-93885714D01*
X99647619Y-93809523D01*
X99647619Y-93161904D01*
X100447619Y-93961904D02*
X99990476Y-93961904D01*
X100219047Y-93961904D02*
X100219047Y-93161904D01*
X100142857Y-93276190D01*
X100066666Y-93352380D01*
X99990476Y-93390476D01*
%TO.C,TP9*%
X108383333Y-96750000D02*
X108616666Y-96750000D01*
X108716666Y-97116666D02*
X108383333Y-97116666D01*
X108383333Y-96416666D01*
X108716666Y-96416666D01*
X109016666Y-97116666D02*
X109016666Y-96416666D01*
X109416666Y-97116666D01*
X109416666Y-96416666D01*
%TO.C,TP2*%
X112433333Y-97116666D02*
X112433333Y-96416666D01*
X112766666Y-97116666D02*
X112766666Y-96416666D01*
X113166666Y-97116666D01*
X113166666Y-96416666D01*
%TO.C,TP3*%
X100833333Y-84450000D02*
X100900000Y-84483333D01*
X101000000Y-84483333D01*
X101100000Y-84450000D01*
X101166666Y-84383333D01*
X101200000Y-84316666D01*
X101233333Y-84183333D01*
X101233333Y-84083333D01*
X101200000Y-83950000D01*
X101166666Y-83883333D01*
X101100000Y-83816666D01*
X101000000Y-83783333D01*
X100933333Y-83783333D01*
X100833333Y-83816666D01*
X100800000Y-83850000D01*
X100800000Y-84083333D01*
X100933333Y-84083333D01*
X100500000Y-83783333D02*
X100500000Y-84483333D01*
X100100000Y-83783333D01*
X100100000Y-84483333D01*
X99766666Y-83783333D02*
X99766666Y-84483333D01*
X99600000Y-84483333D01*
X99500000Y-84450000D01*
X99433333Y-84383333D01*
X99400000Y-84316666D01*
X99366666Y-84183333D01*
X99366666Y-84083333D01*
X99400000Y-83950000D01*
X99433333Y-83883333D01*
X99500000Y-83816666D01*
X99600000Y-83783333D01*
X99766666Y-83783333D01*
%TO.C,D1*%
X113183333Y-84316666D02*
X113183333Y-83616666D01*
X113350000Y-83616666D01*
X113450000Y-83650000D01*
X113516666Y-83716666D01*
X113550000Y-83783333D01*
X113583333Y-83916666D01*
X113583333Y-84016666D01*
X113550000Y-84150000D01*
X113516666Y-84216666D01*
X113450000Y-84283333D01*
X113350000Y-84316666D01*
X113183333Y-84316666D01*
X114250000Y-84316666D02*
X113850000Y-84316666D01*
X114050000Y-84316666D02*
X114050000Y-83616666D01*
X113983333Y-83716666D01*
X113916666Y-83783333D01*
X113850000Y-83816666D01*
D11*
%TO.C,R2*%
X108177500Y-95237258D02*
X108177500Y-94762742D01*
X109222500Y-95237258D02*
X109222500Y-94762742D01*
%TO.C,Q1*%
X112860000Y-94600000D02*
X112860000Y-95250000D01*
X109740000Y-94600000D02*
X109740000Y-96275000D01*
X109740000Y-94600000D02*
X109740000Y-93950000D01*
X112860000Y-94600000D02*
X112860000Y-93950000D01*
%TO.C,R1*%
X114722500Y-90362742D02*
X114722500Y-90837258D01*
X113677500Y-90362742D02*
X113677500Y-90837258D01*
%TO.C,F1*%
X114290000Y-95002064D02*
X114290000Y-93797936D01*
X116110000Y-95002064D02*
X116110000Y-93797936D01*
%TO.C,Q2*%
X111400000Y-92360000D02*
X113075000Y-92360000D01*
X111400000Y-89240000D02*
X112050000Y-89240000D01*
X111400000Y-89240000D02*
X110750000Y-89240000D01*
X111400000Y-92360000D02*
X110750000Y-92360000D01*
%TO.C,C1*%
X106311252Y-93290000D02*
X104888748Y-93290000D01*
X106311252Y-95110000D02*
X104888748Y-95110000D01*
%TO.C,C2*%
X106840580Y-84490000D02*
X106559420Y-84490000D01*
X106840580Y-85510000D02*
X106559420Y-85510000D01*
%TO.C,U1*%
X106070000Y-92580000D02*
X108900000Y-92580000D01*
X106070000Y-86220000D02*
X107170000Y-86220000D01*
X106070000Y-85950000D02*
X106070000Y-86220000D01*
X104570000Y-85950000D02*
X106070000Y-85950000D01*
X106070000Y-92850000D02*
X106070000Y-92580000D01*
X104570000Y-92850000D02*
X106070000Y-92850000D01*
%TO.C,D1*%
X116200000Y-87950000D02*
X116200000Y-84650000D01*
X116200000Y-84650000D02*
X110800000Y-84650000D01*
X116200000Y-87950000D02*
X110800000Y-87950000D01*
%TD*%
M02*
