%TF.GenerationSoftware,KiCad,Pcbnew,6.0.0-d3dd2cf0fa~116~ubuntu20.04.1*%
%TF.CreationDate,2022-02-06T14:44:09+01:00*%
%TF.ProjectId,vreg1,76726567-312e-46b6-9963-61645f706362,rev?*%
%TF.SameCoordinates,Original*%
%TF.FileFunction,Soldermask,Top*%
%TF.FilePolarity,Negative*%
%FSLAX46Y46*%
G04 Gerber Fmt 4.6, Leading zero omitted, Abs format (unit mm)*
G04 Created by KiCad (PCBNEW 6.0.0-d3dd2cf0fa~116~ubuntu20.04.1) date 2022-02-06 14:44:09*
%MOMM*%
%LPD*%
G01*
G04 APERTURE LIST*
G04 Aperture macros list*
%AMRoundRect*
0 Rectangle with rounded corners*
0 $1 Rounding radius*
0 $2 $3 $4 $5 $6 $7 $8 $9 X,Y pos of 4 corners*
0 Add a 4 corners polygon primitive as box body*
4,1,4,$2,$3,$4,$5,$6,$7,$8,$9,$2,$3,0*
0 Add four circle primitives for the rounded corners*
1,1,$1+$1,$2,$3*
1,1,$1+$1,$4,$5*
1,1,$1+$1,$6,$7*
1,1,$1+$1,$8,$9*
0 Add four rect primitives between the rounded corners*
20,1,$1+$1,$2,$3,$4,$5,0*
20,1,$1+$1,$4,$5,$6,$7,0*
20,1,$1+$1,$6,$7,$8,$9,0*
20,1,$1+$1,$8,$9,$2,$3,0*%
G04 Aperture macros list end*
%ADD10C,1.000000*%
%ADD11RoundRect,0.200000X0.275000X-0.200000X0.275000X0.200000X-0.275000X0.200000X-0.275000X-0.200000X0*%
%ADD12RoundRect,0.150000X0.150000X-0.587500X0.150000X0.587500X-0.150000X0.587500X-0.150000X-0.587500X0*%
%ADD13RoundRect,0.500000X0.500000X-1.000000X0.500000X1.000000X-0.500000X1.000000X-0.500000X-1.000000X0*%
%ADD14RoundRect,0.200000X-0.275000X0.200000X-0.275000X-0.200000X0.275000X-0.200000X0.275000X0.200000X0*%
%ADD15RoundRect,0.500000X-0.500000X1.000000X-0.500000X-1.000000X0.500000X-1.000000X0.500000X1.000000X0*%
%ADD16C,1.152000*%
%ADD17RoundRect,0.250000X0.625000X-0.375000X0.625000X0.375000X-0.625000X0.375000X-0.625000X-0.375000X0*%
%ADD18RoundRect,0.150000X0.587500X0.150000X-0.587500X0.150000X-0.587500X-0.150000X0.587500X-0.150000X0*%
%ADD19RoundRect,0.250000X0.325000X0.650000X-0.325000X0.650000X-0.325000X-0.650000X0.325000X-0.650000X0*%
%ADD20RoundRect,0.225000X0.225000X0.250000X-0.225000X0.250000X-0.225000X-0.250000X0.225000X-0.250000X0*%
%ADD21R,2.200000X1.200000*%
%ADD22R,6.400000X5.800000*%
%ADD23R,2.500000X1.800000*%
%ADD24R,1.350000X1.350000*%
%ADD25O,1.350000X1.350000*%
G04 APERTURE END LIST*
D10*
%TO.C,FID2*%
X98200000Y-94000000D03*
%TD*%
%TO.C,FID1*%
X114000000Y-82400000D03*
%TD*%
D11*
%TO.C,R2*%
X108700000Y-95825000D03*
X108700000Y-94175000D03*
%TD*%
D12*
%TO.C,Q1*%
X110350000Y-95537500D03*
X112250000Y-95537500D03*
X111300000Y-93662500D03*
%TD*%
D13*
%TO.C,TP5*%
X114100000Y-99000000D03*
%TD*%
D14*
%TO.C,R1*%
X114200000Y-89775000D03*
X114200000Y-91425000D03*
%TD*%
D13*
%TO.C,TP1*%
X101500000Y-99000000D03*
%TD*%
D15*
%TO.C,TP4*%
X108900000Y-81900000D03*
%TD*%
D16*
%TO.C,H1*%
X116000000Y-82900000D03*
%TD*%
D17*
%TO.C,F1*%
X115200000Y-95800000D03*
X115200000Y-93000000D03*
%TD*%
D15*
%TO.C,TP6*%
X98900000Y-81900000D03*
%TD*%
D13*
%TO.C,TP7*%
X98900000Y-99000000D03*
%TD*%
D18*
%TO.C,Q2*%
X112337500Y-91750000D03*
X112337500Y-89850000D03*
X110462500Y-90800000D03*
%TD*%
D15*
%TO.C,TP8*%
X111500000Y-81900000D03*
%TD*%
D19*
%TO.C,C1*%
X107075000Y-94200000D03*
X104125000Y-94200000D03*
%TD*%
D16*
%TO.C,H2*%
X98300000Y-96300000D03*
%TD*%
D20*
%TO.C,C2*%
X107475000Y-85000000D03*
X105925000Y-85000000D03*
%TD*%
D21*
%TO.C,U1*%
X107800000Y-91680000D03*
D22*
X101500000Y-89400000D03*
D21*
X107800000Y-87120000D03*
%TD*%
D13*
%TO.C,TP9*%
X108900000Y-99000000D03*
%TD*%
%TO.C,TP2*%
X111500000Y-99000000D03*
%TD*%
D15*
%TO.C,TP3*%
X101500000Y-81900000D03*
%TD*%
D23*
%TO.C,D1*%
X114800000Y-86300000D03*
X110800000Y-86300000D03*
%TD*%
D24*
%TO.C,J2*%
X106200000Y-83100000D03*
D25*
X104200000Y-83100000D03*
%TD*%
D24*
%TO.C,J1*%
X106200000Y-97800000D03*
D25*
X104200000Y-97800000D03*
%TD*%
M02*
